<svg id="Layer_2" data-name="Layer 2" xmlns="http://www.w3.org/2000/svg" viewBox="0 0 472.23 423.57"><defs><style>.cls-1{fill:#f99b1f;}.cls-2{fill:#fdc015;}.cls-13,.cls-3{fill:#fff;}.cls-4{fill:#0f303f;}.cls-5{fill:#2d5972;}.cls-6{fill:#fce502;}.cls-10,.cls-7,.cls-8,.cls-9{fill:none;}.cls-7,.cls-8{stroke:#fcc016;}.cls-10,.cls-13,.cls-7,.cls-8,.cls-9{stroke-miterlimit:10;}.cls-7{stroke-width:1.12px;}.cls-8{stroke-width:0.84px;}.cls-9{stroke:#f7941e;stroke-width:2.25px;}.cls-10,.cls-13{stroke:#fff;stroke-width:4.51px;}.cls-11{opacity:0.48;}.cls-12{opacity:0.8;}.cls-14{opacity:0.43;}</style></defs><title>clouds</title><path class="cls-1" d="M-1255.47,382.75l-45.74,45.75c2.63,2.06,5.93,2.42,8.07.87l42.15-42.15Z" transform="translate(1566.37 -24.52)"/><path class="cls-2" d="M-1240.36,397.86L-1251,387.22l-42.15,42.15h0l0,0.06,0.05,0c-1.74,2.38-1.09,6.23,1.64,9s6.57,3.38,9,1.64l0,0.06,0.06,0h0Z" transform="translate(1566.37 -24.52)"/><path class="cls-1" d="M-1282.51,440c-1.55,2.14-1.18,5.44.87,8.07l45.75-45.75-4.47-4.47Z" transform="translate(1566.37 -24.52)"/><path class="cls-3" d="M-1281.62,448.09c-2.07-2.63-2.44-5.94-.88-8.08h0l-0.06,0,0-.06c-2.39,1.74-6.22,1.09-9-1.64s-3.38-6.58-1.64-9l-0.05,0,0-.06h0c-2.14,1.55-5.45,1.19-8.08-.88l0.09,19.52Z" transform="translate(1566.37 -24.52)"/><path class="cls-1" d="M-1301.19,438.42l0,9.58,9.58,0a36.91,36.91,0,0,0-4.36-5.26A36.63,36.63,0,0,0-1301.19,438.42Z" transform="translate(1566.37 -24.52)"/><rect class="cls-4" x="-1254.13" y="379.47" width="6.5" height="6.33" transform="translate(929.12 -797.13) rotate(-45.02)"/><rect class="cls-5" x="-1246.57" y="382.66" width="6.5" height="15.05" transform="translate(926.57 -789.27) rotate(-44.99)"/><rect class="cls-4" x="-1239.02" y="394.58" width="6.5" height="6.33" transform="translate(923.52 -781.67) rotate(-44.98)"/><circle class="cls-6" cx="283.4" cy="54.33" r="38.31"/><circle class="cls-7" cx="283.4" cy="54.33" r="45.17"/><circle class="cls-8" cx="283.4" cy="54.33" r="52.7"/><path class="cls-9" d="M-1304.49,99.66a17.76,17.76,0,0,1,1-5.24,15.22,15.22,0,0,1,4.9-6.73A16.51,16.51,0,0,1-1295.8,86c1.69-.82,3.76-1.25,5.17-0.72,1,0.34,2.06,1.32,2.93,3.38a19.12,19.12,0,0,0-2.33,1.81,19.14,19.14,0,0,0-5.53,7.46,10.39,10.39,0,0,0-.62,4.89q1.09,0.5,2.15,1.05a8.85,8.85,0,0,1,.35-5.25,17.59,17.59,0,0,1,5.16-6.93c0.51-.43,1-0.79,1.38-1.12a12.85,12.85,0,0,1,.34,1.7,17.59,17.59,0,0,1-.56,8.66,8.74,8.74,0,0,1-3.65,4.62q0.9,0.53,1.77,1.1a10.18,10.18,0,0,0,3.82-5,18.46,18.46,0,0,0,.54-9.3,20.44,20.44,0,0,0-.58-2.84c2-1,3.41-1.07,4.38-.67,1.41,0.47,2.73,2.17,3.44,3.81a24.17,24.17,0,0,1,1.09,3.17,15.4,15.4,0,0,1-.64,8.32,19.4,19.4,0,0,1-5.35,7.69c0.47,0.43.93,0.88,1.38,1.33a21.48,21.48,0,0,0,5.88-8.33,16.85,16.85,0,0,0,.7-9c-0.14-.14-1-6.51-5.95-8.5a7.23,7.23,0,0,0-5.57.43,7.13,7.13,0,0,0-4-3.92c-5-1.67-9.82,2.66-10,2.6a17.25,17.25,0,0,0-5.31,7.34,19.09,19.09,0,0,0-1.07,5.39C-1305.81,99.28-1305.15,99.47-1304.49,99.66Z" transform="translate(1566.37 -24.52)"/><rect class="cls-9" x="-1335.14" y="58.63" width="2.25" height="14.95" transform="translate(627.44 -1234.3) rotate(-69.96)"/><polygon class="cls-9" points="258.59 19.36 252.23 5.92 254.27 4.95 260.57 18.42 258.59 19.36"/><rect class="cls-9" x="-1273.95" y="32.2" width="14.83" height="2.25" transform="translate(702.26 -1192.57) rotate(-69.97)"/><path class="cls-9" d="M-1330.17,99.54l-0.45-1-13.53,6.26,1,2.05,9.44-4.4A15.32,15.32,0,0,1-1330.17,99.54Z" transform="translate(1566.37 -24.52)"/><rect class="cls-9" x="-1238.26" y="93.98" width="2.25" height="14.93" transform="translate(658.07 -1120.01) rotate(-69.95)"/><polygon class="cls-9" points="323.44 43.02 336.96 36.82 336.02 34.77 322.51 41.01 323.44 43.02"/><polygon class="cls-9" points="305.71 99.57 312.02 113.06 309.94 114 303.67 100.51 305.71 99.57"/><path class="cls-10" d="M-1341.34,156.27a34.83,34.83,0,0,1-5.12.36,34.83,34.83,0,0,1-5.12-.36h10.23Z" transform="translate(1566.37 -24.52)"/><path class="cls-10" d="M-1262.36,136.38v0.79c0,10.57-8.9,19.11-19.92,19.11h-84.53c-11,0-19.92-8.54-19.92-19.11v-7.26a18.31,18.31,0,0,1,2.19-8.7c-0.09-.9-0.11-1.85-0.11-2.77a38.2,38.2,0,0,1,38.2-38.2A37.94,37.94,0,0,1-1329,84.48a27.94,27.94,0,0,1,16.47-5.34,28.12,28.12,0,0,1,28.12,28.12,25.83,25.83,0,0,1-.23,3.52h2.34a20.15,20.15,0,0,1,13.66,5.23c-0.07.7-.11,1.42-0.11,2.14,0,0.45,0,.92,0,1.37a9.08,9.08,0,0,0-1.06,4.24v3.56A9.4,9.4,0,0,0-1262.36,136.38Z" transform="translate(1566.37 -24.52)"/><path class="cls-10" d="M-1267.18,117.45a8.59,8.59,0,0,0-1.51,2.07c0-.45,0-0.92,0-1.37,0-.72,0-1.44.11-2.14A12.45,12.45,0,0,1-1267.18,117.45Z" transform="translate(1566.37 -24.52)"/><g class="cls-11"><path class="cls-10" d="M-1208.86,123.76v3.56a9.55,9.55,0,0,1-9.76,9.35h-33.94a18.46,18.46,0,0,1-9.8-4.46v4.17a9.4,9.4,0,0,1-7.39-9.06v-3.56a9.08,9.08,0,0,1,1.06-4.24,8.59,8.59,0,0,1,1.51-2.07,12.45,12.45,0,0,0-1.44-1.44A18.73,18.73,0,0,1-1250,99.47a18.56,18.56,0,0,1,8.56,2.07,13.68,13.68,0,0,1,8-2.61,13.78,13.78,0,0,1,13.77,13.77,14.24,14.24,0,0,1-.11,1.71h1.15A9.57,9.57,0,0,1-1208.86,123.76Z" transform="translate(1566.37 -24.52)"/><path class="cls-10" d="M-1267.18,117.45a8.59,8.59,0,0,0-1.51,2.07c0-.45,0-0.92,0-1.37,0-.72,0-1.44.11-2.14A12.45,12.45,0,0,1-1267.18,117.45Z" transform="translate(1566.37 -24.52)"/><path class="cls-10" d="M-1247.51,136.67a18.72,18.72,0,0,1-2.52.18,18.46,18.46,0,0,1-2.52-.18h5Z" transform="translate(1566.37 -24.52)"/><path class="cls-10" d="M-1252.56,136.67H-1260a9.2,9.2,0,0,1-2.37-.29v-4.17A18.46,18.46,0,0,0-1252.56,136.67Z" transform="translate(1566.37 -24.52)"/></g><g class="cls-12"><path class="cls-13" d="M-1493,181.31a23.32,23.32,0,0,1-2.82.18,23.4,23.4,0,0,1-2.84-.18h5.66Z" transform="translate(1566.37 -24.52)"/></g><g class="cls-14"><path class="cls-10" d="M-1424.06,160.74c0,5.07-4.73,9.17-10.59,9.17h-32.43c-1.71,6.53-8.45,11.4-16.52,11.4h-63.55c-9.37,0-17-6.58-17-14.71a13.35,13.35,0,0,1,3.72-9.17,23,23,0,0,1-.7-5.59A22.84,22.84,0,0,1-1539,129a22.71,22.71,0,0,1,17.78-8.52,22.89,22.89,0,0,1,21.68,15.59,23.4,23.4,0,0,1,3.79-.32,22.75,22.75,0,0,1,16.07,6.63,14.12,14.12,0,0,1,10.43-5.12,14.2,14.2,0,0,1,11.11-5.32,14.22,14.22,0,0,1,13.52,9.73,13.85,13.85,0,0,1,2.39-.2,14.23,14.23,0,0,1,14.06,12A8.84,8.84,0,0,1-1424.06,160.74Z" transform="translate(1566.37 -24.52)"/><path class="cls-10" d="M-1440.51,169.91a15.33,15.33,0,0,1-1.76.11,15.32,15.32,0,0,1-1.76-.11h3.52Z" transform="translate(1566.37 -24.52)"/></g><g class="cls-14"><path class="cls-13" d="M-1138.57,184.62c0,3-2.86,5.5-6.38,5.5h-3.54a8.54,8.54,0,0,0,7.55-8.5,9.16,9.16,0,0,0-.11-1.37A5.29,5.29,0,0,1-1138.57,184.62Z" transform="translate(1566.37 -24.52)"/><path class="cls-13" d="M-1148.49,190.12a7.68,7.68,0,0,1-1,.07,7.68,7.68,0,0,1-1-.07h2Z" transform="translate(1566.37 -24.52)"/></g><path class="cls-10" d="M-1096.39,167.09c0,5.09-4.75,9.19-10.61,9.19h-35.78a8.54,8.54,0,0,1,1.74,4,9.18,9.18,0,0,1,.11,1.37,8.54,8.54,0,0,1-7.55,8.5h-20.26c-3.52,0-6.35-2.46-6.35-5.5a5.08,5.08,0,0,1,1.4-3.45,8.1,8.1,0,0,1-.27-2.1,8.53,8.53,0,0,1,8.23-8.54,8.56,8.56,0,0,1,6.69-3.2,8,8,0,0,1,1.8.2,3,3,0,0,1,0-.45,8.34,8.34,0,0,1,2.34-5.72,13.87,13.87,0,0,1-.45-3.49,14.25,14.25,0,0,1,13.75-14.24,14.25,14.25,0,0,1,11.13-5.32,14.25,14.25,0,0,1,13.52,9.73,13.59,13.59,0,0,1,2.37-.2,14.28,14.28,0,0,1,14.08,12A8.73,8.73,0,0,1-1096.39,167.09Z" transform="translate(1566.37 -24.52)"/><path class="cls-10" d="M-1112.87,176.29a15.32,15.32,0,0,1-1.76.11,14.62,14.62,0,0,1-1.74-.11h3.49Z" transform="translate(1566.37 -24.52)"/></svg>