<svg id="Layer_2" data-name="Layer 2" xmlns="http://www.w3.org/2000/svg" viewBox="0 0 1622.64 647.55"><title>cpfb1</title><rect x="1329.77" y="457.91" width="6.91" height="14.48" style="fill:#19b0bf"/><polygon points="1371.57 441.65 1357.66 437.8 1343.74 433.96 1343.74 441.65 1343.74 441.65 1357.66 441.65 1371.57 441.65" style="fill:#19b0bf"/><ellipse cx="1355.94" cy="614.89" rx="171.74" ry="32.66" style="fill:#e2e2e2;opacity:0.46"/><path d="M1609.11,616.38a2.87,2.87,0,0,1-2.87-2.87V180.36a2.87,2.87,0,0,1,5.73,0V613.52a2.87,2.87,0,0,1-2.87,2.87h0Z" transform="translate(-280.63 -0.36)" style="fill:#2d5972"/><path d="M1639.22,616.38a2.87,2.87,0,0,1-2.87-2.87V180.36a2.87,2.87,0,0,1,5.74,0V613.52a2.87,2.87,0,0,1-2.87,2.87h0Z" transform="translate(-280.63 -0.36)" style="fill:#2d5972"/><path d="M1638.86,197.57h-29a2.87,2.87,0,1,1,0-5.73h29a2.87,2.87,0,0,1,0,5.73h0Z" transform="translate(-280.63 -0.36)" style="fill:#2d5972"/><path d="M1612.06,228.79c-1.27,0-4.56-.89-4.82-2.07a1.22,1.22,0,0,1-.28-0.79,2.87,2.87,0,0,1,2.87-2.87h29a2.87,2.87,0,0,1,2.87,2.87,2.69,2.69,0,0,1-2.65,2.69h0C1639.06,228.72,1612.16,228.79,1612.06,228.79Z" transform="translate(-280.63 -0.36)" style="fill:#2d5972"/><path d="M1614.29,260c-1.16,0-6.6-.81-6.84-1.9a1.14,1.14,0,0,1-.5-1,2.87,2.87,0,0,1,2.87-2.87h29a2.87,2.87,0,0,1,2.87,2.87,2.51,2.51,0,0,1-2.44,2.52h0C1639.25,259.86,1614.5,260,1614.29,260Z" transform="translate(-280.63 -0.36)" style="fill:#2d5972"/><path d="M1616.53,291.23c-1.06,0-8.64-.74-8.86-1.73a1.22,1.22,0,0,1-.71-1.14,2.87,2.87,0,0,1,2.87-2.87h29a2.87,2.87,0,0,1,2.87,2.87,2.34,2.34,0,0,1-2.22,2.35h0C1639.44,291,1616.84,291.23,1616.53,291.23Z" transform="translate(-280.63 -0.36)" style="fill:#2d5972"/><path d="M1618.76,322.45c-0.95,0-10.68-.67-10.87-1.56a1.34,1.34,0,0,1-.93-1.31,2.87,2.87,0,0,1,2.87-2.87h29a2.87,2.87,0,0,1,2.87,2.87,2.16,2.16,0,0,1-2,2.18h0C1639.64,322.15,1619.18,322.45,1618.76,322.45Z" transform="translate(-280.63 -0.36)" style="fill:#2d5972"/><path d="M1621,353.67c-0.84,0-12.72-.59-12.89-1.38a1.49,1.49,0,0,1-1.14-1.48,2.87,2.87,0,0,1,2.87-2.87h29a2.87,2.87,0,0,1,2.87,2.87,2,2,0,0,1-1.79,2h0C1639.83,353.3,1621.52,353.67,1621,353.67Z" transform="translate(-280.63 -0.36)" style="fill:#2d5972"/><path d="M1623.23,384.88c-0.74,0-14.76-.52-14.91-1.21A1.65,1.65,0,0,1,1607,382a2.87,2.87,0,0,1,2.87-2.87h29a2.87,2.87,0,0,1,2.87,2.87,1.82,1.82,0,0,1-1.57,1.83h0C1640,384.44,1623.86,384.88,1623.23,384.88Z" transform="translate(-280.63 -0.36)" style="fill:#2d5972"/><path d="M1625.46,416.1c-0.63,0-16.8-.44-16.93-1a1.82,1.82,0,0,1-1.58-1.83,2.87,2.87,0,0,1,2.87-2.87h29a2.87,2.87,0,0,1,2.87,2.87,1.65,1.65,0,0,1-1.36,1.66h0C1640.22,415.59,1626.2,416.1,1625.46,416.1Z" transform="translate(-280.63 -0.36)" style="fill:#2d5972"/><path d="M1627.69,447.32c-0.53,0-18.84-.37-18.95-0.86a2,2,0,0,1-1.79-2,2.87,2.87,0,0,1,2.87-2.87h29a2.87,2.87,0,0,1,2.87,2.87,1.49,1.49,0,0,1-1.14,1.48h0C1640.41,446.73,1628.54,447.32,1627.69,447.32Z" transform="translate(-280.63 -0.36)" style="fill:#2d5972"/><path d="M1629.93,478.54c-0.42,0-20.88-.3-21-0.69a2.16,2.16,0,0,1-2-2.18,2.87,2.87,0,0,1,2.87-2.87h29a2.87,2.87,0,0,1,2.87,2.87,1.34,1.34,0,0,1-.93,1.31h0C1640.61,477.88,1630.88,478.54,1629.93,478.54Z" transform="translate(-280.63 -0.36)" style="fill:#2d5972"/><path d="M1632.16,509.76c-0.32,0-22.92-.22-23-0.52a2.34,2.34,0,0,1-2.22-2.35,2.87,2.87,0,0,1,2.87-2.87h29a2.87,2.87,0,0,1,2.87,2.87A1.22,1.22,0,0,1,1641,508h0C1640.8,509,1633.22,509.76,1632.16,509.76Z" transform="translate(-280.63 -0.36)" style="fill:#2d5972"/><path d="M1634.4,541c-0.21,0-25-.15-25-0.35a2.51,2.51,0,0,1-2.44-2.52,2.87,2.87,0,0,1,2.87-2.87h29a2.87,2.87,0,0,1,2.87,2.87,1.14,1.14,0,0,1-.5,1h0C1641,540.17,1635.56,541,1634.4,541Z" transform="translate(-280.63 -0.36)" style="fill:#2d5972"/><path d="M1636.63,572.2c-0.11,0-27-.07-27-0.17a2.69,2.69,0,0,1-2.65-2.7,2.87,2.87,0,0,1,2.87-2.87h29a2.87,2.87,0,0,1,2.87,2.87,1.22,1.22,0,0,1-.28.79h0C1641.19,571.31,1637.9,572.2,1636.63,572.2Z" transform="translate(-280.63 -0.36)" style="fill:#2d5972"/><path d="M1638.86,603.42h-29a2.87,2.87,0,1,1,0-5.74h29a2.87,2.87,0,0,1,0,5.74h0Z" transform="translate(-280.63 -0.36)" style="fill:#2d5972"/><path d="M1643,346.71a21.75,21.75,0,0,1-21.75,21.75h0a21.75,21.75,0,0,1-21.75-21.75v-22A21.75,21.75,0,0,1,1621.27,303h0A21.75,21.75,0,0,1,1643,324.72v22Z" transform="translate(-280.63 -0.36)" style="fill:#fff"/><path d="M1617.3,274a4.93,4.93,0,0,0,7,.54l6.08-5.21a4.93,4.93,0,0,0,.54-6.95l-5.21-6.08a4.93,4.93,0,0,0-6.94-.53l-6.08,5.21a4.93,4.93,0,0,0-.54,6.95Z" transform="translate(-280.63 -0.36)" style="fill:#fff"/><path d="M1616.93,249a1.89,1.89,0,0,1,2.68.21l9.09,10.61a1.89,1.89,0,0,1-.2,2.67h0a1.89,1.89,0,0,1-2.67-.2l-9.09-10.6a1.91,1.91,0,0,1,.21-2.68h0Z" transform="translate(-280.63 -0.36)" style="fill:#fff"/><path d="M1610.47,248.59a1.9,1.9,0,0,1,2.68.2l9.09,10.61a1.9,1.9,0,0,1-.21,2.67h0a1.9,1.9,0,0,1-2.68-.21l-9.09-10.61a1.89,1.89,0,0,1,.2-2.67h0Z" transform="translate(-280.63 -0.36)" style="fill:#fff"/><path d="M1603.32,254.72a1.91,1.91,0,0,1,2.68.21l9.09,10.61a1.9,1.9,0,0,1-.21,2.67h0a1.9,1.9,0,0,1-2.67-.21l-9.09-10.61a1.91,1.91,0,0,1,.2-2.68h0Z" transform="translate(-280.63 -0.36)" style="fill:#fff"/><path d="M1604,248.23a1.9,1.9,0,0,1,2.68.21l9.09,10.6a1.9,1.9,0,0,1-.21,2.67h0a1.89,1.89,0,0,1-2.67-.21l-9.09-10.6a1.91,1.91,0,0,1,.21-2.68h0Z" transform="translate(-280.63 -0.36)" style="fill:#fff"/><path d="M1640.25,276.33l-11.86-13.83a3.34,3.34,0,0,0-4.71-.36l-4.12,3.53a3.34,3.34,0,0,0-.37,4.71L1631,284.22Z" transform="translate(-280.63 -0.36)" style="fill:#fff"/><path d="M1616.18,274l-4.71-5.5a2.8,2.8,0,0,0-4-.31l-0.71.61-0.08.08,4,4.7Z" transform="translate(-280.63 -0.36)" style="fill:#fff"/><path d="M1617.34,271.64l-6.63-.51a2.76,2.76,0,0,0-1.71.43l3,3.53,8.86,0.68Z" transform="translate(-280.63 -0.36)" style="fill:#fff"/><path d="M1593,298.58a4.93,4.93,0,0,1-6.72,1.85l-7-4a4.93,4.93,0,0,1-1.84-6.72l4-7a4.93,4.93,0,0,1,6.72-1.84l7,4a4.93,4.93,0,0,1,1.85,6.72Z" transform="translate(-280.63 -0.36)" style="fill:#fff"/><path d="M1588.63,274a1.89,1.89,0,0,0-2.59.71l-6.91,12.14a1.89,1.89,0,0,0,.71,2.58h0a1.89,1.89,0,0,0,2.59-.71l6.91-12.14a1.91,1.91,0,0,0-.71-2.59h0Z" transform="translate(-280.63 -0.36)" style="fill:#fff"/><path d="M1594.89,272.38a1.9,1.9,0,0,0-2.59.7l-6.91,12.14a1.9,1.9,0,0,0,.71,2.59h0a1.9,1.9,0,0,0,2.59-.71L1595.6,275a1.89,1.89,0,0,0-.71-2.58h0Z" transform="translate(-280.63 -0.36)" style="fill:#fff"/><path d="M1603.08,277a1.91,1.91,0,0,0-2.59.71l-6.91,12.14a1.9,1.9,0,0,0,.71,2.59h0a1.9,1.9,0,0,0,2.59-.71l6.91-12.14a1.91,1.91,0,0,0-.71-2.59h0Z" transform="translate(-280.63 -0.36)" style="fill:#fff"/><path d="M1601.22,270.78a1.9,1.9,0,0,0-2.59.71l-6.91,12.14a1.9,1.9,0,0,0,.71,2.59h0a1.89,1.89,0,0,0,2.59-.71l6.91-12.13a1.91,1.91,0,0,0-.71-2.59h0Z" transform="translate(-280.63 -0.36)" style="fill:#fff"/><path d="M1570.92,305.26l9-15.83a3.34,3.34,0,0,1,4.56-1.25l4.72,2.69a3.34,3.34,0,0,1,1.25,4.56l-9,15.83Z" transform="translate(-280.63 -0.36)" style="fill:#fff"/><path d="M1594.11,298.4l3.58-6.29a2.8,2.8,0,0,1,3.82-1l0.81,0.46,0.1,0.06-3.06,5.38Z" transform="translate(-280.63 -0.36)" style="fill:#fff"/><path d="M1592.53,296.31l6.42-1.76a2.76,2.76,0,0,1,1.76.1l-2.3,4-8.57,2.35Z" transform="translate(-280.63 -0.36)" style="fill:#fff"/><path d="M1633.48,382.49a57.11,57.11,0,0,1-43.54-81.44l-15.68-8.31a74.75,74.75,0,0,0,32.1,99.35,75.68,75.68,0,0,0,15,5.94Z" transform="translate(-280.63 -0.36)" style="fill:#f99b1f"/><rect x="1328.34" y="404.49" width="9.77" height="56.06" style="fill:#0f303f"/><rect x="1342.3" y="404.49" width="9.78" height="32.76" style="fill:#0f303f"/><rect x="1315.91" y="355.55" width="54.7" height="56.87" style="fill:#fdc015"/><path d="M1632.27,358.94a57.14,57.14,0,0,0-4.38-74.49l12.27-12.83a74.92,74.92,0,0,1,9.16,94q-1.07,1.61-2.24,3.17Z" transform="translate(-280.63 -0.36)" style="fill:#fdc015"/><rect x="1329.77" y="460.42" width="6.91" height="5.16" style="fill:#19b0bf"/><path d="M1671,575.81a1,1,0,0,1-1.21.68,23.64,23.64,0,0,0-19.38,0,1,1,0,0,1-1.21-.68l-0.06-.13a1,1,0,0,1,.29-1.38,26,26,0,0,1,21.35,0,1,1,0,0,1,.29,1.38Z" transform="translate(-280.63 -0.36)" style="fill:#0f303f"/><path d="M1670.75,574.3a26,26,0,0,0-21.35,0,1,1,0,0,0-.29,1.38,24.9,24.9,0,0,1,21.92,0A1,1,0,0,0,1670.75,574.3Z" transform="translate(-280.63 -0.36)" style="fill:#2d5972"/><path d="M1369.92,574.8H1370a0.74,0.74,0,0,1,.74.74v6.35a0.75,0.75,0,0,1-.75.75h-0.12a0.75,0.75,0,0,1-.75-0.75v-6.35A0.75,0.75,0,0,1,1369.92,574.8Z" style="fill:#fdc015"/><circle cx="1369.98" cy="579.09" r="1.81" style="fill:#fdc015"/><rect x="1388.11" y="574.8" width="1.62" height="7.84" rx="0.75" ry="0.75" style="fill:#fdc015"/><circle cx="1388.92" cy="579.09" r="1.8" style="fill:#fdc015"/><rect x="1345.37" y="579.03" width="68.16" height="45.77" rx="2.24" ry="2.24" style="fill:#0f303f"/><path d="M1694.16,596.8a3,3,0,0,1-2.21,2.79,137,137,0,0,1-63.75,0,3,3,0,0,1-2.2-2.79V581.62a2.24,2.24,0,0,1,2.24-2.24h63.68a2.25,2.25,0,0,1,2.24,2.24V596.8Z" transform="translate(-280.63 -0.36)" style="fill:#2d5972"/><path d="M1660.08,601.85a135.82,135.82,0,0,1-31.53-3.72,1.54,1.54,0,0,1-1.06-1.33V581.62a0.75,0.75,0,0,1,.75-0.74h63.67a0.75,0.75,0,0,1,.75.75V596.8a1.54,1.54,0,0,1-1.07,1.34,135.89,135.89,0,0,1-31.52,3.71h0Z" transform="translate(-280.63 -0.36)" style="fill:#0f303f"/><path d="M1660.08,599.62a140.28,140.28,0,0,1-30.17-3.32,1.53,1.53,0,0,1-1.1-1.19q-0.46-6.78-.91-13.56a0.66,0.66,0,0,1,.7-0.66h63a0.65,0.65,0,0,1,.69.66q-0.45,6.78-.91,13.56a1.53,1.53,0,0,1-1.1,1.19,140.2,140.2,0,0,1-30.16,3.32h0Z" transform="translate(-280.63 -0.36)" style="fill:#2d5972"/><path d="M1655.73,579.26v19.85c0,1,.33,1.79.75,1.79h7.22c0.41,0,.75-0.8.75-1.79V579.26h-8.71Z" transform="translate(-280.63 -0.36)" style="fill:#0f303f"/><path d="M1656.79,579.26v19.85a9.53,9.53,0,0,0,.08,1.79h0.82a9.4,9.4,0,0,0,.09-1.79V579.26h-1Z" transform="translate(-280.63 -0.36)" style="fill:#2d5972"/><path d="M1662.38,579.26v19.85a9.57,9.57,0,0,0,.08,1.79h0.83a9.68,9.68,0,0,0,.09-1.79V579.26h-1Z" transform="translate(-280.63 -0.36)" style="fill:#2d5972"/><path d="M1663.94,608a1,1,0,0,1-.64.88,10.89,10.89,0,0,1-6.42,0,1,1,0,0,1-.64-0.88v-7.71a1,1,0,0,1,.64-0.88,10.84,10.84,0,0,1,6.42,0,1,1,0,0,1,.64.88V608Z" transform="translate(-280.63 -0.36)" style="fill:#fdc015"/><path d="M1663.29,599.67a11.56,11.56,0,0,0-6.42,0,0.94,0.94,0,0,0-.64.83v3.36h7.71V600.5A0.94,0.94,0,0,0,1663.29,599.67Z" transform="translate(-280.63 -0.36)" style="fill:#f99b1f"/><path d="M1656.23,604.58V608a1,1,0,0,0,.64.88,10.89,10.89,0,0,0,6.42,0,1,1,0,0,0,.64-0.88v-3.42h-7.71Z" transform="translate(-280.63 -0.36)" style="fill:#f99b1f"/><path d="M1660.08,608.7a10.29,10.29,0,0,1-3-.45,0.35,0.35,0,0,1-.18-0.25v-2.76h6.39V608a0.35,0.35,0,0,1-.18.25,10.22,10.22,0,0,1-3,.45h0Z" transform="translate(-280.63 -0.36)" style="fill:#fdc015"/><circle cx="283.4" cy="78.49" r="38.31" style="fill:#fce502"/><circle cx="283.4" cy="78.49" r="45.17" style="fill:none;stroke:#fcc016;stroke-miterlimit:10;stroke-width:1.1183082421875px"/><circle cx="283.4" cy="78.49" r="52.7" style="fill:none;stroke:#fcc016;stroke-miterlimit:10;stroke-width:0.838731181640625px"/><path d="M542.51,99.66a17.76,17.76,0,0,1,1-5.24,15.22,15.22,0,0,1,4.9-6.73A16.51,16.51,0,0,1,551.2,86c1.69-.82,3.76-1.25,5.17-0.72,1,0.34,2.06,1.32,2.93,3.38a22.62,22.62,0,0,0-7.86,9.26,10.39,10.39,0,0,0-.62,4.89q1.09,0.5,2.15,1.05a8.85,8.85,0,0,1,.35-5.25,17.59,17.59,0,0,1,5.16-6.93c0.51-.43,1-0.79,1.38-1.12a12.85,12.85,0,0,1,.34,1.7,17.59,17.59,0,0,1-.56,8.66,8.74,8.74,0,0,1-3.65,4.62q0.9,0.53,1.77,1.1a10.18,10.18,0,0,0,3.82-5,18.46,18.46,0,0,0,.54-9.3,20.44,20.44,0,0,0-.58-2.84c2-1,3.41-1.07,4.38-.67,1.41,0.47,2.73,2.17,3.44,3.81a24.17,24.17,0,0,1,1.09,3.17,15.4,15.4,0,0,1-.64,8.32,19.4,19.4,0,0,1-5.35,7.69c0.47,0.43.93,0.88,1.38,1.33a21.48,21.48,0,0,0,5.88-8.33,16.85,16.85,0,0,0,.7-9c-0.14-.14-1-6.51-5.95-8.5a7.23,7.23,0,0,0-5.57.43,7.13,7.13,0,0,0-4-3.92c-5-1.67-9.82,2.66-10,2.6a17.25,17.25,0,0,0-5.31,7.34,19.09,19.09,0,0,0-1.07,5.39C541.19,99.28,541.85,99.47,542.51,99.66Z" transform="translate(-280.63 -0.36)" style="fill:none;stroke:#f7941e;stroke-miterlimit:10;stroke-width:2.25341796875px"/><rect x="511.86" y="58.63" width="2.25" height="14.95" transform="translate(-5.57 525.01) rotate(-69.96)" style="fill:none;stroke:#f7941e;stroke-miterlimit:10;stroke-width:2.25341796875px"/><polygon points="258.59 43.53 252.23 30.09 254.27 29.12 260.57 42.58 258.59 43.53" style="fill:none;stroke:#f7941e;stroke-miterlimit:10;stroke-width:2.25341796875px"/><rect x="573.05" y="32.2" width="14.83" height="2.25" transform="translate(69.74 566.92) rotate(-69.97)" style="fill:none;stroke:#f7941e;stroke-miterlimit:10;stroke-width:2.25341796875px"/><path d="M516.83,99.54l-0.45-1-13.53,6.26,1,2.05,9.44-4.4A15.32,15.32,0,0,1,516.83,99.54Z" transform="translate(-280.63 -0.36)" style="fill:none;stroke:#f7941e;stroke-miterlimit:10;stroke-width:2.25341796875px"/><rect x="608.74" y="93.98" width="2.25" height="14.93" transform="translate(24.85 639.22) rotate(-69.95)" style="fill:none;stroke:#f7941e;stroke-miterlimit:10;stroke-width:2.25341796875px"/><polygon points="323.44 67.19 336.96 60.99 336.02 58.93 322.51 65.17 323.44 67.19" style="fill:none;stroke:#f7941e;stroke-miterlimit:10;stroke-width:2.25341796875px"/><polygon points="305.71 123.74 312.02 137.23 309.94 138.16 303.67 124.67 305.71 123.74" style="fill:none;stroke:#f7941e;stroke-miterlimit:10;stroke-width:2.25341796875px"/><path d="M505.66,156.27a36.47,36.47,0,0,1-10.23,0h10.23Z" transform="translate(-280.63 -0.36)" style="fill:none;stroke:#fff;stroke-miterlimit:10;stroke-width:4.5068359375px"/><path d="M584.64,136.38v0.79c0,10.57-8.9,19.11-19.92,19.11H480.2c-11,0-19.92-8.54-19.92-19.11v-7.26a18.31,18.31,0,0,1,2.19-8.7c-0.09-.9-0.11-1.85-0.11-2.77a38.18,38.18,0,0,1,55.66-34,28.11,28.11,0,0,1,44.6,22.78,25.83,25.83,0,0,1-.23,3.52h2.34A20.15,20.15,0,0,1,578.38,116c-0.07.7-.11,1.42-0.11,2.14,0,0.45,0,.92,0,1.37a9.08,9.08,0,0,0-1.06,4.24v3.56A9.4,9.4,0,0,0,584.64,136.38Z" transform="translate(-280.63 -0.36)" style="fill:none;stroke:#fff;stroke-miterlimit:10;stroke-width:4.5068359375px"/><path d="M579.82,117.45a8.59,8.59,0,0,0-1.51,2.07c0-.45,0-0.92,0-1.37,0-.72,0-1.44.11-2.14A12.45,12.45,0,0,1,579.82,117.45Z" transform="translate(-280.63 -0.36)" style="fill:none;stroke:#fff;stroke-miterlimit:10;stroke-width:4.5068359375px"/><g style="opacity:0.48"><path d="M638.14,123.76v3.56a9.55,9.55,0,0,1-9.76,9.35H594.44a18.46,18.46,0,0,1-9.8-4.46v4.17a9.4,9.4,0,0,1-7.39-9.06v-3.56a9.08,9.08,0,0,1,1.06-4.24,8.59,8.59,0,0,1,1.51-2.07,12.45,12.45,0,0,0-1.44-1.44,18.72,18.72,0,0,1,27.15-14.47,13.75,13.75,0,0,1,21.81,11.15,14.24,14.24,0,0,1-.11,1.71h1.15A9.57,9.57,0,0,1,638.14,123.76Z" transform="translate(-280.63 -0.36)" style="fill:none;stroke:#fff;stroke-miterlimit:10;stroke-width:4.5068359375px"/><path d="M579.82,117.45a8.59,8.59,0,0,0-1.51,2.07c0-.45,0-0.92,0-1.37,0-.72,0-1.44.11-2.14A12.45,12.45,0,0,1,579.82,117.45Z" transform="translate(-280.63 -0.36)" style="fill:none;stroke:#fff;stroke-miterlimit:10;stroke-width:4.5068359375px"/><path d="M599.49,136.67a18.72,18.72,0,0,1-2.52.18,18.46,18.46,0,0,1-2.52-.18h5Z" transform="translate(-280.63 -0.36)" style="fill:none;stroke:#fff;stroke-miterlimit:10;stroke-width:4.5068359375px"/><path d="M594.44,136.67H587a9.2,9.2,0,0,1-2.37-.29v-4.17A18.46,18.46,0,0,0,594.44,136.67Z" transform="translate(-280.63 -0.36)" style="fill:none;stroke:#fff;stroke-miterlimit:10;stroke-width:4.5068359375px"/></g><g style="opacity:0.8"><path d="M354,181.31a22.27,22.27,0,0,1-5.66,0H354Z" transform="translate(-280.63 -0.36)" style="fill:#fff;stroke:#fff;stroke-miterlimit:10;stroke-width:4.5068359375px"/></g><g style="opacity:0.43"><path d="M422.94,160.74c0,5.07-4.73,9.17-10.59,9.17H379.92c-1.71,6.53-8.45,11.4-16.52,11.4H299.85c-9.37,0-17-6.58-17-14.71a13.35,13.35,0,0,1,3.72-9.17A22.85,22.85,0,0,1,308,129a22.84,22.84,0,0,1,39.46,7.08,23.4,23.4,0,0,1,3.79-.32,22.75,22.75,0,0,1,16.07,6.63,14.12,14.12,0,0,1,10.43-5.12,14.26,14.26,0,0,1,24.63,4.42,13.85,13.85,0,0,1,2.39-.2,14.23,14.23,0,0,1,14.06,12A8.84,8.84,0,0,1,422.94,160.74Z" transform="translate(-280.63 -0.36)" style="fill:none;stroke:#fff;stroke-miterlimit:10;stroke-width:4.5068359375px"/><path d="M406.49,169.91a13.75,13.75,0,0,1-3.52,0h3.52Z" transform="translate(-280.63 -0.36)" style="fill:none;stroke:#fff;stroke-miterlimit:10;stroke-width:4.5068359375px"/></g><g style="opacity:0.43"><path d="M708.43,184.62c0,3-2.86,5.5-6.38,5.5h-3.54a8.54,8.54,0,0,0,7.55-8.5,9.16,9.16,0,0,0-.11-1.37A5.29,5.29,0,0,1,708.43,184.62Z" transform="translate(-280.63 -0.36)" style="fill:#fff;stroke:#fff;stroke-miterlimit:10;stroke-width:4.5068359375px"/><path d="M698.51,190.12a7.65,7.65,0,0,1-2,0h2Z" transform="translate(-280.63 -0.36)" style="fill:#fff;stroke:#fff;stroke-miterlimit:10;stroke-width:4.5068359375px"/></g><path d="M750.61,167.09c0,5.09-4.75,9.19-10.61,9.19H704.21a8.54,8.54,0,0,1,1.74,4,9.18,9.18,0,0,1,.11,1.37,8.54,8.54,0,0,1-7.55,8.5H678.25c-3.52,0-6.35-2.46-6.35-5.5a5.08,5.08,0,0,1,1.4-3.45,8.1,8.1,0,0,1-.27-2.1,8.53,8.53,0,0,1,8.23-8.54,8.56,8.56,0,0,1,6.69-3.2,8,8,0,0,1,1.8.2,3,3,0,0,1,0-.45,8.34,8.34,0,0,1,2.34-5.72,13.87,13.87,0,0,1-.45-3.49,14.25,14.25,0,0,1,13.75-14.24A14.28,14.28,0,0,1,730,148.05a13.59,13.59,0,0,1,2.37-.2,14.28,14.28,0,0,1,14.08,12A8.73,8.73,0,0,1,750.61,167.09Z" transform="translate(-280.63 -0.36)" style="fill:none;stroke:#fff;stroke-miterlimit:10;stroke-width:4.5068359375px"/><path d="M734.13,176.29a15.32,15.32,0,0,1-1.76.11,14.62,14.62,0,0,1-1.74-.11h3.49Z" transform="translate(-280.63 -0.36)" style="fill:none;stroke:#fff;stroke-miterlimit:10;stroke-width:4.5068359375px"/><path d="M1678.24,158.28a36.47,36.47,0,0,0,10.23,0h-10.23Z" transform="translate(-280.63 -0.36)" style="fill:none;stroke:#fff;stroke-miterlimit:10;stroke-width:4.5068359375px"/><path d="M1599.26,138.39v0.79c0,10.57,8.9,19.11,19.92,19.11h84.53c11,0,19.92-8.54,19.92-19.11v-7.26a18.31,18.31,0,0,0-2.19-8.7c0.09-.9.11-1.85,0.11-2.77a38.18,38.18,0,0,0-55.66-34,28.11,28.11,0,0,0-44.6,22.78,25.83,25.83,0,0,0,.23,3.52h-2.34a20.15,20.15,0,0,0-13.66,5.23c0.07,0.7.11,1.42,0.11,2.14,0,0.45,0,.92,0,1.37a9.08,9.08,0,0,1,1.06,4.24v3.56A9.4,9.4,0,0,1,1599.26,138.39Z" transform="translate(-280.63 -0.36)" style="fill:none;stroke:#fff;stroke-miterlimit:10;stroke-width:4.5068359375px"/><path d="M1604.09,119.46a8.59,8.59,0,0,1,1.51,2.07c0-.45,0-0.92,0-1.37,0-.72,0-1.44-0.11-2.14A12.45,12.45,0,0,0,1604.09,119.46Z" transform="translate(-280.63 -0.36)" style="fill:none;stroke:#fff;stroke-miterlimit:10;stroke-width:4.5068359375px"/><g style="opacity:0.48"><path d="M1545.77,125.77v3.56a9.55,9.55,0,0,0,9.76,9.35h33.94a18.46,18.46,0,0,0,9.8-4.46v4.17a9.4,9.4,0,0,0,7.39-9.06v-3.56a9.08,9.08,0,0,0-1.06-4.24,8.59,8.59,0,0,0-1.51-2.07,12.45,12.45,0,0,1,1.44-1.44,18.72,18.72,0,0,0-27.15-14.47,13.75,13.75,0,0,0-21.81,11.15,14.24,14.24,0,0,0,.11,1.71h-1.15A9.57,9.57,0,0,0,1545.77,125.77Z" transform="translate(-280.63 -0.36)" style="fill:none;stroke:#fff;stroke-miterlimit:10;stroke-width:4.5068359375px"/><path d="M1604.09,119.46a8.59,8.59,0,0,1,1.51,2.07c0-.45,0-0.92,0-1.37,0-.72,0-1.44-0.11-2.14A12.45,12.45,0,0,0,1604.09,119.46Z" transform="translate(-280.63 -0.36)" style="fill:none;stroke:#fff;stroke-miterlimit:10;stroke-width:4.5068359375px"/><path d="M1584.41,138.68a18.72,18.72,0,0,0,2.52.18,18.46,18.46,0,0,0,2.52-.18h-5Z" transform="translate(-280.63 -0.36)" style="fill:none;stroke:#fff;stroke-miterlimit:10;stroke-width:4.5068359375px"/><path d="M1589.46,138.68h7.44a9.2,9.2,0,0,0,2.37-.29v-4.17A18.46,18.46,0,0,1,1589.46,138.68Z" transform="translate(-280.63 -0.36)" style="fill:none;stroke:#fff;stroke-miterlimit:10;stroke-width:4.5068359375px"/></g><g style="opacity:0.8"><path d="M1829.88,183.32a22.27,22.27,0,0,0,5.66,0h-5.66Z" transform="translate(-280.63 -0.36)" style="fill:#fff;stroke:#fff;stroke-miterlimit:10;stroke-width:4.5068359375px"/></g><g style="opacity:0.43"><path d="M1761,162.75c0,5.07,4.73,9.17,10.59,9.17H1804c1.71,6.53,8.45,11.4,16.52,11.4h63.55c9.37,0,17-6.58,17-14.71a13.35,13.35,0,0,0-3.72-9.17A22.85,22.85,0,0,0,1875.94,131a22.84,22.84,0,0,0-39.46,7.08,23.4,23.4,0,0,0-3.79-.32,22.75,22.75,0,0,0-16.07,6.63,14.12,14.12,0,0,0-10.43-5.12,14.26,14.26,0,0,0-24.63,4.42,13.85,13.85,0,0,0-2.39-.2,14.23,14.23,0,0,0-14.06,12A8.84,8.84,0,0,0,1761,162.75Z" transform="translate(-280.63 -0.36)" style="fill:none;stroke:#fff;stroke-miterlimit:10;stroke-width:4.5068359375px"/><path d="M1777.42,171.92a13.75,13.75,0,0,0,3.52,0h-3.52Z" transform="translate(-280.63 -0.36)" style="fill:none;stroke:#fff;stroke-miterlimit:10;stroke-width:4.5068359375px"/></g><g style="opacity:0.43"><path d="M1475.48,186.63c0,3,2.86,5.5,6.38,5.5h3.54a8.54,8.54,0,0,1-7.55-8.5,9.16,9.16,0,0,1,.11-1.37A5.29,5.29,0,0,0,1475.48,186.63Z" transform="translate(-280.63 -0.36)" style="fill:#fff;stroke:#fff;stroke-miterlimit:10;stroke-width:4.5068359375px"/><path d="M1485.39,192.13a7.65,7.65,0,0,0,2,0h-2Z" transform="translate(-280.63 -0.36)" style="fill:#fff;stroke:#fff;stroke-miterlimit:10;stroke-width:4.5068359375px"/></g><path d="M1433.3,169.1c0,5.09,4.75,9.19,10.61,9.19h35.78a8.54,8.54,0,0,0-1.74,4,9.18,9.18,0,0,0-.11,1.37,8.54,8.54,0,0,0,7.55,8.5h20.26c3.52,0,6.35-2.46,6.35-5.5a5.08,5.08,0,0,0-1.4-3.45,8.1,8.1,0,0,0,.27-2.1,8.53,8.53,0,0,0-8.23-8.54,8.56,8.56,0,0,0-6.69-3.2,8,8,0,0,0-1.8.2,3,3,0,0,0,0-.45,8.34,8.34,0,0,0-2.34-5.72,13.87,13.87,0,0,0,.45-3.49,14.25,14.25,0,0,0-13.75-14.24,14.28,14.28,0,0,0-24.65,4.42,13.59,13.59,0,0,0-2.37-.2,14.28,14.28,0,0,0-14.08,12A8.73,8.73,0,0,0,1433.3,169.1Z" transform="translate(-280.63 -0.36)" style="fill:none;stroke:#fff;stroke-miterlimit:10;stroke-width:4.5068359375px"/><path d="M1449.77,178.3a15.32,15.32,0,0,0,1.76.11,14.62,14.62,0,0,0,1.74-.11h-3.49Z" transform="translate(-280.63 -0.36)" style="fill:none;stroke:#fff;stroke-miterlimit:10;stroke-width:4.5068359375px"/><ellipse cx="1582.95" cy="42.06" rx="26.54" ry="30.29" transform="translate(1244.57 1624.16) rotate(-89.43)" style="fill:none;stroke:#fff;stroke-miterlimit:10;stroke-width:1.5425924335977388px"/><path d="M1582.87,49.55l0.49-49.19Z" transform="translate(-280.63 -0.36)" style="fill:none;stroke:#fff;stroke-miterlimit:10;stroke-width:1.5425924335977388px"/><path d="M1582.6,30.18l-9.54,8.19Z" transform="translate(-280.63 -0.36)" style="fill:none;stroke:#fff;stroke-miterlimit:10;stroke-width:1.5425924335977388px"/><path d="M1583.12,24.58l13.46,12Z" transform="translate(-280.63 -0.36)" style="fill:none;stroke:#fff;stroke-miterlimit:10;stroke-width:1.5425924335977388px"/><ellipse cx="1470.48" cy="54.83" rx="32.58" ry="37.18" transform="translate(1120.47 1524.34) rotate(-89.43)" style="fill:none;stroke:#fff;stroke-miterlimit:10;stroke-width:1.5425924335977388px"/><path d="M1470.39,64L1471,3.66Z" transform="translate(-280.63 -0.36)" style="fill:none;stroke:#fff;stroke-miterlimit:10;stroke-width:1.5425924335977388px"/><path d="M1470,40.26l-11.7,10.05Z" transform="translate(-280.63 -0.36)" style="fill:none;stroke:#fff;stroke-miterlimit:10;stroke-width:1.5425924335977388px"/><path d="M1470.69,33.37l16.52,14.77Z" transform="translate(-280.63 -0.36)" style="fill:none;stroke:#fff;stroke-miterlimit:10;stroke-width:1.5425924335977388px"/><ellipse cx="1529.25" cy="29.11" rx="17" ry="19.4" transform="translate(1204.35 1557.65) rotate(-89.43)" style="fill:none;stroke:#fff;stroke-miterlimit:10;stroke-width:1.5425924335977388px"/><path d="M1529.2,33.91l0.31-31.5Z" transform="translate(-280.63 -0.36)" style="fill:none;stroke:#fff;stroke-miterlimit:10;stroke-width:1.5425924335977388px"/><path d="M1529,21.5l-6.1,5.25Z" transform="translate(-280.63 -0.36)" style="fill:none;stroke:#fff;stroke-miterlimit:10;stroke-width:1.5425924335977388px"/><path d="M1529.36,17.91l8.62,7.71Z" transform="translate(-280.63 -0.36)" style="fill:none;stroke:#fff;stroke-miterlimit:10;stroke-width:1.5425924335977388px"/></svg>