<svg xmlns="http://www.w3.org/2000/svg" viewBox="0 0 1921.91 601.13"><defs><style>.cls-1{isolation:isolate;}.cls-2,.cls-57{fill:#fff;}.cls-3,.cls-58{opacity:0.43;}.cls-18,.cls-3{mix-blend-mode:color-burn;}.cls-30,.cls-31,.cls-32,.cls-33,.cls-34,.cls-35,.cls-37,.cls-38,.cls-39,.cls-4,.cls-51,.cls-52,.cls-53,.cls-54,.cls-59{fill:none;}.cls-4{stroke:#a7a9ac;}.cls-30,.cls-31,.cls-32,.cls-33,.cls-34,.cls-35,.cls-37,.cls-38,.cls-39,.cls-4,.cls-51,.cls-52,.cls-53,.cls-54,.cls-57,.cls-59{stroke-miterlimit:10;}.cls-4,.cls-53,.cls-59{stroke-width:2.25px;}.cls-5{opacity:0.5;}.cls-10,.cls-5{mix-blend-mode:multiply;}.cls-6{fill:#cdcccc;}.cls-7{fill:#989898;}.cls-8{fill:#fed600;}.cls-9{fill:#b4b4b4;}.cls-11{fill:#e6e6e5;}.cls-12{fill:#d34c27;}.cls-13{fill:#dfe2e8;}.cls-14{fill:#1a1a1a;}.cls-15{fill:#603a17;}.cls-16{fill:#f15c27;}.cls-17{fill:#c2c7cc;}.cls-19,.cls-21{opacity:0.37;}.cls-20{fill:#ed237a;}.cls-21{mix-blend-mode:soft-light;}.cls-22{fill:#ededed;}.cls-23{fill:#212121;}.cls-24{fill:#d9e028;}.cls-25{fill:#dbbfa2;}.cls-26{fill:#f79421;}.cls-27{fill:#faa51a;}.cls-28{fill:#febf10;}.cls-29{fill:#876829;}.cls-30,.cls-31,.cls-32,.cls-33,.cls-34,.cls-35,.cls-37,.cls-38,.cls-39,.cls-54,.cls-57,.cls-59{stroke:#fff;}.cls-30{stroke-width:0.79px;}.cls-31{stroke-width:1.27px;}.cls-32{stroke-width:0.66px;}.cls-33{stroke-width:0.97px;}.cls-34{stroke-width:1.56px;}.cls-35{stroke-width:0.81px;}.cls-36{fill:#f26327;}.cls-37{stroke-width:0.5px;}.cls-38{stroke-width:0.81px;}.cls-39{stroke-width:0.42px;}.cls-40{fill:#f99b1f;}.cls-41{fill:#fdc015;}.cls-42{fill:#0f303f;}.cls-43{fill:#2d5972;}.cls-44{fill:#c4d92f;}.cls-45{fill:#6996cf;}.cls-46{fill:#5058a6;}.cls-47{fill:#f6b619;}.cls-48{fill:#a74525;}.cls-49{fill:#61441a;}.cls-50{fill:#fce502;}.cls-51,.cls-52{stroke:#fcc016;}.cls-51{stroke-width:1.12px;}.cls-52{stroke-width:0.84px;}.cls-53{stroke:#f7941e;}.cls-54,.cls-57{stroke-width:4.51px;}.cls-55{opacity:0.48;}.cls-56{opacity:0.8;}</style></defs><title>cpfb</title><g class="cls-1"><g id="Layer_2" data-name="Layer 2"><rect class="cls-2" x="1512.11" y="361.02" width="1.84" height="9.02"/><rect class="cls-2" x="1508.52" y="364.61" width="9.01" height="1.83"/><rect class="cls-2" x="1520.87" y="238.14" width="0.93" height="4.56"/><rect class="cls-2" x="1519.05" y="239.96" width="4.56" height="0.92"/><rect class="cls-2" x="1493.25" y="286.39" width="0.93" height="4.56"/><rect class="cls-2" x="1491.44" y="288.2" width="4.56" height="0.93"/><g class="cls-3"><path class="cls-4" d="M1270.81,244.46c0,91.6,73.91,165.85,165.08,165.85S1601,336.05,1601,244.46,1527.07,78.62,1435.9,78.62,1270.81,152.87,1270.81,244.46Z" transform="translate(-3.84 -24.52)"/></g><g class="cls-5"><path class="cls-6" d="M1501.52,448.64c0,4-36.37,7.19-81.24,7.19s-81.24-3.22-81.24-7.19,36.38-7.19,81.24-7.19S1501.52,444.66,1501.52,448.64Z" transform="translate(-3.84 -24.52)"/></g><path class="cls-7" d="M1406.76,311.17c-0.42,4.47,5.42,8.68,13,9.41s14.14-2.32,14.56-6.78-5.41-8.68-13-9.4S1407.18,306.71,1406.76,311.17Z" transform="translate(-3.84 -24.52)"/><path class="cls-8" d="M1366.19,163.19a68.15,68.15,0,1,1,99.25,67.23l-2.49,26.42a21.85,21.85,0,0,1-23.79,19.76L1409,273.73a21.9,21.9,0,0,1-19.67-23.91l2.49-26.41A68.52,68.52,0,0,1,1366.19,163.19Z" transform="translate(-3.84 -24.52)"/><path class="cls-6" d="M1453.91,273l-2.5,26.48a17.44,17.44,0,0,1-19,15.77l-24-2.29a17.49,17.49,0,0,1-15.7-19.07l2.5-26.48Z" transform="translate(-3.84 -24.52)"/><polygon class="cls-9" points="1448.25 267.67 1390.04 256.75 1390.55 251.34 1448.76 262.25 1448.25 267.67"/><path class="cls-9" d="M1451.31,300.25a17.67,17.67,0,0,1-1.59,5.21l-57.08-10.7c0-.31,0-0.61.06-0.91l0.43-4.5Z" transform="translate(-3.84 -24.52)"/><path class="cls-2" d="M1391.72,159.56a1.93,1.93,0,0,1,2.71.26l31.07,37.75,11.7,1.11,37.57-31.2a1.91,1.91,0,0,1,2.71.26,1.94,1.94,0,0,1-.25,2.72l-39,32.43-0.82,62.65-24.53-2.33,10.9-61.69-32.27-39.21A1.94,1.94,0,0,1,1391.72,159.56Z" transform="translate(-3.84 -24.52)"/><g class="cls-10"><path class="cls-11" d="M1441,101.56a68.54,68.54,0,0,1,24.4,128.86l-2.49,26.42a21.91,21.91,0,0,1-9.47,16.08l0.45,0-1.31,13.82-0.51,5.42-0.69,7.24a17,17,0,0,1-.33,2.11,0.92,0.92,0,0,1,0,.17,17.1,17.1,0,0,1-.76,2.46l0,0.11c-0.16.4-.33,0.8-0.52,1.18h0a17.42,17.42,0,0,1-15.75,9.81c-1.51,3.54-7.1,5.81-13.61,5.35Z" transform="translate(-3.84 -24.52)"/></g><path class="cls-2" d="M1395.56,175.67a2.71,2.71,0,0,0,2.94-2.44c1.35-14.36,18.1-24.57,37.34-22.73s33.78,15,32.42,29.38a2.69,2.69,0,1,0,5.36.5c1.64-17.34-15.09-33.17-37.28-35.27s-41.58,10.27-43.22,27.61A2.7,2.7,0,0,0,1395.56,175.67Z" transform="translate(-3.84 -24.52)"/><polygon class="cls-2" points="1366.47 345.37 1363.92 341.94 1349.96 352 1352.51 355.44 1366.47 345.37"/><polygon class="cls-12" points="1405.99 263.28 1402.1 311.43 1378.66 352.15 1360.74 341.74 1381.85 305.08 1385.36 261.6 1405.99 263.28"/><polygon class="cls-2" points="1378.85 348.66 1365.24 339.68 1353.74 357.23 1367.36 366.23 1378.85 348.66"/><polygon class="cls-2" points="1358.91 356.75 1355.74 354.63 1346.45 368.63 1349.62 370.75 1358.91 356.75"/><polygon class="cls-2" points="1361.82 360.11 1359 358.23 1349.42 372.8 1352.25 374.67 1361.82 360.11"/><polygon class="cls-2" points="1365.82 361.63 1362.99 359.74 1353.41 374.3 1356.24 376.19 1365.82 361.63"/><polygon class="cls-2" points="1369.6 362.58 1367.05 360.97 1359.08 373.71 1361.63 375.33 1369.6 362.58"/><polygon class="cls-13" points="1362.43 336.69 1382.26 348.26 1378.49 354.78 1358.66 343.22 1362.43 336.69"/><rect class="cls-14" x="1387.49" y="344.84" width="23.47" height="72.59"/><rect class="cls-15" x="1374.37" y="416.4" width="37.28" height="7.28"/><rect class="cls-14" x="1431.64" y="344.84" width="23.47" height="72.59"/><rect class="cls-15" x="1418.52" y="416.4" width="37.28" height="7.28"/><rect class="cls-16" x="1380.77" y="257.9" width="78.71" height="97.8"/><polygon class="cls-17" points="1375.71 273.64 1460.82 266.51 1460.82 253.21 1379.91 253.21 1375.71 273.64"/><polygon class="cls-13" points="1387.68 276.4 1460.82 267.75 1460.82 253.21 1379.91 253.21 1387.68 276.4"/><path class="cls-17" d="M1391.9,287a1.33,1.33,0,1,0,1.32-1.33A1.33,1.33,0,0,0,1391.9,287Z" transform="translate(-3.84 -24.52)"/><rect class="cls-14" x="1380.77" y="331.08" width="78.71" height="24.62"/><rect class="cls-13" x="1380.77" y="328.31" width="78.71" height="6.59"/><g class="cls-18"><rect class="cls-17" x="1404.02" y="282.53" width="16.57" height="21.86"/></g><polygon class="cls-2" points="1405.68 282.53 1411.62 276.57 1417.55 282.53 1405.68 282.53"/><g class="cls-19"><path class="cls-20" d="M1559.43,214.95h0.85a1.67,1.67,0,0,0,0-3.35h-0.84A1.68,1.68,0,0,0,1559.43,214.95Zm-8.32,0a1.67,1.67,0,0,0,0-3.34l-0.83,0a1.69,1.69,0,0,0-1.69,1.65,1.67,1.67,0,0,0,1.63,1.7h0.86Zm17.46-.21h0.07l0.84,0a1.66,1.66,0,0,0,1.57-1.75,1.69,1.69,0,0,0-1.75-1.59l-0.81,0A1.67,1.67,0,0,0,1568.57,214.7Zm-26.61-.05a1.67,1.67,0,0,0,.06-3.34l-0.79,0-0.1,1.67,0,1.67,0.8,0H1542Zm-9.14-.44a1.67,1.67,0,0,0,.09-3.34l-0.82,0a1.67,1.67,0,0,0-.2,3.33l0.83,0h0.1Zm44.87-.13h0.16l0.84-.08a1.67,1.67,0,0,0-.34-3.33l-0.81.08A1.67,1.67,0,0,0,1577.7,214.08Zm-54-.48a1.67,1.67,0,0,0,.12-3.34l-0.76-.06-0.19,1.66-0.07,1.67,0.77,0.06h0.12Zm63.06-.73a1.56,1.56,0,0,0,.3,0l0.82-.15a1.67,1.67,0,0,0-.61-3.29l-0.8.15A1.67,1.67,0,0,0,1586.76,212.87Zm-72.18,0a1.67,1.67,0,0,0,.14-3.33l-0.78-.07-0.19,1.66-0.12,1.67,0.8,0.07h0.14Zm-9.11-.88a1.67,1.67,0,0,0,.17-3.33l-0.83-.09a1.67,1.67,0,0,0-.34,3.33l0.83,0.08h0.17Zm-9.09-1a1.67,1.67,0,0,0,.19-3.33l-0.82-.09a1.67,1.67,0,0,0-.38,3.32l0.82,0.09h0.2Zm99.25-.37a1.62,1.62,0,0,0,.56-0.1l0.82-.32a1.67,1.67,0,0,0-1.22-3.1l-0.73.28A1.67,1.67,0,0,0,1595.62,210.6Zm-108.33-.73a1.67,1.67,0,0,0,.21-3.33l-0.83-.11a1.67,1.67,0,0,0-.42,3.32l0.82,0.1Zm-9.07-1.2a1.67,1.67,0,0,0,.22-3.33l-0.82-.11a1.65,1.65,0,0,0-1.88,1.42,1.67,1.67,0,0,0,1.42,1.89l0.84,0.11Zm-9.06-1.3a1.67,1.67,0,0,0,.24-3.32l-0.83-.13a1.67,1.67,0,0,0-.48,3.31l0.82,0.12A1.06,1.06,0,0,0,1469.17,207.37Zm-9-1.39a1.67,1.67,0,0,0,.25-3.32l-0.82-.13a1.67,1.67,0,0,0-.52,3.3l0.82,0.13A1.14,1.14,0,0,0,1460.12,206Zm142.95-.41a1.66,1.66,0,0,0,1.43-.82,6.91,6.91,0,0,0,.48-0.95,1.67,1.67,0,0,0-.89-2.19,1.65,1.65,0,0,0-2.18.89c-0.08.18-.17,0.35-0.27,0.53A1.67,1.67,0,0,0,1603.07,205.58Zm-152-1.06a1.67,1.67,0,0,0,.27-3.32l-0.82-.14a1.67,1.67,0,0,0-.56,3.29l0.82,0.14Zm-9-1.56a1.67,1.67,0,0,0,.28-3.32l-0.81-.15a1.67,1.67,0,0,0-.58,3.29l0.83,0.15A1.37,1.37,0,0,0,1442.07,203Zm-9-1.65a1.67,1.67,0,0,0,.3-3.31l-0.81-.15a1.67,1.67,0,0,0-.61,3.29l0.83,0.15A1.46,1.46,0,0,0,1433.07,201.31Zm-9-1.72a1.66,1.66,0,0,0,1.63-1.34,1.68,1.68,0,0,0-1.31-2l-0.82-.16a1.67,1.67,0,0,0-.64,3.28l0.82,0.16A1.32,1.32,0,0,0,1424.08,199.59Zm-9-1.79a1.67,1.67,0,0,0,.33-3.31l-0.81-.17a1.67,1.67,0,0,0-.68,3.27l0.82,0.17A1.34,1.34,0,0,0,1415.11,197.8Zm186.3-.55a1.67,1.67,0,0,0,1.28-2.73c-0.19-.24-0.38-0.46-0.59-0.69a1.65,1.65,0,0,0-2.34-.13,1.68,1.68,0,0,0-.13,2.36c0.18,0.19.34,0.39,0.49,0.57A1.67,1.67,0,0,0,1601.42,197.25Zm-195.26-1.34a1.67,1.67,0,0,0,.35-3.3l-0.81-.18a1.66,1.66,0,0,0-2,1.28,1.68,1.68,0,0,0,1.27,2l0.82,0.18Zm-8.93-2a1.67,1.67,0,0,0,.36-3.3l-0.81-.19a1.67,1.67,0,0,0-.73,3.26l0.81,0.19A2.39,2.39,0,0,0,1397.22,193.95Zm-8.92-2.06a1.67,1.67,0,0,0,.38-3.3l-0.81-.19a1.67,1.67,0,0,0-.76,3.25l0.81,0.2A1.61,1.61,0,0,0,1388.3,191.89Zm206.25-.67a1.66,1.66,0,0,0,1.37-.71,1.67,1.67,0,0,0-.41-2.32l-0.71-.49a1.67,1.67,0,0,0-1.86,2.77l0.67,0.46A1.6,1.6,0,0,0,1594.54,191.22Zm-215.15-1.47a1.68,1.68,0,0,0,.4-3.3l-0.82-.19a1.65,1.65,0,0,0-2,1.22,1.68,1.68,0,0,0,1.21,2l0.8,0.19A1.8,1.8,0,0,0,1379.39,189.75Zm-8.87-2.23a1.67,1.67,0,0,0,.41-3.29l-0.8-.21a1.67,1.67,0,0,0-.83,3.23l0.81,0.21A1.51,1.51,0,0,0,1370.52,187.51Zm216.22-1.08a1.67,1.67,0,0,0,.8-3.13l-0.75-.41a1.65,1.65,0,0,0-2.25.68,1.68,1.68,0,0,0,.68,2.26l0.72,0.39A1.54,1.54,0,0,0,1586.74,186.43Zm-225.07-1.25a1.67,1.67,0,0,0,.43-3.29l-0.8-.21a1.67,1.67,0,0,0-.86,3.23l0.8,0.22A1.62,1.62,0,0,0,1361.67,185.18Zm-8.82-2.44a1.67,1.67,0,0,0,.45-3.28l-0.8-.23a1.67,1.67,0,0,0-.91,3.22l0.8,0.23A1.79,1.79,0,0,0,1352.84,182.74Zm225.73-.46a1.67,1.67,0,0,0,.72-3.18l-0.77-.37a1.67,1.67,0,0,0-1.4,3l0.75,0.35A1.67,1.67,0,0,0,1578.57,182.28ZM1344,180.19a1.67,1.67,0,0,0,.47-3.27l-0.79-.24a1.66,1.66,0,0,0-2.07,1.12,1.68,1.68,0,0,0,1.12,2.08l0.8,0.24A1.57,1.57,0,0,0,1344,180.19Zm226.17-1.64a1.67,1.67,0,0,0,.65-3.21l-0.77-.34a1.66,1.66,0,0,0-2.18.91,1.68,1.68,0,0,0,.9,2.19l0.76,0.32A1.67,1.67,0,0,0,1570.21,178.55Zm-234.92-1a1.67,1.67,0,0,0,.5-3.27L1335,174a1.67,1.67,0,0,0-1,3.19l0.79,0.25A1.78,1.78,0,0,0,1335.29,177.52Zm226.44-2.4a1.67,1.67,0,0,0,.6-3.23l-0.78-.31a1.66,1.66,0,0,0-2.15,1,1.68,1.68,0,0,0,1,2.16l0.76,0.3A1.67,1.67,0,0,0,1561.73,175.11Zm-235.15-.4a1.68,1.68,0,0,0,.53-3.26l-0.79-.27a1.67,1.67,0,0,0-1,3.17l0.79,0.27A1.61,1.61,0,0,0,1326.57,174.71Zm226.58-2.81a1.67,1.67,0,0,0,.56-3.24l-0.78-.29a1.67,1.67,0,0,0-1.12,3.14l0.78,0.29A1.62,1.62,0,0,0,1553.15,171.9Zm-235.23-.16a1.67,1.67,0,0,0,.55-3.25l-0.78-.28a1.65,1.65,0,0,0-2.12,1,1.68,1.68,0,0,0,1,2.14l0.79,0.28A1.76,1.76,0,0,0,1317.92,171.74Zm226.58-2.86a1.67,1.67,0,0,0,.53-3.26l-0.79-.27a1.65,1.65,0,0,0-2.1,1.05,1.67,1.67,0,0,0,1,2.12l0.78,0.27A1.64,1.64,0,0,0,1544.5,168.89Zm-235.19-.3a1.67,1.67,0,0,0,.58-3.23l-0.77-.3a1.67,1.67,0,0,0-1.18,3.12l0.78,0.3A1.51,1.51,0,0,0,1309.31,168.59ZM1535.8,166a1.65,1.65,0,0,0,1.58-1.17,1.67,1.67,0,0,0-1.08-2.1l-0.79-.25a1.67,1.67,0,0,0-1,3.18l0.79,0.26A1.79,1.79,0,0,0,1535.8,166Zm-235-.8a1.68,1.68,0,0,0,.63-3.22l-0.76-.31a1.67,1.67,0,0,0-1.27,3.08l0.77,0.33A1.6,1.6,0,0,0,1300.79,165.23Zm226.26-1.92a1.66,1.66,0,0,0,1.59-1.18,1.68,1.68,0,0,0-1.11-2.09l-0.8-.24a1.67,1.67,0,0,0-1,3.2l0.79,0.24A1.65,1.65,0,0,0,1527.06,163.31Zm-234.67-1.72a1.67,1.67,0,0,0,.69-3.19l-0.74-.34a1.66,1.66,0,0,0-2.21.83,1.68,1.68,0,0,0,.82,2.22l0.76,0.34A1.68,1.68,0,0,0,1292.38,161.59Zm225.89-.86a1.67,1.67,0,0,0,.46-3.28l-0.8-.23a1.67,1.67,0,0,0-.91,3.21l0.8,0.23A1.46,1.46,0,0,0,1518.27,160.73Zm-8.81-2.47a1.67,1.67,0,0,0,.44-3.28l-0.82-.23a1.65,1.65,0,0,0-2,1.18,1.68,1.68,0,0,0,1.17,2l0.79,0.22A1.7,1.7,0,0,0,1509.46,158.26Zm-225.31-.68a1.67,1.67,0,0,0,.77-3.15l-0.73-.38a1.67,1.67,0,0,0-1.55,3l0.74,0.39A1.71,1.71,0,0,0,1284.15,157.58ZM1276.2,153a1.66,1.66,0,0,0,.89-3.07l-0.68-.44a1.66,1.66,0,0,0-2.3.48,1.69,1.69,0,0,0,.48,2.31l0.72,0.46A1.64,1.64,0,0,0,1276.2,153Zm-7.27-5.54a1.66,1.66,0,0,0,1.21-.52,1.68,1.68,0,0,0-.06-2.36c-0.2-.18-0.38-0.37-0.56-0.54a1.65,1.65,0,0,0-2.35,0,1.68,1.68,0,0,0,0,2.36c0.2,0.21.41,0.41,0.63,0.62A1.67,1.67,0,0,0,1268.93,147.48Zm-4.31-7.73a1.67,1.67,0,0,0,1.66-1.63,4,4,0,0,1,.06-0.56,1.64,1.64,0,0,0-.3-1.31,1.69,1.69,0,0,0,1.26-.59,6.34,6.34,0,0,1,.46-0.49,1.67,1.67,0,0,0,0-2.36,1.65,1.65,0,0,0-2.35,0,9.53,9.53,0,0,0-.68.72,1.69,1.69,0,0,0-.06,2.09,1.65,1.65,0,0,0-1.62,1.36A7,7,0,0,0,1263,138a1.67,1.67,0,0,0,1.61,1.71h0.05Zm110.2-7.69a1.67,1.67,0,0,0,.19-3.33l-0.83-.1a1.67,1.67,0,0,0-.39,3.32l0.83,0.1h0.2Zm-101-.31a1.68,1.68,0,0,0,.52-0.09l0.75-.24a1.67,1.67,0,0,0-1-3.2l-0.82.27A1.67,1.67,0,0,0,1273.87,131.75Zm91.61-.74,0.24-1.66,0.11-1.67-0.76-.08a1.67,1.67,0,0,0-.34,3.32Zm-8.85-.9a1.67,1.67,0,0,0,.16-3.33l-0.84-.08a1.67,1.67,0,0,0-.3,3.33l0.82,0.07h0.16Zm-73.86-.46a1.31,1.31,0,0,0,.28,0l0.8-.13a1.67,1.67,0,0,0-.51-3.3l-0.84.13a1.68,1.68,0,0,0-1.36,1.93A1.66,1.66,0,0,0,1282.76,129.66Zm64.55-.34,0.19-1.66,0.07-1.67-0.77-.06a1.67,1.67,0,0,0-.25,3.33Zm-8.93-.64a1.67,1.67,0,0,0,.1-3.34l-0.79,0a1.68,1.68,0,0,0-1.78,1.56,1.65,1.65,0,0,0,1.53,1.77l0.82,0h0.11Zm-46.54-.15H1292l0.82-.07a1.67,1.67,0,0,0-.27-3.33l-0.84.08A1.67,1.67,0,0,0,1291.85,128.53Zm37.41-.36a1.67,1.67,0,0,0,.07-3.34l-0.83,0a1.68,1.68,0,0,0-1.73,1.6,1.66,1.66,0,0,0,1.59,1.74l0.83,0h0.08ZM1301,128H1301l0.82,0a1.67,1.67,0,0,0-.12-3.34l-0.84,0A1.67,1.67,0,0,0,1301,128Zm19.07-.1,0.08-3.35-0.81,0a1.7,1.7,0,0,0-1.7,1.65,1.67,1.67,0,0,0,1.63,1.7Zm-9.92-.1H1311a1.67,1.67,0,0,0,0-3.34h-0.84A1.67,1.67,0,0,0,1310.12,127.76Z" transform="translate(-3.84 -24.52)"/></g><g class="cls-21"><polygon class="cls-22" points="1306.44 107.16 1313.46 109.63 1317.57 97.88 1310.55 95.4 1306.44 107.16"/><path class="cls-23" d="M1317.16,124.38a1.31,1.31,0,0,0,1.68-.81A1.32,1.32,0,1,0,1317.16,124.38Z" transform="translate(-3.84 -24.52)"/></g><rect class="cls-2" x="1513.69" y="143.63" width="0.93" height="4.59"/><rect class="cls-2" x="1511.88" y="145.46" width="4.56" height="0.94"/><g class="cls-19"><rect class="cls-2" x="1337.02" y="80.89" width="1.83" height="9.06"/><rect class="cls-2" x="1333.42" y="84.51" width="9.03" height="1.84"/></g><rect class="cls-2" x="1514.44" y="109.57" width="1.83" height="9.07"/><rect class="cls-2" x="1510.85" y="113.19" width="9.03" height="1.84"/><rect class="cls-2" x="1488.94" y="234.35" width="1.83" height="9.06"/><rect class="cls-2" x="1485.34" y="237.95" width="9.03" height="1.85"/><rect class="cls-2" x="1334.8" y="266.09" width="1.28" height="6.28"/><rect class="cls-2" x="1332.32" y="268.59" width="6.25" height="1.28"/><path class="cls-24" d="M1499.11,401.26a4.94,4.94,0,0,0-6,3.66l-4,16.92a5,5,0,0,0,3.65,6l8.25,2a5,5,0,0,0,6-3.67l4-16.92a5,5,0,0,0-3.65-6Z" transform="translate(-3.84 -24.52)"/><g class="cls-10"><path class="cls-11" d="M1509.35,416.2l-2.39,10a5,5,0,0,1-6,3.67l-8.25-2a5,5,0,0,1-3.65-6l2.38-10Z" transform="translate(-3.84 -24.52)"/></g><path class="cls-15" d="M1309.5,366c-3.18-.77-6-0.24-6.37,1.19s2,3.2,5.13,4,6,0.23,6.37-1.18S1312.68,366.8,1309.5,366Z" transform="translate(-3.84 -24.52)"/><polygon class="cls-7" points="1326.23 335.45 1320.01 361.45 1473.28 399.23 1479.5 373.24 1326.23 335.45"/><path class="cls-25" d="M1309.5,368.76a4.93,4.93,0,0,0-.06-2.53l20.6-6.13-6.16,25.74L1308.31,371A5,5,0,0,0,1309.5,368.76Z" transform="translate(-3.84 -24.52)"/><polygon class="cls-26" points="1477.67 380.87 1475.1 391.6 1321.84 353.81 1324.41 343.09 1477.67 380.87"/><polygon class="cls-27" points="1475.1 391.6 1473.28 399.23 1320.01 361.45 1321.84 353.81 1475.1 391.6"/><polygon class="cls-28" points="1324.41 343.09 1326.23 335.45 1479.5 373.24 1477.67 380.87 1324.41 343.09"/><polygon class="cls-11" points="1479.16 371.95 1472.39 400.22 1488.82 404.19 1495.59 375.92 1479.16 371.95"/><g class="cls-10"><polygon class="cls-11" points="1491.83 391.65 1488.82 404.19 1472.39 400.22 1475.4 387.68 1491.83 391.65"/></g><g class="cls-10"><path class="cls-11" d="M1326.58,374.56l-2.7,11.28L1308.31,371a5,5,0,0,0,1.19-2.19Z" transform="translate(-3.84 -24.52)"/></g><polygon class="cls-2" points="1453.7 360.44 1450.04 358.25 1441.01 372.94 1444.68 375.13 1453.7 360.44"/><polygon class="cls-16" points="1458.72 269.39 1473.58 315.33 1467.55 361.98 1447.02 359.3 1452.45 317.3 1439.03 275.82 1458.72 269.39"/><polygon class="cls-2" points="1466.39 358.69 1450.38 355.66 1446.51 376.31 1462.52 379.33 1466.39 358.69"/><polygon class="cls-2" points="1451.09 373.87 1447.35 373.13 1444.14 389.64 1447.87 390.38 1451.09 373.87"/><polygon class="cls-2" points="1455.07 375.84 1451.74 375.2 1448.48 392.34 1451.81 392.98 1455.07 375.84"/><polygon class="cls-2" points="1459.33 375.68 1456 375.04 1452.74 392.19 1456.08 392.83 1459.33 375.68"/><polygon class="cls-2" points="1463.19 375.11 1460.22 374.61 1457.75 389.45 1460.72 389.95 1463.19 375.11"/><rect class="cls-13" x="1457.6" y="372.29" width="7.54" height="22.94" transform="translate(885.63 1757.73) rotate(-82.47)"/><circle class="cls-29" cx="55.58" cy="125.82" r="32.93" transform="translate(-74.73 155.41) rotate(-89.33)"/><path class="cls-30" d="M64.87,125.93l-61-.71Z" transform="translate(-3.84 -24.52)"/><path class="cls-31" d="M40.84,126.16L51,136.56Z" transform="translate(-3.84 -24.52)"/><path class="cls-32" d="M33.88,125.57L48.82,111Z" transform="translate(-3.84 -24.52)"/><circle class="cls-29" cx="71.38" cy="248.13" r="40.41" transform="translate(-181.41 292.09) rotate(-89.33)"/><path class="cls-33" d="M82.77,248.26l-74.88-.87Z" transform="translate(-3.84 -24.52)"/><path class="cls-34" d="M53.29,248.54L65.76,261.3Z" transform="translate(-3.84 -24.52)"/><path class="cls-35" d="M44.75,247.82l18.33-17.9Z" transform="translate(-3.84 -24.52)"/><circle class="cls-36" cx="39.49" cy="184.15" r="21.09" transform="translate(-148.94 196.96) rotate(-89.33)"/><path class="cls-37" d="M45.44,184.21l-39.08-.46Z" transform="translate(-3.84 -24.52)"/><path class="cls-38" d="M30.05,184.36L36.56,191Z" transform="translate(-3.84 -24.52)"/><path class="cls-39" d="M25.6,184l9.57-9.34Z" transform="translate(-3.84 -24.52)"/><path class="cls-40" d="M220.92,557.53l-45.74,45.75c2.63,2.06,5.93,2.42,8.07.87L225.39,562Z" transform="translate(-3.84 -24.52)"/><path class="cls-41" d="M236,572.64L225.39,562l-42.15,42.15h0l0,0.06,0.05,0c-1.74,2.38-1.09,6.23,1.64,9s6.57,3.38,9,1.64l0,0.06,0.06,0h0Z" transform="translate(-3.84 -24.52)"/><path class="cls-40" d="M193.89,614.79c-1.55,2.14-1.18,5.44.87,8.07l45.75-45.75L236,572.64Z" transform="translate(-3.84 -24.52)"/><path class="cls-2" d="M194.77,622.87c-2.07-2.63-2.44-5.94-.88-8.08h0l-0.06,0,0-.06c-2.39,1.74-6.22,1.09-9-1.64s-3.38-6.58-1.64-9l-0.05,0,0-.06h0c-2.14,1.55-5.45,1.19-8.08-.88l0.09,19.52Z" transform="translate(-3.84 -24.52)"/><path class="cls-40" d="M175.21,613.2l0,9.58,9.58,0A36.66,36.66,0,0,0,175.21,613.2Z" transform="translate(-3.84 -24.52)"/><rect class="cls-42" x="222.26" y="554.24" width="6.5" height="6.33" transform="translate(-332 298.35) rotate(-45.02)"/><rect class="cls-43" x="229.82" y="557.44" width="6.5" height="15.05" transform="translate(-335.01 305.63) rotate(-44.99)"/><rect class="cls-42" x="237.37" y="569.36" width="6.5" height="6.33" transform="translate(-338.13 313.14) rotate(-44.98)"/><path class="cls-44" d="M22.34,350.86A2.35,2.35,0,0,1,20,348.47v-4.14a2.36,2.36,0,0,1,2.36-2.38h0a2.38,2.38,0,0,1,2.35,2.38v4.14a2.37,2.37,0,0,1-2.35,2.38h0Z" transform="translate(-3.84 -24.52)"/><rect class="cls-45" x="11.94" y="302.52" width="66.31" height="7.53"/><polygon class="cls-45" points="72.86 307.86 78.19 302.52 125.08 349.41 119.75 354.73 72.86 307.86"/><rect class="cls-45" x="112.15" y="351.58" width="66.29" height="5.09" transform="translate(-211.74 182.05) rotate(-45.02)"/><path class="cls-45" d="M158.69,326.82c-0.79-.78-0.53-2.33.58-3.45l4.54-4.54c1.11-1.09,2.64-1.35,3.45-.57l7.44,7.48c0.8,0.79.53,2.31-.57,3.42l-4.55,4.55c-1.1,1.11-2.64,1.35-3.44.57Z" transform="translate(-3.84 -24.52)"/><path class="cls-46" d="M138.75,320.14a9.42,9.42,0,0,1,0-13.38l8.43-8.46a9.48,9.48,0,0,1,13.37,0L172.23,310a9.45,9.45,0,0,1,0,13.38l-8.43,8.46a9.42,9.42,0,0,1-13.37,0Z" transform="translate(-3.84 -24.52)"/><path class="cls-46" d="M151.92,311.5c1.34-1,21.66-16.42,3.12-33.23L137,296.33l-0.24.23-18,18.05C135.54,333.16,150.93,312.84,151.92,311.5Z" transform="translate(-3.84 -24.52)"/><path class="cls-45" d="M118.85,314.84c-1.84-1.84,4.77-11.46,14.78-21.44s19.62-16.63,21.45-14.79-4.76,11.46-14.77,21.47S120.69,316.71,118.85,314.84Z" transform="translate(-3.84 -24.52)"/><polygon class="cls-47" points="121.92 263.06 116.98 258.13 117.73 257.39 122.67 262.32 121.92 263.06"/><polygon class="cls-47" points="135.32 256 135.3 249.04 136.34 249.04 136.38 256 135.32 256"/><rect class="cls-47" x="107.91" y="274.65" width="6.96" height="1.05"/><rect class="cls-48" x="6.4" y="280.3" width="11.67" height="50.87"/><rect class="cls-49" x="5.16" y="278.97" width="2.79" height="53.57"/><circle class="cls-50" cx="653.19" cy="54.33" r="38.31"/><circle class="cls-51" cx="653.19" cy="54.33" r="45.17"/><circle class="cls-52" cx="653.19" cy="54.33" r="52.7"/><path class="cls-53" d="M635.51,99.66a17.76,17.76,0,0,1,1-5.24,15.22,15.22,0,0,1,4.9-6.73A16.51,16.51,0,0,1,644.2,86c1.69-.82,3.76-1.25,5.17-0.72,1,0.34,2.06,1.32,2.93,3.38a22.62,22.62,0,0,0-7.86,9.26,10.39,10.39,0,0,0-.62,4.89q1.09,0.5,2.15,1.05a8.85,8.85,0,0,1,.35-5.25,17.59,17.59,0,0,1,5.16-6.93c0.51-.43,1-0.79,1.38-1.12a12.85,12.85,0,0,1,.34,1.7,17.59,17.59,0,0,1-.56,8.66,8.74,8.74,0,0,1-3.65,4.62q0.9,0.53,1.77,1.1a10.18,10.18,0,0,0,3.82-5,18.46,18.46,0,0,0,.54-9.3,20.44,20.44,0,0,0-.58-2.84c2-1,3.41-1.07,4.38-.67,1.41,0.47,2.73,2.17,3.44,3.81a24.17,24.17,0,0,1,1.09,3.17,15.4,15.4,0,0,1-.64,8.32,19.4,19.4,0,0,1-5.35,7.69c0.47,0.43.93,0.88,1.38,1.33a21.48,21.48,0,0,0,5.88-8.33,16.85,16.85,0,0,0,.7-9c-0.14-.14-1-6.51-5.95-8.5a7.23,7.23,0,0,0-5.57.43,7.13,7.13,0,0,0-4-3.92c-5-1.67-9.82,2.66-10,2.6a17.25,17.25,0,0,0-5.31,7.34,19.09,19.09,0,0,0-1.07,5.39C634.19,99.28,634.85,99.47,635.51,99.66Z" transform="translate(-3.84 -24.52)"/><rect class="cls-53" x="604.86" y="58.63" width="2.25" height="14.95" transform="translate(332.35 588.21) rotate(-69.96)"/><polygon class="cls-53" points="628.38 19.36 622.02 5.92 624.06 4.95 630.36 18.42 628.38 19.36"/><rect class="cls-53" x="666.05" y="32.2" width="14.83" height="2.25" transform="translate(407.68 630.13) rotate(-69.97)"/><path class="cls-53" d="M609.83,99.54l-0.45-1-13.53,6.26,1,2.05,9.44-4.4A15.32,15.32,0,0,1,609.83,99.54Z" transform="translate(-3.84 -24.52)"/><rect class="cls-53" x="701.74" y="93.98" width="2.25" height="14.93" transform="translate(362.76 702.42) rotate(-69.95)"/><polygon class="cls-53" points="693.23 43.02 706.75 36.82 705.81 34.77 692.3 41.01 693.23 43.02"/><polygon class="cls-53" points="675.5 99.57 681.81 113.06 679.73 114 673.46 100.51 675.5 99.57"/><path class="cls-54" d="M598.66,156.27a36.47,36.47,0,0,1-10.23,0h10.23Z" transform="translate(-3.84 -24.52)"/><path class="cls-54" d="M677.64,136.38v0.79c0,10.57-8.9,19.11-19.92,19.11H573.2c-11,0-19.92-8.54-19.92-19.11v-7.26a18.31,18.31,0,0,1,2.19-8.7c-0.09-.9-0.11-1.85-0.11-2.77a38.18,38.18,0,0,1,55.66-34,28.11,28.11,0,0,1,44.6,22.78,25.83,25.83,0,0,1-.23,3.52h2.34A20.15,20.15,0,0,1,671.38,116c-0.07.7-.11,1.42-0.11,2.14,0,0.45,0,.92,0,1.37a9.08,9.08,0,0,0-1.06,4.24v3.56A9.4,9.4,0,0,0,677.64,136.38Z" transform="translate(-3.84 -24.52)"/><path class="cls-54" d="M672.82,117.45a8.59,8.59,0,0,0-1.51,2.07c0-.45,0-0.92,0-1.37,0-.72,0-1.44.11-2.14A12.45,12.45,0,0,1,672.82,117.45Z" transform="translate(-3.84 -24.52)"/><g class="cls-55"><path class="cls-54" d="M731.14,123.76v3.56a9.55,9.55,0,0,1-9.76,9.35H687.44a18.46,18.46,0,0,1-9.8-4.46v4.17a9.4,9.4,0,0,1-7.39-9.06v-3.56a9.08,9.08,0,0,1,1.06-4.24,8.59,8.59,0,0,1,1.51-2.07,12.45,12.45,0,0,0-1.44-1.44,18.72,18.72,0,0,1,27.15-14.47,13.75,13.75,0,0,1,21.81,11.15,14.24,14.24,0,0,1-.11,1.71h1.15A9.57,9.57,0,0,1,731.14,123.76Z" transform="translate(-3.84 -24.52)"/><path class="cls-54" d="M672.82,117.45a8.59,8.59,0,0,0-1.51,2.07c0-.45,0-0.92,0-1.37,0-.72,0-1.44.11-2.14A12.45,12.45,0,0,1,672.82,117.45Z" transform="translate(-3.84 -24.52)"/><path class="cls-54" d="M692.49,136.67a18.72,18.72,0,0,1-2.52.18,18.46,18.46,0,0,1-2.52-.18h5Z" transform="translate(-3.84 -24.52)"/><path class="cls-54" d="M687.44,136.67H680a9.2,9.2,0,0,1-2.37-.29v-4.17A18.46,18.46,0,0,0,687.44,136.67Z" transform="translate(-3.84 -24.52)"/></g><g class="cls-56"><path class="cls-57" d="M447,181.31a22.27,22.27,0,0,1-5.66,0H447Z" transform="translate(-3.84 -24.52)"/></g><g class="cls-58"><path class="cls-54" d="M515.94,160.74c0,5.07-4.73,9.17-10.59,9.17H472.92c-1.71,6.53-8.45,11.4-16.52,11.4H392.85c-9.37,0-17-6.58-17-14.71a13.35,13.35,0,0,1,3.72-9.17A22.85,22.85,0,0,1,401,129a22.84,22.84,0,0,1,39.46,7.08,23.4,23.4,0,0,1,3.79-.32,22.75,22.75,0,0,1,16.07,6.63,14.12,14.12,0,0,1,10.43-5.12,14.26,14.26,0,0,1,24.63,4.42,13.85,13.85,0,0,1,2.39-.2,14.23,14.23,0,0,1,14.06,12A8.84,8.84,0,0,1,515.94,160.74Z" transform="translate(-3.84 -24.52)"/><path class="cls-54" d="M499.49,169.91a13.75,13.75,0,0,1-3.52,0h3.52Z" transform="translate(-3.84 -24.52)"/></g><g class="cls-58"><path class="cls-57" d="M801.43,184.62c0,3-2.86,5.5-6.38,5.5h-3.54a8.54,8.54,0,0,0,7.55-8.5,9.16,9.16,0,0,0-.11-1.37A5.29,5.29,0,0,1,801.43,184.62Z" transform="translate(-3.84 -24.52)"/><path class="cls-57" d="M791.51,190.12a7.65,7.65,0,0,1-2,0h2Z" transform="translate(-3.84 -24.52)"/></g><path class="cls-54" d="M843.61,167.09c0,5.09-4.75,9.19-10.61,9.19H797.21a8.54,8.54,0,0,1,1.74,4,9.18,9.18,0,0,1,.11,1.37,8.54,8.54,0,0,1-7.55,8.5H771.25c-3.52,0-6.35-2.46-6.35-5.5a5.08,5.08,0,0,1,1.4-3.45,8.1,8.1,0,0,1-.27-2.1,8.53,8.53,0,0,1,8.23-8.54,8.56,8.56,0,0,1,6.69-3.2,8,8,0,0,1,1.8.2,3,3,0,0,1,0-.45,8.34,8.34,0,0,1,2.34-5.72,13.87,13.87,0,0,1-.45-3.49,14.25,14.25,0,0,1,13.75-14.24A14.28,14.28,0,0,1,823,148.05a13.59,13.59,0,0,1,2.37-.2,14.28,14.28,0,0,1,14.08,12A8.73,8.73,0,0,1,843.61,167.09Z" transform="translate(-3.84 -24.52)"/><path class="cls-54" d="M827.13,176.29a15.32,15.32,0,0,1-1.76.11,14.62,14.62,0,0,1-1.74-.11h3.49Z" transform="translate(-3.84 -24.52)"/><circle class="cls-59" cx="1860.66" cy="583.1" r="41.42" transform="translate(1255.32 2413.37) rotate(-89.43)"/><path class="cls-59" d="M1849,583l76.76,0.76Z" transform="translate(-3.84 -24.52)"/><path class="cls-59" d="M1879.2,582.65l-12.8-13.06Z" transform="translate(-3.84 -24.52)"/><path class="cls-59" d="M1888,583.37l-18.75,18.38Z" transform="translate(-3.84 -24.52)"/><circle class="cls-59" cx="1840.52" cy="429.28" r="50.84" transform="translate(1389.22 2240.94) rotate(-89.43)"/><path class="cls-59" d="M1826.18,429.14l94.2,0.93Z" transform="translate(-3.84 -24.52)"/><path class="cls-59" d="M1863.27,428.73l-15.71-16Z" transform="translate(-3.84 -24.52)"/><path class="cls-59" d="M1874,429.62l-23,22.56Z" transform="translate(-3.84 -24.52)"/><circle class="cls-59" cx="1880.77" cy="509.7" r="26.53" transform="translate(1348.61 2360.8) rotate(-89.43)"/><path class="cls-59" d="M1873.29,509.63l49.16,0.49Z" transform="translate(-3.84 -24.52)"/><path class="cls-59" d="M1892.64,509.41l-8.2-8.36Z" transform="translate(-3.84 -24.52)"/><path class="cls-59" d="M1898.25,509.87l-12,11.77Z" transform="translate(-3.84 -24.52)"/></g></g></svg>