<svg xmlns="http://www.w3.org/2000/svg" viewBox="0 0 1921.91 782.07"><defs><style>.cls-1{isolation:isolate;}.cls-2,.cls-59{fill:#fff;}.cls-3,.cls-60{opacity:0.43;}.cls-18,.cls-3{mix-blend-mode:color-burn;}.cls-30,.cls-31,.cls-32,.cls-33,.cls-34,.cls-35,.cls-37,.cls-38,.cls-39,.cls-4,.cls-53,.cls-54,.cls-55,.cls-56,.cls-61{fill:none;}.cls-4{stroke:#a7a9ac;}.cls-30,.cls-31,.cls-32,.cls-33,.cls-34,.cls-35,.cls-37,.cls-38,.cls-39,.cls-4,.cls-53,.cls-54,.cls-55,.cls-56,.cls-59,.cls-61{stroke-miterlimit:10;}.cls-4,.cls-55,.cls-61{stroke-width:2.25px;}.cls-5{opacity:0.5;}.cls-10,.cls-5{mix-blend-mode:multiply;}.cls-6{fill:#cdcccc;}.cls-7{fill:#989898;}.cls-8{fill:#fed600;}.cls-9{fill:#b4b4b4;}.cls-11{fill:#e6e6e5;}.cls-12{fill:#d34c27;}.cls-13{fill:#dfe2e8;}.cls-14{fill:#1a1a1a;}.cls-15{fill:#603a17;}.cls-16{fill:#f15c27;}.cls-17{fill:#c2c7cc;}.cls-19,.cls-21{opacity:0.37;}.cls-20{fill:#ed237a;}.cls-21{mix-blend-mode:soft-light;}.cls-22{fill:#ededed;}.cls-23{fill:#212121;}.cls-24{fill:#d9e028;}.cls-25{fill:#dbbfa2;}.cls-26{fill:#f79421;}.cls-27{fill:#faa51a;}.cls-28{fill:#febf10;}.cls-29{fill:#876829;}.cls-30,.cls-31,.cls-32,.cls-33,.cls-34,.cls-35,.cls-37,.cls-38,.cls-39,.cls-56,.cls-59,.cls-61{stroke:#fff;}.cls-30{stroke-width:0.79px;}.cls-31{stroke-width:1.27px;}.cls-32{stroke-width:0.66px;}.cls-33{stroke-width:0.97px;}.cls-34{stroke-width:1.56px;}.cls-35{stroke-width:0.81px;}.cls-36{fill:#f26327;}.cls-37{stroke-width:0.5px;}.cls-38{stroke-width:0.81px;}.cls-39{stroke-width:0.42px;}.cls-40{fill:#19b0bf;}.cls-41{fill:#e2e2e2;}.cls-42{fill:#2d5972;}.cls-43{fill:#f99b1f;}.cls-44{fill:#0f303f;}.cls-45{fill:#fdc015;}.cls-46{fill:#c4d92f;}.cls-47{fill:#6996cf;}.cls-48{fill:#5058a6;}.cls-49{fill:#f6b619;}.cls-50{fill:#a74525;}.cls-51{fill:#61441a;}.cls-52{fill:#fce502;}.cls-53,.cls-54{stroke:#fcc016;}.cls-53{stroke-width:1.12px;}.cls-54{stroke-width:0.84px;}.cls-55{stroke:#f7941e;}.cls-56,.cls-59{stroke-width:4.51px;}.cls-57{opacity:0.48;}.cls-58{opacity:0.8;}</style></defs><title>cpfb1</title><g class="cls-1"><g id="Layer_2" data-name="Layer 2"><polygon class="cls-2" points="570.29 569.16 581.71 578.22 586.32 572.41 574.9 563.35 570.29 569.16"/><polygon class="cls-2" points="561.6 578.04 578.06 575.02 576.83 568.38 560.37 571.41 561.6 578.04"/><polygon class="cls-2" points="562.7 584.01 579.41 582.91 578.95 576.18 562.26 577.28 562.7 584.01"/><rect class="cls-2" x="572.92" y="603.27" width="6.75" height="16.73" transform="translate(-109.47 1078.23) rotate(-82.47)"/><rect class="cls-2" x="1512.11" y="361.02" width="1.84" height="9.02"/><rect class="cls-2" x="1508.52" y="364.61" width="9.01" height="1.83"/><rect class="cls-2" x="1520.87" y="238.14" width="0.93" height="4.56"/><rect class="cls-2" x="1519.05" y="239.96" width="4.56" height="0.92"/><rect class="cls-2" x="1493.25" y="286.39" width="0.93" height="4.56"/><rect class="cls-2" x="1491.44" y="288.2" width="4.56" height="0.93"/><g class="cls-3"><path class="cls-4" d="M1281.17,333.4c0,91.6,73.91,165.85,165.08,165.85S1611.33,425,1611.33,333.4s-73.91-165.83-165.08-165.83S1281.17,241.82,1281.17,333.4Z" transform="translate(-3.84 -24.52)"/></g><g class="cls-5"><path class="cls-6" d="M1511.88,537.58c0,4-36.37,7.19-81.24,7.19s-81.24-3.22-81.24-7.19,36.38-7.19,81.24-7.19S1511.88,533.6,1511.88,537.58Z" transform="translate(-3.84 -24.52)"/></g><path class="cls-7" d="M1417.11,400.11c-0.42,4.47,5.42,8.68,13,9.41s14.14-2.32,14.56-6.78-5.41-8.68-13-9.4S1417.53,395.65,1417.11,400.11Z" transform="translate(-3.84 -24.52)"/><path class="cls-8" d="M1376.54,252.14a68.15,68.15,0,1,1,99.25,67.23l-2.49,26.42a21.85,21.85,0,0,1-23.79,19.76l-30.13-2.87a21.9,21.9,0,0,1-19.67-23.91l2.49-26.41A68.52,68.52,0,0,1,1376.54,252.14Z" transform="translate(-3.84 -24.52)"/><path class="cls-6" d="M1464.26,361.9l-2.5,26.48a17.44,17.44,0,0,1-19,15.77l-24-2.29a17.49,17.49,0,0,1-15.7-19.07l2.5-26.48Z" transform="translate(-3.84 -24.52)"/><polygon class="cls-9" points="1458.61 356.61 1400.39 345.7 1400.9 340.29 1459.12 351.19 1458.61 356.61"/><path class="cls-9" d="M1461.66,389.19a17.67,17.67,0,0,1-1.59,5.21L1403,383.7c0-.31,0-0.61.06-0.91l0.43-4.5Z" transform="translate(-3.84 -24.52)"/><path class="cls-2" d="M1402.07,248.5a1.93,1.93,0,0,1,2.71.26l31.07,37.75,11.7,1.11,37.57-31.2a1.91,1.91,0,0,1,2.71.26,1.94,1.94,0,0,1-.25,2.72l-39,32.43-0.82,62.65-24.53-2.33,10.9-61.69-32.27-39.21A1.94,1.94,0,0,1,1402.07,248.5Z" transform="translate(-3.84 -24.52)"/><g class="cls-10"><path class="cls-11" d="M1451.38,190.51a68.54,68.54,0,0,1,24.4,128.86l-2.49,26.42a21.91,21.91,0,0,1-9.47,16.08l0.45,0L1463,375.72l-0.51,5.42-0.69,7.24a17,17,0,0,1-.33,2.11,0.92,0.92,0,0,1,0,.17,17.1,17.1,0,0,1-.76,2.46l0,0.11c-0.16.4-.33,0.8-0.52,1.18h0a17.42,17.42,0,0,1-15.75,9.81c-1.51,3.54-7.1,5.81-13.61,5.35Z" transform="translate(-3.84 -24.52)"/></g><path class="cls-2" d="M1405.91,264.62a2.71,2.71,0,0,0,2.94-2.44c1.35-14.36,18.1-24.57,37.34-22.73s33.78,15,32.42,29.38a2.69,2.69,0,1,0,5.36.5c1.64-17.34-15.09-33.17-37.28-35.27s-41.58,10.27-43.22,27.61A2.7,2.7,0,0,0,1405.91,264.62Z" transform="translate(-3.84 -24.52)"/><polygon class="cls-2" points="1376.82 434.32 1374.27 430.88 1360.31 440.95 1362.86 444.38 1376.82 434.32"/><polygon class="cls-12" points="1416.34 352.23 1412.46 400.38 1389.01 441.09 1371.09 430.68 1392.2 394.02 1395.71 350.55 1416.34 352.23"/><polygon class="cls-2" points="1389.2 437.61 1375.59 428.63 1364.1 446.18 1377.71 455.17 1389.2 437.61"/><polygon class="cls-2" points="1369.26 445.69 1366.09 443.58 1356.8 457.57 1359.97 459.69 1369.26 445.69"/><polygon class="cls-2" points="1372.18 449.05 1369.35 447.17 1359.77 461.74 1362.6 463.61 1372.18 449.05"/><polygon class="cls-2" points="1376.18 450.57 1373.34 448.68 1363.77 463.25 1366.6 465.13 1376.18 450.57"/><polygon class="cls-2" points="1379.95 451.52 1377.4 449.91 1369.43 462.66 1371.98 464.27 1379.95 451.52"/><polygon class="cls-13" points="1372.78 425.63 1392.61 437.2 1388.85 443.73 1369.01 432.16 1372.78 425.63"/><rect class="cls-14" x="1397.85" y="433.79" width="23.47" height="72.59"/><rect class="cls-15" x="1384.73" y="505.35" width="37.28" height="7.28"/><rect class="cls-14" x="1441.99" y="433.79" width="23.47" height="72.59"/><rect class="cls-15" x="1428.87" y="505.35" width="37.28" height="7.28"/><rect class="cls-16" x="1391.12" y="346.85" width="78.71" height="97.8"/><polygon class="cls-17" points="1386.06 362.58 1471.17 355.46 1471.17 342.15 1390.27 342.15 1386.06 362.58"/><polygon class="cls-13" points="1398.03 365.35 1471.17 356.69 1471.17 342.15 1390.27 342.15 1398.03 365.35"/><path class="cls-17" d="M1402.26,376a1.33,1.33,0,1,0,1.32-1.33A1.33,1.33,0,0,0,1402.26,376Z" transform="translate(-3.84 -24.52)"/><rect class="cls-14" x="1391.12" y="420.03" width="78.71" height="24.62"/><rect class="cls-13" x="1391.12" y="417.26" width="78.71" height="6.59"/><g class="cls-18"><rect class="cls-17" x="1414.37" y="371.48" width="16.57" height="21.86"/></g><polygon class="cls-2" points="1416.03 371.48 1421.97 365.52 1427.9 371.48 1416.03 371.48"/><g class="cls-19"><path class="cls-20" d="M1569.78,303.89h0.85a1.67,1.67,0,0,0,0-3.35h-0.84A1.68,1.68,0,0,0,1569.78,303.89Zm-8.32,0a1.67,1.67,0,0,0,0-3.34l-0.83,0a1.69,1.69,0,0,0-1.69,1.65,1.67,1.67,0,0,0,1.63,1.7h0.86Zm17.46-.21H1579l0.84,0a1.66,1.66,0,0,0,1.57-1.75,1.69,1.69,0,0,0-1.75-1.59l-0.81,0A1.67,1.67,0,0,0,1578.92,303.65Zm-26.61-.05a1.67,1.67,0,0,0,.06-3.34l-0.79,0-0.1,1.67,0,1.67,0.8,0h0.06Zm-9.14-.44a1.67,1.67,0,0,0,.09-3.34l-0.82,0a1.67,1.67,0,0,0-.2,3.33l0.83,0h0.1Zm44.87-.13h0.16l0.84-.08a1.67,1.67,0,0,0-.34-3.33l-0.81.08A1.67,1.67,0,0,0,1588.05,303Zm-54-.48a1.67,1.67,0,0,0,.12-3.34l-0.76-.06-0.19,1.66-0.07,1.67,0.77,0.06h0.12Zm63.06-.73a1.56,1.56,0,0,0,.3,0l0.82-.15a1.67,1.67,0,0,0-.61-3.29l-0.8.15A1.67,1.67,0,0,0,1597.12,301.81Zm-72.18,0a1.67,1.67,0,0,0,.14-3.33l-0.78-.07L1524.1,300l-0.12,1.67,0.8,0.07h0.14Zm-9.11-.88a1.67,1.67,0,0,0,.17-3.33l-0.83-.09a1.67,1.67,0,0,0-.34,3.33l0.83,0.08h0.17Zm-9.09-1a1.67,1.67,0,0,0,.19-3.33l-0.82-.09a1.67,1.67,0,0,0-.38,3.32l0.82,0.09h0.2Zm99.25-.37a1.62,1.62,0,0,0,.56-0.1l0.82-.32a1.67,1.67,0,0,0-1.22-3.1l-0.73.28A1.67,1.67,0,0,0,1606,299.55Zm-108.33-.73a1.67,1.67,0,0,0,.21-3.33l-0.83-.11a1.67,1.67,0,0,0-.42,3.32l0.82,0.1Zm-9.07-1.2a1.67,1.67,0,0,0,.22-3.33l-0.82-.11a1.65,1.65,0,0,0-1.88,1.42,1.67,1.67,0,0,0,1.42,1.89l0.84,0.11Zm-9.06-1.3a1.67,1.67,0,0,0,.24-3.32l-0.83-.13a1.67,1.67,0,0,0-.48,3.31l0.82,0.12A1.06,1.06,0,0,0,1479.52,296.32Zm-9-1.39a1.67,1.67,0,0,0,.25-3.32l-0.82-.13a1.67,1.67,0,0,0-.52,3.3l0.82,0.13A1.14,1.14,0,0,0,1470.47,294.93Zm142.95-.41a1.66,1.66,0,0,0,1.43-.82,6.91,6.91,0,0,0,.48-0.95,1.67,1.67,0,0,0-.89-2.19,1.65,1.65,0,0,0-2.18.89c-0.08.18-.17,0.35-0.27,0.53A1.67,1.67,0,0,0,1613.42,294.52Zm-152-1.06a1.67,1.67,0,0,0,.27-3.32l-0.82-.14a1.67,1.67,0,0,0-.56,3.29l0.82,0.14Zm-9-1.56a1.67,1.67,0,0,0,.28-3.32l-0.81-.15a1.67,1.67,0,0,0-.58,3.29l0.83,0.15A1.37,1.37,0,0,0,1452.42,291.9Zm-9-1.65a1.67,1.67,0,0,0,.3-3.31l-0.81-.15a1.67,1.67,0,0,0-.61,3.29l0.83,0.15A1.46,1.46,0,0,0,1443.42,290.26Zm-9-1.72a1.66,1.66,0,0,0,1.63-1.34,1.68,1.68,0,0,0-1.31-2l-0.82-.16a1.67,1.67,0,0,0-.64,3.28l0.82,0.16A1.32,1.32,0,0,0,1434.44,288.53Zm-9-1.79a1.67,1.67,0,0,0,.33-3.31l-0.81-.17a1.67,1.67,0,0,0-.68,3.27l0.82,0.17A1.34,1.34,0,0,0,1425.47,286.74Zm186.3-.55a1.67,1.67,0,0,0,1.28-2.73c-0.19-.24-0.38-0.46-0.59-0.69a1.65,1.65,0,0,0-2.34-.13A1.68,1.68,0,0,0,1610,285c0.18,0.19.34,0.39,0.49,0.57A1.67,1.67,0,0,0,1611.77,286.19Zm-195.26-1.34a1.67,1.67,0,0,0,.35-3.3l-0.81-.18a1.66,1.66,0,0,0-2,1.28,1.68,1.68,0,0,0,1.27,2l0.82,0.18Zm-8.93-2a1.67,1.67,0,0,0,.36-3.3l-0.81-.19a1.67,1.67,0,0,0-.73,3.26l0.81,0.19A2.39,2.39,0,0,0,1407.57,282.89Zm-8.92-2.06a1.67,1.67,0,0,0,.38-3.3l-0.81-.19a1.67,1.67,0,0,0-.76,3.25l0.81,0.2A1.61,1.61,0,0,0,1398.65,280.83Zm206.25-.67a1.66,1.66,0,0,0,1.37-.71,1.67,1.67,0,0,0-.41-2.32l-0.71-.49a1.67,1.67,0,0,0-1.86,2.77l0.67,0.46A1.6,1.6,0,0,0,1604.9,280.16Zm-215.15-1.47a1.68,1.68,0,0,0,.4-3.3l-0.82-.19a1.65,1.65,0,0,0-2,1.22,1.68,1.68,0,0,0,1.21,2l0.8,0.19A1.8,1.8,0,0,0,1389.75,278.69Zm-8.87-2.23a1.67,1.67,0,0,0,.41-3.29l-0.8-.21a1.67,1.67,0,0,0-.83,3.23l0.81,0.21A1.51,1.51,0,0,0,1380.87,276.46Zm216.22-1.08a1.67,1.67,0,0,0,.8-3.13l-0.75-.41a1.65,1.65,0,0,0-2.25.68,1.68,1.68,0,0,0,.68,2.26l0.72,0.39A1.54,1.54,0,0,0,1597.09,275.38ZM1372,274.12a1.67,1.67,0,0,0,.43-3.29l-0.8-.21a1.67,1.67,0,0,0-.86,3.23l0.8,0.22A1.62,1.62,0,0,0,1372,274.12Zm-8.82-2.44a1.67,1.67,0,0,0,.45-3.28l-0.8-.23a1.67,1.67,0,0,0-.91,3.22l0.8,0.23A1.79,1.79,0,0,0,1363.19,271.68Zm225.73-.46a1.67,1.67,0,0,0,.72-3.18l-0.77-.37a1.67,1.67,0,0,0-1.4,3l0.75,0.35A1.67,1.67,0,0,0,1588.93,271.23Zm-234.53-2.1a1.67,1.67,0,0,0,.47-3.27l-0.79-.24a1.66,1.66,0,0,0-2.07,1.12,1.68,1.68,0,0,0,1.12,2.08l0.8,0.24A1.57,1.57,0,0,0,1354.4,269.13Zm226.17-1.64a1.67,1.67,0,0,0,.65-3.21l-0.77-.34a1.66,1.66,0,0,0-2.18.91,1.68,1.68,0,0,0,.9,2.19l0.76,0.32A1.67,1.67,0,0,0,1580.57,267.5Zm-234.92-1a1.67,1.67,0,0,0,.5-3.27l-0.79-.25a1.67,1.67,0,0,0-1,3.19l0.79,0.25A1.78,1.78,0,0,0,1345.64,266.46Zm226.44-2.4a1.67,1.67,0,0,0,.6-3.23l-0.78-.31a1.66,1.66,0,0,0-2.15,1,1.68,1.68,0,0,0,1,2.16l0.76,0.3A1.67,1.67,0,0,0,1572.08,264.06Zm-235.15-.4a1.68,1.68,0,0,0,.53-3.26l-0.79-.27a1.67,1.67,0,0,0-1,3.17l0.79,0.27A1.61,1.61,0,0,0,1336.93,263.65Zm226.58-2.81a1.67,1.67,0,0,0,.56-3.24l-0.78-.29a1.67,1.67,0,0,0-1.12,3.14l0.78,0.29A1.62,1.62,0,0,0,1563.5,260.85Zm-235.23-.16a1.67,1.67,0,0,0,.55-3.25l-0.78-.28a1.65,1.65,0,0,0-2.12,1,1.68,1.68,0,0,0,1,2.14l0.79,0.28A1.76,1.76,0,0,0,1328.27,260.69Zm226.58-2.86a1.67,1.67,0,0,0,.53-3.26l-0.79-.27a1.65,1.65,0,0,0-2.1,1.05,1.67,1.67,0,0,0,1,2.12l0.78,0.27A1.64,1.64,0,0,0,1554.85,257.83Zm-235.19-.3a1.67,1.67,0,0,0,.58-3.23l-0.77-.3a1.67,1.67,0,0,0-1.18,3.12l0.78,0.3A1.51,1.51,0,0,0,1319.67,257.54ZM1546.16,255a1.65,1.65,0,0,0,1.58-1.17,1.67,1.67,0,0,0-1.08-2.1l-0.79-.25a1.67,1.67,0,0,0-1,3.18l0.79,0.26A1.79,1.79,0,0,0,1546.16,255Zm-235-.8a1.68,1.68,0,0,0,.63-3.22l-0.76-.31a1.67,1.67,0,0,0-1.27,3.08l0.77,0.33A1.6,1.6,0,0,0,1311.14,254.18Zm226.26-1.92a1.66,1.66,0,0,0,1.59-1.18,1.68,1.68,0,0,0-1.11-2.09l-0.8-.24a1.67,1.67,0,0,0-1,3.2l0.79,0.24A1.65,1.65,0,0,0,1537.41,252.26Zm-234.67-1.72a1.67,1.67,0,0,0,.69-3.19l-0.74-.34a1.66,1.66,0,0,0-2.21.83,1.68,1.68,0,0,0,.82,2.22l0.76,0.34A1.68,1.68,0,0,0,1302.74,250.53Zm225.89-.86a1.67,1.67,0,0,0,.46-3.28l-0.8-.23a1.67,1.67,0,0,0-.91,3.21l0.8,0.23A1.46,1.46,0,0,0,1528.62,249.68Zm-8.81-2.47a1.67,1.67,0,0,0,.44-3.28l-0.82-.23a1.65,1.65,0,0,0-2,1.18,1.68,1.68,0,0,0,1.17,2l0.79,0.22A1.7,1.7,0,0,0,1519.81,247.21Zm-225.31-.68a1.67,1.67,0,0,0,.77-3.15l-0.73-.38a1.67,1.67,0,0,0-1.55,3l0.74,0.39A1.71,1.71,0,0,0,1294.5,246.53Zm-7.94-4.56a1.66,1.66,0,0,0,.89-3.07l-0.68-.44a1.66,1.66,0,0,0-2.3.48,1.69,1.69,0,0,0,.48,2.31l0.72,0.46A1.64,1.64,0,0,0,1286.56,242Zm-7.27-5.54a1.66,1.66,0,0,0,1.21-.52,1.68,1.68,0,0,0-.06-2.36c-0.2-.18-0.38-0.37-0.56-0.54a1.65,1.65,0,0,0-2.35,0,1.68,1.68,0,0,0,0,2.36c0.2,0.21.41,0.41,0.63,0.62A1.67,1.67,0,0,0,1279.28,236.43ZM1275,228.7a1.67,1.67,0,0,0,1.66-1.63,4,4,0,0,1,.06-0.56,1.64,1.64,0,0,0-.3-1.31,1.69,1.69,0,0,0,1.26-.59,6.34,6.34,0,0,1,.46-0.49,1.67,1.67,0,0,0,0-2.36,1.65,1.65,0,0,0-2.35,0,9.53,9.53,0,0,0-.68.72,1.69,1.69,0,0,0-.06,2.09,1.65,1.65,0,0,0-1.62,1.36,7,7,0,0,0-.12,1.09,1.67,1.67,0,0,0,1.61,1.71H1275Zm110.2-7.69a1.67,1.67,0,0,0,.19-3.33l-0.83-.1a1.67,1.67,0,0,0-.39,3.32L1385,221h0.2Zm-101-.31a1.68,1.68,0,0,0,.52-0.09l0.75-.24a1.67,1.67,0,0,0-1-3.2l-0.82.27A1.67,1.67,0,0,0,1284.23,220.7Zm91.61-.74,0.24-1.66,0.11-1.67-0.76-.08a1.67,1.67,0,0,0-.34,3.32Zm-8.85-.9a1.67,1.67,0,0,0,.16-3.33l-0.84-.08a1.67,1.67,0,0,0-.3,3.33l0.82,0.07H1367Zm-73.86-.46a1.31,1.31,0,0,0,.28,0l0.8-.13a1.67,1.67,0,0,0-.51-3.3l-0.84.13a1.68,1.68,0,0,0-1.36,1.93A1.66,1.66,0,0,0,1293.12,218.6Zm64.55-.34,0.19-1.66,0.07-1.67-0.77-.06a1.67,1.67,0,0,0-.25,3.33Zm-8.93-.64a1.67,1.67,0,0,0,.1-3.34l-0.79,0a1.68,1.68,0,0,0-1.78,1.56,1.65,1.65,0,0,0,1.53,1.77l0.82,0h0.11Zm-46.54-.15h0.15l0.82-.07a1.67,1.67,0,0,0-.27-3.33l-0.84.08A1.67,1.67,0,0,0,1302.2,217.48Zm37.41-.36a1.67,1.67,0,0,0,.07-3.34l-0.83,0a1.68,1.68,0,0,0-1.73,1.6,1.66,1.66,0,0,0,1.59,1.74l0.83,0h0.08Zm-28.28-.22h0.07l0.82,0a1.67,1.67,0,0,0-.12-3.34l-0.84,0A1.67,1.67,0,0,0,1311.33,216.91Zm19.07-.1,0.08-3.35-0.81,0a1.7,1.7,0,0,0-1.7,1.65,1.67,1.67,0,0,0,1.63,1.7Zm-9.92-.1h0.84a1.67,1.67,0,0,0,0-3.34h-0.84A1.67,1.67,0,0,0,1320.47,216.71Z" transform="translate(-3.84 -24.52)"/></g><g class="cls-21"><polygon class="cls-22" points="1316.79 196.11 1323.82 198.58 1327.92 186.83 1320.9 184.35 1316.79 196.11"/><path class="cls-23" d="M1327.51,213.32a1.31,1.31,0,0,0,1.68-.81A1.32,1.32,0,1,0,1327.51,213.32Z" transform="translate(-3.84 -24.52)"/></g><rect class="cls-2" x="1524.05" y="232.57" width="0.93" height="4.59"/><rect class="cls-2" x="1522.23" y="234.4" width="4.56" height="0.94"/><g class="cls-19"><rect class="cls-2" x="1347.37" y="169.84" width="1.83" height="9.06"/><rect class="cls-2" x="1343.78" y="173.45" width="9.03" height="1.84"/></g><rect class="cls-2" x="1524.79" y="198.52" width="1.83" height="9.07"/><rect class="cls-2" x="1521.2" y="202.14" width="9.03" height="1.84"/><rect class="cls-2" x="1499.29" y="323.29" width="1.83" height="9.06"/><rect class="cls-2" x="1495.69" y="326.9" width="9.03" height="1.85"/><rect class="cls-2" x="1345.15" y="355.04" width="1.28" height="6.28"/><rect class="cls-2" x="1342.67" y="357.54" width="6.25" height="1.28"/><path class="cls-24" d="M1509.46,490.2a4.94,4.94,0,0,0-6,3.66l-4,16.92a5,5,0,0,0,3.65,6l8.25,2a5,5,0,0,0,6-3.67l4-16.92a5,5,0,0,0-3.65-6Z" transform="translate(-3.84 -24.52)"/><g class="cls-10"><path class="cls-11" d="M1519.7,505.15l-2.39,10a5,5,0,0,1-6,3.67l-8.25-2a5,5,0,0,1-3.65-6l2.38-10Z" transform="translate(-3.84 -24.52)"/></g><path class="cls-15" d="M1319.86,455c-3.18-.77-6-0.24-6.37,1.19s2,3.2,5.13,4,6,0.23,6.37-1.18S1323,455.75,1319.86,455Z" transform="translate(-3.84 -24.52)"/><polygon class="cls-7" points="1336.58 424.4 1330.36 450.39 1483.63 488.18 1489.85 462.19 1336.58 424.4"/><path class="cls-25" d="M1319.86,457.71a4.93,4.93,0,0,0-.06-2.53l20.6-6.13-6.16,25.74-15.57-14.85A5,5,0,0,0,1319.86,457.71Z" transform="translate(-3.84 -24.52)"/><polygon class="cls-26" points="1488.02 469.82 1485.45 480.55 1332.19 442.76 1334.76 432.03 1488.02 469.82"/><polygon class="cls-27" points="1485.45 480.55 1483.63 488.18 1330.36 450.39 1332.19 442.76 1485.45 480.55"/><polygon class="cls-28" points="1334.76 432.03 1336.58 424.4 1489.85 462.19 1488.02 469.82 1334.76 432.03"/><polygon class="cls-11" points="1489.51 460.89 1482.74 489.16 1499.17 493.13 1505.94 464.86 1489.51 460.89"/><g class="cls-10"><polygon class="cls-11" points="1502.18 480.59 1499.17 493.13 1482.74 489.16 1485.75 476.62 1502.18 480.59"/></g><g class="cls-10"><path class="cls-11" d="M1336.94,463.51l-2.7,11.28-15.57-14.85a5,5,0,0,0,1.19-2.19Z" transform="translate(-3.84 -24.52)"/></g><polygon class="cls-2" points="1464.06 449.38 1460.39 447.19 1451.36 461.89 1455.03 464.08 1464.06 449.38"/><polygon class="cls-16" points="1469.07 358.33 1483.93 404.28 1477.9 450.93 1457.37 448.25 1462.81 406.25 1449.38 364.77 1469.07 358.33"/><polygon class="cls-2" points="1476.74 447.63 1460.74 444.6 1456.86 465.26 1472.87 468.28 1476.74 447.63"/><polygon class="cls-2" points="1461.44 462.81 1457.7 462.08 1454.49 478.58 1458.22 479.32 1461.44 462.81"/><polygon class="cls-2" points="1465.42 464.78 1462.09 464.14 1458.83 481.28 1462.17 481.92 1465.42 464.78"/><polygon class="cls-2" points="1469.69 464.63 1466.35 463.99 1463.09 481.14 1466.43 481.78 1469.69 464.63"/><polygon class="cls-2" points="1473.54 464.06 1470.57 463.55 1468.1 478.4 1471.07 478.9 1473.54 464.06"/><rect class="cls-13" x="1467.95" y="461.23" width="7.54" height="22.94" transform="translate(806.45 1845.29) rotate(-82.47)"/><circle class="cls-29" cx="55.58" cy="125.82" r="32.93" transform="translate(-74.73 155.41) rotate(-89.33)"/><path class="cls-30" d="M64.87,125.93l-61-.71Z" transform="translate(-3.84 -24.52)"/><path class="cls-31" d="M40.84,126.16L51,136.56Z" transform="translate(-3.84 -24.52)"/><path class="cls-32" d="M33.88,125.57L48.82,111Z" transform="translate(-3.84 -24.52)"/><circle class="cls-29" cx="71.38" cy="248.13" r="40.41" transform="translate(-181.41 292.09) rotate(-89.33)"/><path class="cls-33" d="M82.77,248.26l-74.88-.87Z" transform="translate(-3.84 -24.52)"/><path class="cls-34" d="M53.29,248.54L65.76,261.3Z" transform="translate(-3.84 -24.52)"/><path class="cls-35" d="M44.75,247.82l18.33-17.9Z" transform="translate(-3.84 -24.52)"/><circle class="cls-36" cx="39.49" cy="184.15" r="21.09" transform="translate(-148.94 196.96) rotate(-89.33)"/><path class="cls-37" d="M45.44,184.21l-39.08-.46Z" transform="translate(-3.84 -24.52)"/><path class="cls-38" d="M30.05,184.36L36.56,191Z" transform="translate(-3.84 -24.52)"/><path class="cls-39" d="M25.6,184l9.57-9.34Z" transform="translate(-3.84 -24.52)"/><rect class="cls-40" x="431.94" y="469.2" width="6.91" height="14.48"/><polygon class="cls-40" points="473.74 452.94 459.82 449.1 445.9 445.25 445.9 452.94 445.9 452.94 459.82 452.94 473.74 452.94"/><ellipse class="cls-41" cx="458.11" cy="626.18" rx="171.74" ry="32.66"/><path class="cls-42" d="M434.48,651.84a2.87,2.87,0,0,1-2.87-2.87V215.82a2.87,2.87,0,0,1,5.73,0V649a2.87,2.87,0,0,1-2.87,2.87h0Z" transform="translate(-3.84 -24.52)"/><path class="cls-42" d="M464.6,651.84a2.87,2.87,0,0,1-2.87-2.87V215.82a2.87,2.87,0,0,1,5.74,0V649a2.87,2.87,0,0,1-2.87,2.87h0Z" transform="translate(-3.84 -24.52)"/><path class="cls-42" d="M464.24,233h-29a2.87,2.87,0,1,1,0-5.73h29a2.87,2.87,0,0,1,0,5.73h0Z" transform="translate(-3.84 -24.52)"/><path class="cls-42" d="M437.43,264.25c-1.27,0-4.56-.89-4.82-2.07a1.22,1.22,0,0,1-.28-0.79,2.87,2.87,0,0,1,2.87-2.87h29a2.87,2.87,0,0,1,2.87,2.87,2.69,2.69,0,0,1-2.65,2.69h0C464.43,264.17,437.54,264.25,437.43,264.25Z" transform="translate(-3.84 -24.52)"/><path class="cls-42" d="M439.67,295.47c-1.16,0-6.6-.81-6.84-1.9a1.14,1.14,0,0,1-.5-1,2.87,2.87,0,0,1,2.87-2.87h29a2.87,2.87,0,0,1,2.87,2.87,2.51,2.51,0,0,1-2.44,2.52h0C464.63,295.32,439.88,295.47,439.67,295.47Z" transform="translate(-3.84 -24.52)"/><path class="cls-42" d="M441.9,326.69c-1.06,0-8.64-.74-8.86-1.73a1.22,1.22,0,0,1-.71-1.14A2.87,2.87,0,0,1,435.2,321h29a2.87,2.87,0,0,1,2.87,2.87,2.34,2.34,0,0,1-2.22,2.35h0C464.82,326.46,442.22,326.69,441.9,326.69Z" transform="translate(-3.84 -24.52)"/><path class="cls-42" d="M444.14,357.91c-0.95,0-10.68-.67-10.87-1.56a1.34,1.34,0,0,1-.93-1.31,2.87,2.87,0,0,1,2.87-2.87h29a2.87,2.87,0,0,1,2.87,2.87,2.16,2.16,0,0,1-2,2.18h0C465,357.61,444.56,357.91,444.14,357.91Z" transform="translate(-3.84 -24.52)"/><path class="cls-42" d="M446.37,389.12c-0.84,0-12.72-.59-12.89-1.38a1.49,1.49,0,0,1-1.14-1.48,2.87,2.87,0,0,1,2.87-2.87h29a2.87,2.87,0,0,1,2.87,2.87,2,2,0,0,1-1.79,2h0C465.21,388.75,446.9,389.12,446.37,389.12Z" transform="translate(-3.84 -24.52)"/><path class="cls-42" d="M448.6,420.34c-0.74,0-14.76-.52-14.91-1.21a1.65,1.65,0,0,1-1.36-1.66,2.87,2.87,0,0,1,2.87-2.87h29a2.87,2.87,0,0,1,2.87,2.87,1.82,1.82,0,0,1-1.57,1.83h0C465.4,419.9,449.24,420.34,448.6,420.34Z" transform="translate(-3.84 -24.52)"/><path class="cls-42" d="M450.84,451.56c-0.63,0-16.8-.44-16.93-1a1.82,1.82,0,0,1-1.58-1.83,2.87,2.87,0,0,1,2.87-2.87h29a2.87,2.87,0,0,1,2.87,2.87,1.65,1.65,0,0,1-1.36,1.66h0C465.59,451,451.58,451.56,450.84,451.56Z" transform="translate(-3.84 -24.52)"/><path class="cls-42" d="M453.07,482.78c-0.53,0-18.84-.37-18.95-0.86a2,2,0,0,1-1.79-2A2.87,2.87,0,0,1,435.2,477h29a2.87,2.87,0,0,1,2.87,2.87A1.49,1.49,0,0,1,466,481.4h0C465.79,482.19,453.91,482.78,453.07,482.78Z" transform="translate(-3.84 -24.52)"/><path class="cls-42" d="M455.3,514c-0.42,0-20.88-.3-21-0.69a2.16,2.16,0,0,1-2-2.18,2.87,2.87,0,0,1,2.87-2.87h29a2.87,2.87,0,0,1,2.87,2.87,1.34,1.34,0,0,1-.93,1.31h0C466,513.33,456.25,514,455.3,514Z" transform="translate(-3.84 -24.52)"/><path class="cls-42" d="M457.54,545.22c-0.32,0-22.92-.22-23-0.52a2.34,2.34,0,0,1-2.22-2.35,2.87,2.87,0,0,1,2.87-2.87h29a2.87,2.87,0,0,1,2.87,2.87,1.22,1.22,0,0,1-.71,1.14h0C466.18,544.48,458.59,545.22,457.54,545.22Z" transform="translate(-3.84 -24.52)"/><path class="cls-42" d="M459.77,576.44c-0.21,0-25-.15-25-0.35a2.51,2.51,0,0,1-2.44-2.52,2.87,2.87,0,0,1,2.87-2.87h29a2.87,2.87,0,0,1,2.87,2.87,1.14,1.14,0,0,1-.5,1h0C466.37,575.62,460.93,576.44,459.77,576.44Z" transform="translate(-3.84 -24.52)"/><path class="cls-42" d="M462,607.66c-0.11,0-27-.07-27-0.17a2.69,2.69,0,0,1-2.65-2.7,2.87,2.87,0,0,1,2.87-2.87h29a2.87,2.87,0,0,1,2.87,2.87,1.22,1.22,0,0,1-.28.79h0C466.56,606.77,463.27,607.66,462,607.66Z" transform="translate(-3.84 -24.52)"/><path class="cls-42" d="M464.24,638.88h-29a2.87,2.87,0,1,1,0-5.74h29a2.87,2.87,0,0,1,0,5.74h0Z" transform="translate(-3.84 -24.52)"/><path class="cls-2" d="M468.4,382.17a21.75,21.75,0,0,1-21.75,21.75h0a21.75,21.75,0,0,1-21.75-21.75v-22a21.75,21.75,0,0,1,21.75-21.75h0a21.75,21.75,0,0,1,21.75,21.75v22Z" transform="translate(-3.84 -24.52)"/><path class="cls-2" d="M442.68,309.42a4.93,4.93,0,0,0,7,.54l6.08-5.21a4.93,4.93,0,0,0,.54-6.95L451,291.71a4.93,4.93,0,0,0-6.94-.53L438,296.39a4.93,4.93,0,0,0-.54,6.95Z" transform="translate(-3.84 -24.52)"/><path class="cls-2" d="M442.31,284.45a1.89,1.89,0,0,1,2.68.21l9.09,10.61a1.89,1.89,0,0,1-.2,2.67h0a1.89,1.89,0,0,1-2.67-.2l-9.09-10.6a1.91,1.91,0,0,1,.21-2.68h0Z" transform="translate(-3.84 -24.52)"/><path class="cls-2" d="M435.85,284.05a1.9,1.9,0,0,1,2.68.2l9.09,10.61a1.9,1.9,0,0,1-.21,2.67h0a1.9,1.9,0,0,1-2.68-.21l-9.09-10.61a1.89,1.89,0,0,1,.2-2.67h0Z" transform="translate(-3.84 -24.52)"/><path class="cls-2" d="M428.7,290.18a1.91,1.91,0,0,1,2.68.21L440.46,301a1.9,1.9,0,0,1-.21,2.67h0a1.9,1.9,0,0,1-2.67-.21l-9.09-10.61a1.91,1.91,0,0,1,.2-2.68h0Z" transform="translate(-3.84 -24.52)"/><path class="cls-2" d="M429.34,283.69a1.9,1.9,0,0,1,2.68.21l9.09,10.6a1.9,1.9,0,0,1-.21,2.67h0a1.89,1.89,0,0,1-2.67-.21l-9.09-10.6a1.91,1.91,0,0,1,.21-2.68h0Z" transform="translate(-3.84 -24.52)"/><path class="cls-2" d="M465.62,311.79L453.77,298a3.34,3.34,0,0,0-4.71-.36l-4.12,3.53a3.34,3.34,0,0,0-.37,4.71l11.85,13.83Z" transform="translate(-3.84 -24.52)"/><path class="cls-2" d="M441.56,309.45l-4.71-5.5a2.8,2.8,0,0,0-4-.31l-0.71.61-0.08.08,4,4.7Z" transform="translate(-3.84 -24.52)"/><path class="cls-2" d="M442.71,307.1l-6.63-.51a2.76,2.76,0,0,0-1.71.43l3,3.53,8.86,0.68Z" transform="translate(-3.84 -24.52)"/><path class="cls-2" d="M418.38,334a4.93,4.93,0,0,1-6.72,1.85l-7-4a4.93,4.93,0,0,1-1.84-6.72l4-7a4.93,4.93,0,0,1,6.72-1.84l7,4a4.93,4.93,0,0,1,1.85,6.72Z" transform="translate(-3.84 -24.52)"/><path class="cls-2" d="M414,309.45a1.89,1.89,0,0,0-2.59.71l-6.91,12.14a1.89,1.89,0,0,0,.71,2.58h0a1.89,1.89,0,0,0,2.59-.71L414.71,312a1.91,1.91,0,0,0-.71-2.59h0Z" transform="translate(-3.84 -24.52)"/><path class="cls-2" d="M420.27,307.83a1.9,1.9,0,0,0-2.59.7l-6.91,12.14a1.9,1.9,0,0,0,.71,2.59h0a1.9,1.9,0,0,0,2.59-.71L421,310.42a1.89,1.89,0,0,0-.71-2.58h0Z" transform="translate(-3.84 -24.52)"/><path class="cls-2" d="M428.45,312.49a1.91,1.91,0,0,0-2.59.71L419,325.34a1.9,1.9,0,0,0,.71,2.59h0a1.9,1.9,0,0,0,2.59-.71l6.91-12.14a1.91,1.91,0,0,0-.71-2.59h0Z" transform="translate(-3.84 -24.52)"/><path class="cls-2" d="M426.59,306.24A1.9,1.9,0,0,0,424,307l-6.91,12.14a1.9,1.9,0,0,0,.71,2.59h0a1.89,1.89,0,0,0,2.59-.71l6.91-12.13a1.91,1.91,0,0,0-.71-2.59h0Z" transform="translate(-3.84 -24.52)"/><path class="cls-2" d="M396.3,340.72l9-15.83a3.34,3.34,0,0,1,4.56-1.25l4.72,2.69a3.34,3.34,0,0,1,1.25,4.56l-9,15.83Z" transform="translate(-3.84 -24.52)"/><path class="cls-2" d="M419.49,333.86l3.58-6.29a2.8,2.8,0,0,1,3.82-1L427.7,327l0.1,0.06-3.06,5.38Z" transform="translate(-3.84 -24.52)"/><path class="cls-2" d="M417.9,331.77l6.42-1.76a2.76,2.76,0,0,1,1.76.1l-2.3,4-8.57,2.35Z" transform="translate(-3.84 -24.52)"/><path class="cls-43" d="M458.86,418a57.11,57.11,0,0,1-43.54-81.44l-15.68-8.31a74.75,74.75,0,0,0,32.1,99.35,75.68,75.68,0,0,0,15,5.94Z" transform="translate(-3.84 -24.52)"/><rect class="cls-44" x="430.5" y="415.78" width="9.77" height="56.06"/><rect class="cls-44" x="444.47" y="415.78" width="9.78" height="32.76"/><rect class="cls-45" x="418.08" y="366.84" width="54.7" height="56.87"/><path class="cls-45" d="M457.65,394.4a57.14,57.14,0,0,0-4.38-74.49l12.27-12.83a74.92,74.92,0,0,1,9.16,94q-1.07,1.61-2.24,3.17Z" transform="translate(-3.84 -24.52)"/><rect class="cls-40" x="431.94" y="471.71" width="6.91" height="5.16"/><path class="cls-44" d="M496.36,611.27a1,1,0,0,1-1.21.68,23.64,23.64,0,0,0-19.38,0,1,1,0,0,1-1.21-.68l-0.06-.13a1,1,0,0,1,.29-1.38,26,26,0,0,1,21.35,0,1,1,0,0,1,.29,1.38Z" transform="translate(-3.84 -24.52)"/><path class="cls-42" d="M496.13,609.76a26,26,0,0,0-21.35,0,1,1,0,0,0-.29,1.38,24.9,24.9,0,0,1,21.92,0A1,1,0,0,0,496.13,609.76Z" transform="translate(-3.84 -24.52)"/><path class="cls-45" d="M476.8,617.71a0.75,0.75,0,0,1-.75.75h-0.12a0.75,0.75,0,0,1-.74-0.75v-6.34a0.74,0.74,0,0,1,.74-0.75h0.12a0.74,0.74,0,0,1,.75.75v6.34Z" transform="translate(-3.84 -24.52)"/><circle class="cls-45" cx="472.15" cy="590.38" r="1.81"/><rect class="cls-45" x="490.28" y="586.09" width="1.62" height="7.84" rx="0.75" ry="0.75"/><circle class="cls-45" cx="491.08" cy="590.38" r="1.8"/><rect class="cls-44" x="447.54" y="590.32" width="68.16" height="45.77" rx="2.24" ry="2.24"/><path class="cls-42" d="M519.54,632.26a3,3,0,0,1-2.21,2.79,137,137,0,0,1-63.75,0,3,3,0,0,1-2.2-2.79V617.08a2.24,2.24,0,0,1,2.24-2.24H517.3a2.25,2.25,0,0,1,2.24,2.24v15.18Z" transform="translate(-3.84 -24.52)"/><path class="cls-44" d="M485.46,637.31a135.82,135.82,0,0,1-31.53-3.72,1.54,1.54,0,0,1-1.06-1.33V617.08a0.75,0.75,0,0,1,.75-0.74H517.3a0.75,0.75,0,0,1,.75.75v15.17A1.54,1.54,0,0,1,517,633.6a135.89,135.89,0,0,1-31.52,3.71h0Z" transform="translate(-3.84 -24.52)"/><path class="cls-42" d="M485.46,635.08a140.28,140.28,0,0,1-30.17-3.32,1.53,1.53,0,0,1-1.1-1.19q-0.46-6.78-.91-13.56a0.66,0.66,0,0,1,.7-0.66h63a0.65,0.65,0,0,1,.69.66q-0.45,6.78-.91,13.56a1.53,1.53,0,0,1-1.1,1.19,140.2,140.2,0,0,1-30.16,3.32h0Z" transform="translate(-3.84 -24.52)"/><path class="cls-44" d="M481.11,614.72v19.85c0,1,.33,1.79.75,1.79h7.22c0.41,0,.75-0.8.75-1.79V614.72h-8.71Z" transform="translate(-3.84 -24.52)"/><path class="cls-42" d="M482.16,614.72v19.85a9.53,9.53,0,0,0,.08,1.79h0.82a9.4,9.4,0,0,0,.09-1.79V614.72h-1Z" transform="translate(-3.84 -24.52)"/><path class="cls-42" d="M487.76,614.72v19.85a9.57,9.57,0,0,0,.08,1.79h0.83a9.68,9.68,0,0,0,.09-1.79V614.72h-1Z" transform="translate(-3.84 -24.52)"/><path class="cls-45" d="M489.31,643.46a1,1,0,0,1-.64.88,10.89,10.89,0,0,1-6.42,0,1,1,0,0,1-.64-0.88v-7.71a1,1,0,0,1,.64-0.88,10.84,10.84,0,0,1,6.42,0,1,1,0,0,1,.64.88v7.71Z" transform="translate(-3.84 -24.52)"/><path class="cls-43" d="M488.67,635.13a11.56,11.56,0,0,0-6.42,0,0.94,0.94,0,0,0-.64.83v3.36h7.71V636A0.94,0.94,0,0,0,488.67,635.13Z" transform="translate(-3.84 -24.52)"/><path class="cls-43" d="M481.61,640v3.42a1,1,0,0,0,.64.88,10.89,10.89,0,0,0,6.42,0,1,1,0,0,0,.64-0.88V640h-7.71Z" transform="translate(-3.84 -24.52)"/><path class="cls-45" d="M485.46,644.16a10.29,10.29,0,0,1-3-.45,0.35,0.35,0,0,1-.18-0.25V640.7h6.39v2.76a0.35,0.35,0,0,1-.18.25,10.22,10.22,0,0,1-3,.45h0Z" transform="translate(-3.84 -24.52)"/><path class="cls-43" d="M684.53,382.75L638.78,428.5c2.63,2.06,5.93,2.42,8.07.87L689,387.22Z" transform="translate(-3.84 -24.52)"/><path class="cls-45" d="M699.64,397.86L689,387.22l-42.15,42.15h0l0,0.06,0.05,0c-1.74,2.38-1.09,6.23,1.64,9s6.57,3.38,9,1.64l0,0.06,0.06,0h0Z" transform="translate(-3.84 -24.52)"/><path class="cls-43" d="M657.49,440c-1.55,2.14-1.18,5.44.87,8.07l45.75-45.75-4.47-4.47Z" transform="translate(-3.84 -24.52)"/><path class="cls-2" d="M658.38,448.09c-2.07-2.63-2.44-5.94-.88-8.08h0l-0.06,0,0-.06c-2.39,1.74-6.22,1.09-9-1.64s-3.38-6.58-1.64-9l-0.05,0,0-.06h0c-2.14,1.55-5.45,1.19-8.08-.88L638.86,448Z" transform="translate(-3.84 -24.52)"/><path class="cls-43" d="M638.81,438.42l0,9.58,9.58,0A36.66,36.66,0,0,0,638.81,438.42Z" transform="translate(-3.84 -24.52)"/><rect class="cls-44" x="685.87" y="379.47" width="6.5" height="6.33" transform="translate(-72.51 575.03) rotate(-45.02)"/><rect class="cls-42" x="693.43" y="382.66" width="6.5" height="15.05" transform="translate(-75.74 582.21) rotate(-44.99)"/><rect class="cls-44" x="700.98" y="394.58" width="6.5" height="6.33" transform="translate(-78.89 589.71) rotate(-44.98)"/><path class="cls-46" d="M22.34,350.86A2.35,2.35,0,0,1,20,348.47v-4.14a2.36,2.36,0,0,1,2.36-2.38h0a2.38,2.38,0,0,1,2.35,2.38v4.14a2.37,2.37,0,0,1-2.35,2.38h0Z" transform="translate(-3.84 -24.52)"/><rect class="cls-47" x="11.94" y="302.52" width="66.31" height="7.53"/><polygon class="cls-47" points="72.86 307.86 78.19 302.52 125.08 349.41 119.75 354.73 72.86 307.86"/><rect class="cls-47" x="112.15" y="351.58" width="66.29" height="5.09" transform="translate(-211.74 182.05) rotate(-45.02)"/><path class="cls-47" d="M158.69,326.82c-0.79-.78-0.53-2.33.58-3.45l4.54-4.54c1.11-1.09,2.64-1.35,3.45-.57l7.44,7.48c0.8,0.79.53,2.31-.57,3.42l-4.55,4.55c-1.1,1.11-2.64,1.35-3.44.57Z" transform="translate(-3.84 -24.52)"/><path class="cls-48" d="M138.75,320.14a9.42,9.42,0,0,1,0-13.38l8.43-8.46a9.48,9.48,0,0,1,13.37,0L172.23,310a9.45,9.45,0,0,1,0,13.38l-8.43,8.46a9.42,9.42,0,0,1-13.37,0Z" transform="translate(-3.84 -24.52)"/><path class="cls-48" d="M151.92,311.5c1.34-1,21.66-16.42,3.12-33.23L137,296.33l-0.24.23-18,18.05C135.54,333.16,150.93,312.84,151.92,311.5Z" transform="translate(-3.84 -24.52)"/><path class="cls-47" d="M118.85,314.84c-1.84-1.84,4.77-11.46,14.78-21.44s19.62-16.63,21.45-14.79-4.76,11.46-14.77,21.47S120.69,316.71,118.85,314.84Z" transform="translate(-3.84 -24.52)"/><polygon class="cls-49" points="121.92 263.06 116.98 258.13 117.73 257.39 122.67 262.32 121.92 263.06"/><polygon class="cls-49" points="135.32 256 135.3 249.04 136.34 249.04 136.38 256 135.32 256"/><rect class="cls-49" x="107.91" y="274.65" width="6.96" height="1.05"/><rect class="cls-50" x="6.4" y="280.3" width="11.67" height="50.87"/><rect class="cls-51" x="5.16" y="278.97" width="2.79" height="53.57"/><circle class="cls-52" cx="653.19" cy="54.33" r="38.31"/><circle class="cls-53" cx="653.19" cy="54.33" r="45.17"/><circle class="cls-54" cx="653.19" cy="54.33" r="52.7"/><path class="cls-55" d="M635.51,99.66a17.76,17.76,0,0,1,1-5.24,15.22,15.22,0,0,1,4.9-6.73A16.51,16.51,0,0,1,644.2,86c1.69-.82,3.76-1.25,5.17-0.72,1,0.34,2.06,1.32,2.93,3.38a22.62,22.62,0,0,0-7.86,9.26,10.39,10.39,0,0,0-.62,4.89q1.09,0.5,2.15,1.05a8.85,8.85,0,0,1,.35-5.25,17.59,17.59,0,0,1,5.16-6.93c0.51-.43,1-0.79,1.38-1.12a12.85,12.85,0,0,1,.34,1.7,17.59,17.59,0,0,1-.56,8.66,8.74,8.74,0,0,1-3.65,4.62q0.9,0.53,1.77,1.1a10.18,10.18,0,0,0,3.82-5,18.46,18.46,0,0,0,.54-9.3,20.44,20.44,0,0,0-.58-2.84c2-1,3.41-1.07,4.38-.67,1.41,0.47,2.73,2.17,3.44,3.81a24.17,24.17,0,0,1,1.09,3.17,15.4,15.4,0,0,1-.64,8.32,19.4,19.4,0,0,1-5.35,7.69c0.47,0.43.93,0.88,1.38,1.33a21.48,21.48,0,0,0,5.88-8.33,16.85,16.85,0,0,0,.7-9c-0.14-.14-1-6.51-5.95-8.5a7.23,7.23,0,0,0-5.57.43,7.13,7.13,0,0,0-4-3.92c-5-1.67-9.82,2.66-10,2.6a17.25,17.25,0,0,0-5.31,7.34,19.09,19.09,0,0,0-1.07,5.39C634.19,99.28,634.85,99.47,635.51,99.66Z" transform="translate(-3.84 -24.52)"/><rect class="cls-55" x="604.86" y="58.63" width="2.25" height="14.95" transform="translate(332.35 588.21) rotate(-69.96)"/><polygon class="cls-55" points="628.38 19.36 622.02 5.92 624.06 4.95 630.36 18.42 628.38 19.36"/><rect class="cls-55" x="666.05" y="32.2" width="14.83" height="2.25" transform="translate(407.68 630.13) rotate(-69.97)"/><path class="cls-55" d="M609.83,99.54l-0.45-1-13.53,6.26,1,2.05,9.44-4.4A15.32,15.32,0,0,1,609.83,99.54Z" transform="translate(-3.84 -24.52)"/><rect class="cls-55" x="701.74" y="93.98" width="2.25" height="14.93" transform="translate(362.76 702.42) rotate(-69.95)"/><polygon class="cls-55" points="693.23 43.02 706.75 36.82 705.81 34.77 692.3 41.01 693.23 43.02"/><polygon class="cls-55" points="675.5 99.57 681.81 113.06 679.73 114 673.46 100.51 675.5 99.57"/><path class="cls-56" d="M598.66,156.27a36.47,36.47,0,0,1-10.23,0h10.23Z" transform="translate(-3.84 -24.52)"/><path class="cls-56" d="M677.64,136.38v0.79c0,10.57-8.9,19.11-19.92,19.11H573.2c-11,0-19.92-8.54-19.92-19.11v-7.26a18.31,18.31,0,0,1,2.19-8.7c-0.09-.9-0.11-1.85-0.11-2.77a38.18,38.18,0,0,1,55.66-34,28.11,28.11,0,0,1,44.6,22.78,25.83,25.83,0,0,1-.23,3.52h2.34A20.15,20.15,0,0,1,671.38,116c-0.07.7-.11,1.42-0.11,2.14,0,0.45,0,.92,0,1.37a9.08,9.08,0,0,0-1.06,4.24v3.56A9.4,9.4,0,0,0,677.64,136.38Z" transform="translate(-3.84 -24.52)"/><path class="cls-56" d="M672.82,117.45a8.59,8.59,0,0,0-1.51,2.07c0-.45,0-0.92,0-1.37,0-.72,0-1.44.11-2.14A12.45,12.45,0,0,1,672.82,117.45Z" transform="translate(-3.84 -24.52)"/><g class="cls-57"><path class="cls-56" d="M731.14,123.76v3.56a9.55,9.55,0,0,1-9.76,9.35H687.44a18.46,18.46,0,0,1-9.8-4.46v4.17a9.4,9.4,0,0,1-7.39-9.06v-3.56a9.08,9.08,0,0,1,1.06-4.24,8.59,8.59,0,0,1,1.51-2.07,12.45,12.45,0,0,0-1.44-1.44,18.72,18.72,0,0,1,27.15-14.47,13.75,13.75,0,0,1,21.81,11.15,14.24,14.24,0,0,1-.11,1.71h1.15A9.57,9.57,0,0,1,731.14,123.76Z" transform="translate(-3.84 -24.52)"/><path class="cls-56" d="M672.82,117.45a8.59,8.59,0,0,0-1.51,2.07c0-.45,0-0.92,0-1.37,0-.72,0-1.44.11-2.14A12.45,12.45,0,0,1,672.82,117.45Z" transform="translate(-3.84 -24.52)"/><path class="cls-56" d="M692.49,136.67a18.72,18.72,0,0,1-2.52.18,18.46,18.46,0,0,1-2.52-.18h5Z" transform="translate(-3.84 -24.52)"/><path class="cls-56" d="M687.44,136.67H680a9.2,9.2,0,0,1-2.37-.29v-4.17A18.46,18.46,0,0,0,687.44,136.67Z" transform="translate(-3.84 -24.52)"/></g><g class="cls-58"><path class="cls-59" d="M447,181.31a22.27,22.27,0,0,1-5.66,0H447Z" transform="translate(-3.84 -24.52)"/></g><g class="cls-60"><path class="cls-56" d="M515.94,160.74c0,5.07-4.73,9.17-10.59,9.17H472.92c-1.71,6.53-8.45,11.4-16.52,11.4H392.85c-9.37,0-17-6.58-17-14.71a13.35,13.35,0,0,1,3.72-9.17A22.85,22.85,0,0,1,401,129a22.84,22.84,0,0,1,39.46,7.08,23.4,23.4,0,0,1,3.79-.32,22.75,22.75,0,0,1,16.07,6.63,14.12,14.12,0,0,1,10.43-5.12,14.26,14.26,0,0,1,24.63,4.42,13.85,13.85,0,0,1,2.39-.2,14.23,14.23,0,0,1,14.06,12A8.84,8.84,0,0,1,515.94,160.74Z" transform="translate(-3.84 -24.52)"/><path class="cls-56" d="M499.49,169.91a13.75,13.75,0,0,1-3.52,0h3.52Z" transform="translate(-3.84 -24.52)"/></g><g class="cls-60"><path class="cls-59" d="M801.43,184.62c0,3-2.86,5.5-6.38,5.5h-3.54a8.54,8.54,0,0,0,7.55-8.5,9.16,9.16,0,0,0-.11-1.37A5.29,5.29,0,0,1,801.43,184.62Z" transform="translate(-3.84 -24.52)"/><path class="cls-59" d="M791.51,190.12a7.65,7.65,0,0,1-2,0h2Z" transform="translate(-3.84 -24.52)"/></g><path class="cls-56" d="M843.61,167.09c0,5.09-4.75,9.19-10.61,9.19H797.21a8.54,8.54,0,0,1,1.74,4,9.18,9.18,0,0,1,.11,1.37,8.54,8.54,0,0,1-7.55,8.5H771.25c-3.52,0-6.35-2.46-6.35-5.5a5.08,5.08,0,0,1,1.4-3.45,8.1,8.1,0,0,1-.27-2.1,8.53,8.53,0,0,1,8.23-8.54,8.56,8.56,0,0,1,6.69-3.2,8,8,0,0,1,1.8.2,3,3,0,0,1,0-.45,8.34,8.34,0,0,1,2.34-5.72,13.87,13.87,0,0,1-.45-3.49,14.25,14.25,0,0,1,13.75-14.24A14.28,14.28,0,0,1,823,148.05a13.59,13.59,0,0,1,2.37-.2,14.28,14.28,0,0,1,14.08,12A8.73,8.73,0,0,1,843.61,167.09Z" transform="translate(-3.84 -24.52)"/><path class="cls-56" d="M827.13,176.29a15.32,15.32,0,0,1-1.76.11,14.62,14.62,0,0,1-1.74-.11h3.49Z" transform="translate(-3.84 -24.52)"/><circle class="cls-61" cx="1860.66" cy="583.1" r="41.42" transform="translate(1255.32 2413.37) rotate(-89.43)"/><path class="cls-61" d="M1849,583l76.76,0.76Z" transform="translate(-3.84 -24.52)"/><path class="cls-61" d="M1879.2,582.65l-12.8-13.06Z" transform="translate(-3.84 -24.52)"/><path class="cls-61" d="M1888,583.37l-18.75,18.38Z" transform="translate(-3.84 -24.52)"/><circle class="cls-61" cx="1840.52" cy="429.28" r="50.84" transform="translate(1389.22 2240.94) rotate(-89.43)"/><path class="cls-61" d="M1826.18,429.14l94.2,0.93Z" transform="translate(-3.84 -24.52)"/><path class="cls-61" d="M1863.27,428.73l-15.71-16Z" transform="translate(-3.84 -24.52)"/><path class="cls-61" d="M1874,429.62l-23,22.56Z" transform="translate(-3.84 -24.52)"/><circle class="cls-61" cx="1880.77" cy="509.7" r="26.53" transform="translate(1348.61 2360.8) rotate(-89.43)"/><path class="cls-61" d="M1873.29,509.63l49.16,0.49Z" transform="translate(-3.84 -24.52)"/><path class="cls-61" d="M1892.64,509.41l-8.2-8.36Z" transform="translate(-3.84 -24.52)"/><path class="cls-61" d="M1898.25,509.87l-12,11.77Z" transform="translate(-3.84 -24.52)"/><text x="-3.84" y="-24.52"/></g></g></svg>