<svg id="Layer_3" data-name="Layer 3" xmlns="http://www.w3.org/2000/svg" viewBox="0 0 1861.36 1215.88"><defs><style>.cls-1{fill:none;stroke:#f48a97;stroke-miterlimit:10;stroke-width:3px;}</style></defs><title>main_bg_anim</title><rect class="cls-1" x="2883.15" y="908.26" width="212.64" height="212.64" transform="translate(-360.14 -1767.88) rotate(45)"/><rect class="cls-1" x="3743.21" y="973.24" width="50.3" height="50.3" transform="translate(3315.86 -2550.75) rotate(97.8)"/><circle class="cls-1" cx="1734.86" cy="392.7" r="125"/><circle class="cls-1" cx="44.85" cy="116.68" r="43.35"/><polygon class="cls-1" points="984 302.64 979.9 239.86 1032.23 204.92 1088.64 232.77 1092.74 295.55 1040.42 330.48 984 302.64"/><polygon class="cls-1" points="63.93 1053.9 62.03 1024.79 86.29 1008.59 112.45 1021.5 114.35 1050.62 90.09 1066.82 63.93 1053.9"/><polygon class="cls-1" points="452.86 568.64 386.24 516.96 464.3 485.11 452.86 568.64"/><polygon class="cls-1" points="1560 106.65 1526.01 2.01 1633.63 24.89 1560 106.65"/></svg>