<?xml version="1.0" encoding="utf-8"?>
<!-- Generator: Adobe Illustrator 19.2.1, SVG Export Plug-In . SVG Version: 6.00 Build 0)  -->
<svg version="1.1" id="Layer_1" xmlns="http://www.w3.org/2000/svg" xmlns:xlink="http://www.w3.org/1999/xlink" x="0px" y="0px"
	 viewBox="0 0 1920 3080" style="enable-background:new 0 0 1920 3080;" xml:space="preserve">
<style type="text/css">
	.st0{fill:none;stroke:#000000;stroke-width:2;stroke-linecap:round;stroke-linejoin:round;stroke-miterlimit:10;}
	.st1{fill:none;stroke:#231F20;stroke-linecap:round;stroke-miterlimit:10;}
	.st2{stroke:#FFFFFF;stroke-width:1.5387;stroke-miterlimit:10;}
	.st3{stroke:#000000;stroke-width:13;stroke-miterlimit:10;}
	.st4{font-family:'Lato-Regular';}
	.st5{font-size:81.1096px;}
	.st6{letter-spacing:1;}
	.st7{font-size:69.879px;}
	.st8{font-family:'Lato-LightItalic';}
	.st9{font-size:41.8027px;}
</style>
<path class="st0" d="M-1551.2,1353.1c12.3-10,12.9-24,11.4-37.7c-1.6-14.8-0.8-29,3-43.3c4.7-17.5,14.9-30.4,31.6-37.7
	c14.8-6.5,30.3-9.6,46.7-7.7c21.8,2.6,37,14.1,47.4,33c5.1,9.2,9.1,18.8,12.4,28.8c4.6,14.3,9.8,28.4,15.1,42.5
	c1.4,3.9,2.4,7.8-0.2,10.9c-3,3.6-7.4,2.9-11.5,1.5c-2.7-0.9-5.5-1.5-8.2-2.1c-11.5-2.6-14.8,1-17.9,11.6c-2.1,7.3-1.8,15-5.4,22
	c-9.8,19.3-25.4,25.6-46,17.8c-8.5-3.2-16.8-7.3-26.1-7.4c-24.2-0.3-39.7,13.1-50,33.6c-7.5,14.8-11.2,30.8-13.1,47.3
	c-2.3,19.9-5.2,39.8-6.7,59.7c-1.2,16.6,0.1,33.4,7.5,48.6c8.3,17.1,24,22.8,41.7,24c24.9,1.8,48.1-6.1,71.4-13.7
	c16.3-5.3,32.4-11.6,49.4-14.3c21.5-3.5,41.2,1.9,59,14.3c3.4,2.4,2,5.5,1.4,8.6"/>
<path class="st0" d="M-1507.3,1894.5c-4.6-5.5-3.9-17.6,2.1-23.3c10.8-10.3,21.8-20.3,32.9-30.2c11.8-10.6,23.9-20.9,35.6-31.6
	c20.5-18.8,40.8-37.9,61.1-56.9c2.5-2.3,5.2-4.5,6.9-8.2c11.6,7.6,21.5,16.4,30.2,26.7c25.1,29.6,42,63.8,56.2,99.5
	c5.9,14.9,11.2,29.9,13.2,46c3.1,25.4-8.8,46-33,55.6c-18.5,7.4-38.1,10-57.7,10.7c-27.9,1-55.8,0.7-83.7,0.9
	c-2.5,0-5.1,0.4-6.9-2.1"/>
<path class="st0" d="M-1345.3,1712c16.4-32.5-4.6-71.6-41.9-72.2c-27-0.4-51.8,8-76.1,18.1c-30.9,12.8-61.1,26.9-92.1,39.5
	c-25.4,10.4-51.1,20-78.2,25.6c-2.4,0.5-4.5,1.7-6.2,3.4"/>
<path class="st0" d="M-1624.6,1506.8c4,9.9,4.1,20.6,6.1,30.9c4,19.9,6.4,40.2,14.6,58.9c12.9,29.6,31.3,37.5,61.6,35.7
	c19.3-1.2,37.8-7.6,56.9-10.4c11.2-1.6,22.4-0.8,33.6-1.2c8.1-0.3,15.8-1.8,22.7-6.8c6.9-4.9,14.2-6.4,22.7-2.3
	c9,4.3,17.3,9.1,23.9,16.6"/>
<path class="st0" d="M-1373.4,1626.9c-7,1.6-13.9,3.8-21.3,3.5c-21.4-0.7-42.6,1.8-63.8,3.9c-15.7,1.5-31.5,2.2-47.3,2.8
	c-39.1,1.6-78.2,3.8-117.3,2.7c-14.2-0.4-28.4-0.9-42.5-0.5c-16.2,0.5-32.4,1.9-47.4,9.4c-24.6,12.3-31.6,40.5-17.9,61.2
	c8.7,13.1,21.1,19.2,36.4,20.6c13.3,1.3,26.2-0.6,39.1-2.8c2.8-0.5,5.5-0.6,7.5-2.8"/>
<path class="st0" d="M-1201.9,1931.6c1.8,0.4,2.8-0.4,2-2c-4.4-9.8-9-19.5-13.5-29.1c-6.7,1.1-11.2,5.2-17.4,7
	c-9.9-18.9-19.6-38.4-30.2-57.5c-18.9-34.2-35.1-69.9-54.7-103.8c-16.9-29.3-41.5-45.2-74.9-48c-18.6-1.6-36.6,1.7-54.2,7.1
	c-26.6,8.1-52.1,19.5-78.3,28.5c-17.5,6-35.6,10.3-54.2,10.2c-22.5-0.2-43.4-5.6-63.5-17.3c-12.4-7.2-23.1-14.9-31.8-25.7
	c-11.1-13.8-16.7-29.6-17.2-47.3c-0.1-3.7,0-7.3,0-11"/>
<path class="st0" d="M-1374.8,1618.6c1.7,12,2.5,12.9,14.4,15.1c22.2,4,40.9,14.1,56.4,30.8c22.3,24,38.9,51.8,55.4,79.8
	c20.3,34.5,40,69.4,59.8,104.3c5.4,9.4,10.1,19.2,15.3,29c-9.9,7.4-21,12.6-31.7,18.3c-2.8,1.5-6,2.3-7.6,5.5"/>
<path class="st0" d="M-1622.5,1496.5c4.9-2.1,6.3-7.1,8.8-11c10.6-16.1,20.3-32.7,25.3-51.4c2.6-9.6,3.8-20-2.7-28.7
	c-9.9-13.1-26.6-13.5-37.6,1.3c-8.5,11.4-9,24.6-6.7,37.7c2.8,15.6,6.6,31.1,9.6,46.7c1,5.2,4.3,11.2,0.2,14.8
	c-4.8,4.3-7.4,9.7-10.6,14.8c-13.2,20.5-26.6,41-37.1,63.1c-8.2,17.4-14.1,35.7-16.5,54.9c-0.1,0.9,0.4,1.8,0.6,2.7"/>
<path class="st0" d="M-1488,1908.2c-3.5-4-8.9-6.1-11.7-10.9c-1.6-2.7-4.5-0.9-6.8-1.5c-3.2,7.9,0.1,15.7,0.8,23.4
	c1.3,13,6.2,24.8,15.6,34.4c2.6,2.7,5.5,3.5,9,3.4c6.3-0.3,12.5,0,18.5,2.1c6.5,2.3,11.3,6.3,12.4,13.7c0.7,5.2-1,7.6-6.2,7.5
	c-11.4-0.2-22.9-0.6-34.3-0.6c-3.5,0-5.5-2.1-7.5-4.2c-12.3-12.7-23.5-26.4-34.2-40.5c-2.5-3.3-5.6-5.9-7.8-9.5
	c-3-4.9-8.1-8.7-8-15.2c0-1.8-1.2-2.4-2.1-3.4c-6.8-7.3-13.7-14.7-20.6-22"/>
<path class="st0" d="M-1369.3,1744.9c-12.8-10.4-27.8-13.2-43.9-13.9c-21.5-0.9-37.4,10.6-52.7,22.9c-23,18.5-44.8,38.3-65.3,59.6
	c-0.6,0.6-0.9,1.4-1.4,2c12.2,15,27.9,26.5,41.2,40.5"/>
<path class="st0" d="M-1052.3,1906.2c-2.2-9.5-13.4-14.1-24-9.6c-5.8,2.5-11.5,5.4-17.2,8.2c-18,8.8-36.7,7.9-55.6,4
	c-1.3-0.3-2.3-1.7-3.4-2.7"/>
<path class="st0" d="M-1049.5,1906.9c-4.7-0.4-8.1,2.8-11.6,4.9c-21.9,13-45.2,22.8-68.7,32.1c-4.4,1.7-8.7,3.7-13.1,5.5
	c-3.5,1.4-6.9,3-11,2.2c-2.7-0.5-5.1,1.2-7.6,2.5c-7.2,4-15,7.1-21.9,11.7"/>
<path class="st0" d="M-1317.9,1611.1c10.7,0.6,20.4-2.7,25.1-12.5c4.4-9.1,4.2-19.3-1.1-28.7c-1-1.7-1.8-3.4-4.1-3.5
	c-9.1,6.5-8.4,23.3,1.3,35.7"/>
<path class="st0" d="M-1296.6,1604.9c3.7,1.8,7.2,4.2,11,5.4c11,3.3,19.5-1.8,25.3-15c3.3-7.7,2.9-15.9,0.7-24
	c-0.6-2.2-2.3-3.7-4.6-4.3c-8.2,5.8-7.8,23.2,0.5,32.4"/>
<path class="st0" d="M-1367.3,1596.7c0.7-0.7,1.4-2,2.1-2c11.4,0.4,22.9-2.4,34.3,0.5c9.1,2.3,12.7,8.4,12.1,16.6
	c-0.8,10.3-7.3,14.6-15.5,14.5c-12.8,0-25.6-0.9-38.4,0.6"/>
<path class="st0" d="M-1150.4,1896.6c4.6-3.6,7.2-10.7,15.1-8.5c0.8,8.3-6.6,14-17.7,13.3c-0.3-4.5-0.7-9.1-0.8-13.7
	c-0.1-3.9-0.8-8-5.5-7.3c-4,0.6-3.8,4.5-2.8,8c1.3,5.2,1.5,10.9,8.3,12.5c-0.1,0.8,0.4,1.9-0.7,2.6c-7.2,4.7-9.2,13.4-15,19.3
	c-7.6,7.8-16,11.8-26.9,9.5c-0.9-0.2-1.8,0-3.2,0c-1.1,18.6,13.1,29.8,21,44.4c8.8-3.1,16.6-7.8,23.9-13.1c2.9-2.1,2.1-7.6,5-10.8"
	/>
<path class="st0" d="M-1543.6,1860.9c2.4,18,15.2,29.7,32.3,29.5"/>
<path class="st0" d="M-1405,1588.4c-0.5,2.4,0.5,2.5,2.7,2.9c13.5,2.6,24.7,9.4,34.3,19.1"/>
<path class="st0" d="M-1348,1592.6c-3-6-9-6.7-14.4-8.2c-7.2-1.9-14.3-5.2-21.9-2.1"/>
<path class="st0" d="M-1409.1,1600.8c13,2.6,24,9.2,34.3,17.2c5.9-1.8,7.9-7.5,10.7-11.8c2.2-3.3-1.8-7.1-4-9.2
	c-5.5-5.1-11.8-9.4-17.9-13.6c-5.1-3.5-12.4-3.3-19-2.4"/>
<path class="st0" d="M-1514.8,1836.9c-6.9,5.9-13.6,12.1-20.6,17.8c-3.5,2.8-7.8,4.3-12.2,5.9c-8.4,3-15.6,9-20.4,16.3
	c-3.7,5.8-8.9,10.1-13.1,15.9c5.4,5.4,11,10.6,16.1,16.2c4.5,5,11.9,2.5,16.5,6.8"/>
<path class="st0" d="M-1184.7,1886.3c4.3,11.4,11.1,20,24,22"/>
<path class="st0" d="M-1345.3,1715.4c-6.8,10.2-14.2,19.9-22.6,28.8"/>
<path class="st0" d="M-1169.4,2030c-2.2-2.4-5.5,1.5-7.5-1.4"/>
<g onmouseover="alert(&quot;lulz 2&quot;);">
	<path class="st0" d="M-869.4,1570.3c7.9,2.2,10.9,11.2,19.3,13c26.7,5.6,52.7,3.8,76.1-10.6c33.2-20.5,40.9-59.7,22.1-94
		c-12.7-23.2-30.1-40.2-58.1-41.2c-40.9-1.4-81.8-2.1-122.6-2.6c-27.1-0.4-54.3-1.2-81.3,0.2c-30.2,1.6-60.3,0.2-90.4,0.9
		c-2.1,0.1-4.4-0.6-6.4-1.3c-17-5.8-24.6-18.4-24.5-41.3c0.3-84.3,1.2-168.7,1-253c-0.1-20.3,17.8-38.6,37.7-37.6
		c26.2,1.2,52.5,1.8,78.7,1.4c77.5-1.2,154.9,5,232.4,2.4c22.2-0.8,39.5,17,39.1,39.1c-1.1,74.4-0.4,148.9-0.3,223.3
		c0,7.7,0.8,15.5,1.2,23.2"/>
	<path class="st0" d="M-897.8,1234.6c-2.7,13.3-1,26.7-1.2,40c-0.3,21.1-0.1,42.2-0.1,64.5c27.9,0,55.9,0,85.2,0
		c0-34,0.6-68-0.5-102c-0.2-7,1.6-13.7,0.8-20.7c-0.7-6.6-2.6-9.2-9.4-9.1c-22.4,0.3-44.8,0.3-67.1,0c-6.8-0.1-9.7,2.4-9.1,9.1
		c0.5,5.6-1.2,11.5,2,16.8"/>
	<path class="st0" d="M-926.2,1297.9c4.5,5.5,2.4,12,2.5,18.1c0.3,17.9,0.1,35.7,0.1,54.2c-51.6,0-102-0.1-152.3,0.1
		c-7,0-9.8-3.1-8.9-9.2c2.8-19.8-0.4-39.6-0.1-59.4c0-1.5,1.2-3,1.2-4.5c-1.1-22.6-1.1-22.6,20.7-22.6c45.6,0,91.2,0,137.2,0
		c3.8,7.3,3,14.6-0.4,21.9"/>
	<path class="st0" d="M-946.8,1192c5.8,19.2,0.8,38.7,3.2,58.7c-40.2,0-78.5,0-118.1,0c0-18.3-0.9-36,0.5-53.5
		c0.5-5.9-0.7-11.3-0.8-16.8c-0.2-9.1,2.8-11.9,11.9-11.8c34.4,0.5,68.8,0.2,103.6,0.2c3.8,7.3,3,14.6-0.4,21.9"/>
	<path class="st0" d="M-927.5,1296.6c-46.9,0-93.8,0-140.7,0.1c-4.7,0-9.5,0.8-14.2,1.2"/>
	<path class="st0" d="M-948.1,1190.8c-26.2,2.9-52.5,0.6-78.7,1.2c-10.8,0.3-21.5,0-32.3,0"/>
	<path class="st0" d="M-817.7,1233.4c-26.2,0-52.5,0-78.7,0"/>
	<path class="st0" d="M-936.5,1312.1c-25,0-49.9,0-74.9,0"/>
	<path class="st0" d="M-825.5,1247.6c-21.5,2.9-43,0.5-64.5,1.3"/>
	<path class="st0" d="M-890,1264.3c17.6,0,35.3-0.1,52.9,0.1c3.9,0,8-1.7,11.6,1.2"/>
	<path class="st0" d="M-954.6,1235.9c-21.5,0-43,0-64.5,0"/>
	<path class="st0" d="M-825.5,1299.2c-21.5-2.9-43-0.5-64.5-1.3"/>
	<path class="st0" d="M-954.6,1220.4c-21.5,0-43,0-64.5,0"/>
	<path class="st0" d="M-825.5,1281.1c-19.8,2.1-39.6,2.1-59.4,0.1c-1.7-0.2-3.4,0.8-5.2,1.2"/>
	<path class="st0" d="M-954.6,1205c-21.5,0-43,0-64.5,0"/>
	<path class="st0" d="M-825.5,1314.7c-20.7,0-41.3,0-62,0"/>
	<path class="st0" d="M-946.8,1325c-5.1-0.7-7.6,4.7-9.2,6.8c-5.5,7.4-10.6,5.3-16.7,2.2"/>
	<path class="st0" d="M-1061.7,1312.1c-4.7,1.2-7.3,3.3-7.9,9c-3.4,32.7-2.8,33.7,29.9,33.5c4.3,0,8.9,1.9,13.6-2.7
		c-0.3,0.6,0.5-0.3,0.5-1.1c0.1-12,0.1-24.1,0.1-37.2c-11.4-3.2-23.2-0.7-34.9-1.5"/>
	<path onmouseover="alert(&quot;this is your first darling&quot;);" class="st0" d="M-1100.5,1135.2c-5.9,0.6-5.1,5-5.2,9
		c-2.2,82.2-3.1,164.4-2.5,246.6c0,2.2,0.8,4.3,1.4,7.5c107.4,5.6,215.1,0,323.4,6.3c3.7-14.3,2.2-28.5,2.7-42.2
		c1.2-34,0.2-68,0.5-102c0.2-34.9,0.8-69.7,1.3-104.6c0-2.6,0.2-5.1,0.9-7.8c1.7-6.4-0.6-11.2-8.7-10.3c-1.7,0.2-3.4,0-5.2,0
		c-52.5-0.4-105,0.1-157.5-1.6c-49.9-1.6-99.8-0.3-149.8-1"/>
	<path class="st0" d="M-1043.7,1205c-9.7,4-3.1,12-5.5,17.7c7.6,2.6,14.3,1.2,22.7,2c-1.1-7.2,0.7-12.8-2.3-19.7
		c-4.1,0-8.9,0-13.6,0"/>
</g>
<g>
	<g>
		<path d="M-1266.7,1603.5c62.9,40,147.7,50.5,215.5,16.3c33.9-17.1,58.3-45.9,85.7-71.3c13.6-12.6,28.1-24.4,45-32.3
			c18.9-9,42.7-13.7,62.2-3.8c17.4,8.9,30.8,36.6,13.5,52.2c-6.7,6-17,8.6-25.7,5.9c-5.4-1.7-10-5.1-10.4-11.1
			c-0.5-6.8,2.6-13.6,7.2-18.4c-0.8-0.1-1.6-0.2-2.4-0.3c6,8.8,7.9,19.3,5.1,29.6c-0.5,1.9,2.4,2.7,2.9,0.8c2.9-11.1,1-22.5-5.4-32
			c-0.5-0.8-1.6-1-2.4-0.3c-5.7,6-10.7,17.1-7.4,25.5c2.3,5.8,10.4,9.2,16.1,9.9c15.2,2,30.2-7.8,32.8-23.1
			c3.1-18-9.1-35.7-25.3-42.7c-18.7-8.1-40.3-4.4-58.4,3.4c-37.6,16.1-63.3,50-93.2,76.5c-32.6,29-72.4,45.7-116,48.4
			c-48.2,3-97.1-10.1-137.9-36C-1266.9,1599.9-1268.4,1602.5-1266.7,1603.5L-1266.7,1603.5z"/>
	</g>
</g>
<circle class="st1" cx="-1442" cy="1305" r="21"/>
<g>
	<text transform="matrix(1 0 0 1 -735.653 1772.996)" class="st4 st5 st6">When we build,</text>
	<text transform="matrix(1 0 0 1 -479.4605 1857.3202)" class="st4 st7 st6">it matters.</text>
	<line class="st2" x1="-907.1" y1="1838.3" x2="-531.5" y2="1838.3"/>
	<line class="st2" x1="-365.2" y1="1677.4" x2="-181.6" y2="1677.4"/>
	<text transform="matrix(1 0 0 1 -925.672 1631.1796)" class="st8 st9">WE DON’T PLAY SOFTBALL.</text>
</g>
<rect x="-940.3" y="1835.1" class="st3" width="442" height="6.3"/>
<path class="st0" d="M361.8,492.1c12.3-10,12.9-24,11.4-37.7c-1.6-14.8-0.8-29,3-43.3c4.7-17.5,14.9-30.4,31.6-37.7
	c14.8-6.5,30.3-9.6,46.7-7.7c21.8,2.6,37,14.1,47.4,33c5.1,9.2,9.1,18.8,12.4,28.8c4.6,14.3,9.8,28.4,15.1,42.5
	c1.4,3.9,2.4,7.8-0.2,10.9c-3,3.6-7.4,2.9-11.5,1.5c-2.7-0.9-5.5-1.5-8.2-2.1c-11.5-2.6-14.8,1-17.9,11.6c-2.1,7.3-1.8,15-5.4,22
	c-9.8,19.3-25.4,25.6-46,17.8c-8.5-3.2-16.8-7.3-26.1-7.4c-24.2-0.3-39.7,13.1-50,33.6c-7.5,14.8-11.2,30.8-13.1,47.3
	c-2.3,19.9-5.2,39.8-6.7,59.7c-1.2,16.6,0.1,33.4,7.5,48.6c8.3,17.1,24,22.8,41.7,24c24.9,1.8,48.1-6.1,71.4-13.7
	c16.3-5.3,32.4-11.6,49.4-14.3c21.5-3.5,41.2,1.9,59,14.3c3.4,2.4,2,5.5,1.4,8.6"/>
<path class="st0" d="M405.7,1033.5c-4.6-5.5-3.9-17.6,2.1-23.3c10.8-10.3,21.8-20.3,32.9-30.2c11.8-10.6,23.9-20.9,35.6-31.6
	c20.5-18.8,40.8-37.9,61.1-56.9c2.5-2.3,5.2-4.5,6.9-8.2c11.6,7.6,21.5,16.4,30.2,26.7c25.1,29.6,42,63.8,56.2,99.5
	c5.9,14.9,11.2,29.9,13.2,46c3.1,25.4-8.8,46-33,55.6c-18.5,7.4-38.1,10-57.7,10.7c-27.9,1-55.8,0.7-83.7,0.9
	c-2.5,0-5.1,0.4-6.9-2.1"/>
<path class="st0" d="M567.7,851c16.4-32.5-4.6-71.6-41.9-72.2c-27-0.4-51.8,8-76.1,18.1c-30.9,12.8-61.1,26.9-92.1,39.5
	c-25.4,10.4-51.1,20-78.2,25.6c-2.4,0.5-4.5,1.7-6.2,3.4"/>
<path class="st0" d="M288.4,645.8c4,9.9,4.1,20.6,6.1,30.9c4,19.9,6.4,40.2,14.6,58.9c12.9,29.6,31.3,37.5,61.6,35.7
	c19.3-1.2,37.8-7.6,56.9-10.4c11.2-1.6,22.4-0.8,33.6-1.2c8.1-0.3,15.8-1.8,22.7-6.8c6.9-4.9,14.2-6.4,22.7-2.3
	c9,4.3,17.3,9.1,23.9,16.6"/>
<path class="st0" d="M539.6,765.9c-7,1.6-13.9,3.8-21.3,3.5c-21.4-0.7-42.6,1.8-63.8,3.9c-15.7,1.5-31.5,2.2-47.3,2.8
	c-39.1,1.6-78.2,3.8-117.3,2.7c-14.2-0.4-28.4-0.9-42.5-0.5c-16.2,0.5-32.4,1.9-47.4,9.4c-24.6,12.3-31.6,40.5-17.9,61.2
	c8.7,13.1,21.1,19.2,36.4,20.6c13.3,1.3,26.2-0.6,39.1-2.8c2.8-0.5,5.5-0.6,7.5-2.8"/>
<path class="st0" d="M711.1,1070.6c1.8,0.4,2.8-0.4,2-2c-4.4-9.8-9-19.5-13.5-29.1c-6.7,1.1-11.2,5.2-17.4,7
	c-9.9-18.9-19.6-38.4-30.2-57.5c-18.9-34.2-35.1-69.9-54.7-103.8c-16.9-29.3-41.5-45.2-74.9-48c-18.6-1.6-36.6,1.7-54.2,7.1
	c-26.6,8.1-52.1,19.5-78.3,28.5c-17.5,6-35.6,10.3-54.2,10.2c-22.5-0.2-43.4-5.6-63.5-17.3c-12.4-7.2-23.1-14.9-31.8-25.7
	c-11.1-13.8-16.7-29.6-17.2-47.3c-0.1-3.7,0-7.3,0-11"/>
<path class="st0" d="M538.2,757.6c1.7,12,2.5,12.9,14.4,15.1c22.2,4,40.9,14.1,56.4,30.8c22.3,24,38.9,51.8,55.4,79.8
	c20.3,34.5,40,69.4,59.8,104.3c5.4,9.4,10.1,19.2,15.3,29c-9.9,7.4-21,12.6-31.7,18.3c-2.8,1.5-6,2.3-7.6,5.5"/>
<path class="st0" d="M290.5,635.5c4.9-2.1,6.3-7.1,8.8-11c10.6-16.1,20.3-32.7,25.3-51.4c2.6-9.6,3.8-20-2.7-28.7
	c-9.9-13.1-26.6-13.5-37.6,1.3c-8.5,11.4-9,24.6-6.7,37.7c2.8,15.6,6.6,31.1,9.6,46.7c1,5.2,4.3,11.2,0.2,14.8
	c-4.8,4.3-7.4,9.7-10.6,14.8c-13.2,20.5-26.6,41-37.1,63.1c-8.2,17.4-14.1,35.7-16.5,54.9c-0.1,0.9,0.4,1.8,0.6,2.7"/>
<path class="st0" d="M425,1047.2c-3.5-4-8.9-6.1-11.7-10.9c-1.6-2.7-4.5-0.9-6.8-1.5c-3.2,7.9,0.1,15.7,0.8,23.4
	c1.3,13,6.2,24.8,15.6,34.4c2.6,2.7,5.5,3.5,9,3.4c6.3-0.3,12.5,0,18.5,2.1c6.5,2.3,11.3,6.3,12.4,13.7c0.7,5.2-1,7.6-6.2,7.5
	c-11.4-0.2-22.9-0.6-34.3-0.6c-3.5,0-5.5-2.1-7.5-4.2c-12.3-12.7-23.5-26.4-34.2-40.5c-2.5-3.3-5.6-5.9-7.8-9.5
	c-3-4.9-8.1-8.7-8-15.2c0-1.8-1.2-2.4-2.1-3.4c-6.8-7.3-13.7-14.7-20.6-22"/>
<path class="st0" d="M543.7,883.9c-12.8-10.4-27.8-13.2-43.9-13.9c-21.5-0.9-37.4,10.6-52.7,22.9c-23,18.5-44.8,38.3-65.3,59.6
	c-0.6,0.6-0.9,1.4-1.4,2c12.2,15,27.9,26.5,41.2,40.5"/>
<path class="st0" d="M860.7,1045.2c-2.2-9.5-13.4-14.1-24-9.6c-5.8,2.5-11.5,5.4-17.2,8.2c-18,8.8-36.7,7.9-55.6,4
	c-1.3-0.3-2.3-1.7-3.4-2.7"/>
<path class="st0" d="M863.5,1045.9c-4.7-0.4-8.1,2.8-11.6,4.9c-21.9,13-45.2,22.8-68.7,32.1c-4.4,1.7-8.7,3.7-13.1,5.5
	c-3.5,1.4-6.9,3-11,2.2c-2.7-0.5-5.1,1.2-7.6,2.5c-7.2,4-15,7.1-21.9,11.7"/>
<path class="st0" d="M595.1,750.1c10.7,0.6,20.4-2.7,25.1-12.5c4.4-9.1,4.2-19.3-1.1-28.7c-1-1.7-1.8-3.4-4.1-3.5
	c-9.1,6.5-8.4,23.3,1.3,35.7"/>
<path class="st0" d="M616.4,743.9c3.7,1.8,7.2,4.2,11,5.4c11,3.3,19.5-1.8,25.3-15c3.3-7.7,2.9-15.9,0.7-24
	c-0.6-2.2-2.3-3.7-4.6-4.3c-8.2,5.8-7.8,23.2,0.5,32.4"/>
<path class="st0" d="M545.7,735.7c0.7-0.7,1.4-2,2.1-2c11.4,0.4,22.9-2.4,34.3,0.5c9.1,2.3,12.7,8.4,12.1,16.6
	c-0.8,10.3-7.3,14.6-15.5,14.5c-12.8,0-25.6-0.9-38.4,0.6"/>
<path class="st0" d="M762.6,1035.6c4.6-3.6,7.2-10.7,15.1-8.5c0.8,8.3-6.6,14-17.7,13.3c-0.3-4.5-0.7-9.1-0.8-13.7
	c-0.1-3.9-0.8-8-5.5-7.3c-4,0.6-3.8,4.5-2.8,8c1.3,5.2,1.5,10.9,8.3,12.5c-0.1,0.8,0.4,1.9-0.7,2.6c-7.2,4.7-9.2,13.4-15,19.3
	c-7.6,7.8-16,11.8-26.9,9.5c-0.9-0.2-1.8,0-3.2,0c-1.1,18.6,13.1,29.8,21,44.4c8.8-3.1,16.6-7.8,23.9-13.1c2.9-2.1,2.1-7.6,5-10.8"
	/>
<path class="st0" d="M369.4,999.9c2.4,18,15.2,29.7,32.3,29.5"/>
<path class="st0" d="M508,727.4c-0.5,2.4,0.5,2.5,2.7,2.9c13.5,2.6,24.7,9.4,34.3,19.1"/>
<path class="st0" d="M565,731.6c-3-6-9-6.7-14.4-8.2c-7.2-1.9-14.3-5.2-21.9-2.1"/>
<path class="st0" d="M503.9,739.8c13,2.6,24,9.2,34.3,17.2c5.9-1.8,7.9-7.5,10.7-11.8c2.2-3.3-1.8-7.1-4-9.2
	c-5.5-5.1-11.8-9.4-17.9-13.6c-5.1-3.5-12.4-3.3-19-2.4"/>
<path class="st0" d="M398.2,975.9c-6.9,5.9-13.6,12.1-20.6,17.8c-3.5,2.8-7.8,4.3-12.2,5.9c-8.4,3-15.6,9-20.4,16.3
	c-3.7,5.8-8.9,10.1-13.1,15.9c5.4,5.4,11,10.6,16.1,16.2c4.5,5,11.9,2.5,16.5,6.8"/>
<path class="st0" d="M728.3,1025.3c4.3,11.4,11.1,20,24,22"/>
<path class="st0" d="M567.7,854.4c-6.8,10.2-14.2,19.9-22.6,28.8"/>
<path class="st0" d="M743.6,1169c-2.2-2.4-5.5,1.5-7.5-1.4"/>
<g onmouseover="alert(&quot;lulz 2&quot;);">
	<path class="st0" d="M1043.6,709.3c7.9,2.2,10.9,11.2,19.3,13c26.7,5.6,52.7,3.8,76.1-10.6c33.2-20.5,40.9-59.7,22.1-94
		c-12.7-23.2-30.1-40.2-58.1-41.2c-40.9-1.4-81.8-2.1-122.6-2.6c-27.1-0.4-54.3-1.2-81.3,0.2c-30.2,1.6-60.3,0.2-90.4,0.9
		c-2.1,0.1-4.4-0.6-6.4-1.3c-17-5.8-24.6-18.4-24.5-41.3c0.3-84.3,1.2-168.7,1-253c-0.1-20.3,17.8-38.6,37.7-37.6
		c26.2,1.2,52.5,1.8,78.7,1.4c77.5-1.2,154.9,5,232.4,2.4c22.2-0.8,39.5,17,39.1,39.1c-1.1,74.4-0.4,148.9-0.3,223.3
		c0,7.7,0.8,15.5,1.2,23.2"/>
	<path class="st0" d="M1015.2,373.6c-2.7,13.3-1,26.7-1.2,40c-0.3,21.1-0.1,42.2-0.1,64.5c27.9,0,55.9,0,85.2,0c0-34,0.6-68-0.5-102
		c-0.2-7,1.6-13.7,0.8-20.7c-0.7-6.6-2.6-9.2-9.4-9.1c-22.4,0.3-44.8,0.3-67.1,0c-6.8-0.1-9.7,2.4-9.1,9.1c0.5,5.6-1.2,11.5,2,16.8"
		/>
	<path class="st0" d="M986.8,436.9c4.5,5.5,2.4,12,2.5,18.1c0.3,17.9,0.1,35.7,0.1,54.2c-51.6,0-102-0.1-152.3,0.1
		c-7,0-9.8-3.1-8.9-9.2c2.8-19.8-0.4-39.6-0.1-59.4c0-1.5,1.2-3,1.2-4.5c-1.1-22.6-1.1-22.6,20.7-22.6c45.6,0,91.2,0,137.2,0
		c3.8,7.3,3,14.6-0.4,21.9"/>
	<path class="st0" d="M966.2,331c5.8,19.2,0.8,38.7,3.2,58.7c-40.2,0-78.5,0-118.1,0c0-18.3-0.9-36,0.5-53.5
		c0.5-5.9-0.7-11.3-0.8-16.8c-0.2-9.1,2.8-11.9,11.9-11.8c34.4,0.5,68.8,0.2,103.6,0.2c3.8,7.3,3,14.6-0.4,21.9"/>
	<path class="st0" d="M985.5,435.6c-46.9,0-93.8,0-140.7,0.1c-4.7,0-9.5,0.8-14.2,1.2"/>
	<path class="st0" d="M964.9,329.8c-26.2,2.9-52.5,0.6-78.7,1.2c-10.8,0.3-21.5,0-32.3,0"/>
	<path class="st0" d="M1095.3,372.4c-26.2,0-52.5,0-78.7,0"/>
	<path class="st0" d="M976.5,451.1c-25,0-49.9,0-74.9,0"/>
	<path class="st0" d="M1087.5,386.6c-21.5,2.9-43,0.5-64.5,1.3"/>
	<path class="st0" d="M1023,403.3c17.6,0,35.3-0.1,52.9,0.1c3.9,0,8-1.7,11.6,1.2"/>
	<path class="st0" d="M958.4,374.9c-21.5,0-43,0-64.5,0"/>
	<path class="st0" d="M1087.5,438.2c-21.5-2.9-43-0.5-64.5-1.3"/>
	<path class="st0" d="M958.4,359.4c-21.5,0-43,0-64.5,0"/>
	<path class="st0" d="M1087.5,420.1c-19.8,2.1-39.6,2.1-59.4,0.1c-1.7-0.2-3.4,0.8-5.2,1.2"/>
	<path class="st0" d="M958.4,344c-21.5,0-43,0-64.5,0"/>
	<path class="st0" d="M1087.5,453.7c-20.7,0-41.3,0-62,0"/>
	<path class="st0" d="M966.2,464c-5.1-0.7-7.6,4.7-9.2,6.8c-5.5,7.4-10.6,5.3-16.7,2.2"/>
	<path class="st0" d="M851.3,451.1c-4.7,1.2-7.3,3.3-7.9,9c-3.4,32.7-2.8,33.7,29.9,33.5c4.3,0,8.9,1.9,13.6-2.7
		c-0.3,0.6,0.5-0.3,0.5-1.1c0.1-12,0.1-24.1,0.1-37.2c-11.4-3.2-23.2-0.7-34.9-1.5"/>
	<path onmouseover="alert(&quot;this is your first darling&quot;);" class="st0" d="M812.5,274.2c-5.9,0.6-5.1,5-5.2,9
		c-2.2,82.2-3.1,164.4-2.5,246.6c0,2.2,0.8,4.3,1.4,7.5c107.4,5.6,215.1,0,323.4,6.3c3.7-14.3,2.2-28.5,2.7-42.2
		c1.2-34,0.2-68,0.5-102c0.2-34.9,0.8-69.7,1.3-104.6c0-2.6,0.2-5.1,0.9-7.8c1.7-6.4-0.6-11.2-8.7-10.3c-1.7,0.2-3.4,0-5.2,0
		c-52.5-0.4-105,0.1-157.5-1.6c-49.9-1.6-99.8-0.3-149.8-1"/>
	<path class="st0" d="M869.3,344c-9.7,4-3.1,12-5.5,17.7c7.6,2.6,14.3,1.2,22.7,2c-1.1-7.2,0.7-12.8-2.3-19.7c-4.1,0-8.9,0-13.6,0"
		/>
</g>
<g>
	<g>
		<path d="M646.3,742.5c62.9,40,147.7,50.5,215.5,16.3c33.9-17.1,58.3-45.9,85.7-71.3c13.6-12.6,28.1-24.4,45-32.3
			c18.9-9,42.7-13.7,62.2-3.8c17.4,8.9,30.8,36.6,13.5,52.2c-6.7,6-17,8.6-25.7,5.9c-5.4-1.7-10-5.1-10.4-11.1
			c-0.5-6.8,2.6-13.6,7.2-18.4c-0.8-0.1-1.6-0.2-2.4-0.3c6,8.8,7.9,19.3,5.1,29.6c-0.5,1.9,2.4,2.7,2.9,0.8c2.9-11.1,1-22.5-5.4-32
			c-0.5-0.8-1.7-1-2.4-0.3c-5.7,6-10.7,17.1-7.4,25.5c2.3,5.8,10.4,9.2,16.1,9.9c15.2,2,30.2-7.8,32.8-23.1
			c3.1-18-9.1-35.7-25.3-42.7c-18.7-8.1-40.3-4.4-58.4,3.4c-37.6,16.1-63.3,50-93.2,76.5c-32.6,29-72.4,45.7-116,48.4
			c-48.2,3-97.1-10.1-137.9-36C646.1,738.9,644.6,741.5,646.3,742.5L646.3,742.5z"/>
	</g>
</g>
<circle class="st1" cx="471" cy="444" r="21"/>
<g>
	<text transform="matrix(1 0 0 1 1177.347 911.9959)" class="st4 st5 st6">When we build,</text>
	<text transform="matrix(1 0 0 1 1433.5394 996.3201)" class="st4 st7 st6">it matters.</text>
	<line class="st2" x1="1005.9" y1="977.3" x2="1381.5" y2="977.3"/>
	<line class="st2" x1="1547.8" y1="816.4" x2="1731.4" y2="816.4"/>
	<text transform="matrix(1 0 0 1 987.328 770.1795)" class="st8 st9">WE DON’T PLAY SOFTBALL.</text>
</g>
<rect x="972.7" y="974.1" class="st3" width="442" height="6.3"/>
<g>
	<g>
		<path d="M978.2,1081.6c11.7,71.2,18,147.6-3.6,217.6c-10.6,34.2-28.6,66-54.8,90.6c-26.9,25.3-60.7,41.5-96.5,49.7
			c-73.5,16.9-151.3,4.5-224.2-9.9c-16.8-3.3-34.7-6.6-49.5-15.8c-7.8-4.8-14.5-11.4-17.8-20.1c-4.7-12.2-1.5-25.3,0.4-37.6
			c4.1-26.2-3.4-48.6-29-59.5c-21.7-9.2-48.4-7.7-69,3.7c-27.5,15.3-40.9,48.2-46.8,77.5c-8.2,40.3-7.1,82.6-8.7,123.5
			c-1.5,38.4-6.7,81.3,14.2,115.7c30.8,50.7,99.2,57.3,152.5,49.9c35.8-4.9,70.3-17.3,103.4-31.3c37.9-15.9,74.3-35.2,109.5-56.3
			c144.3-86.6,270.2-204,428.1-267c39.2-15.6,79.9-27.7,121.7-34c41.5-6.3,86-8.2,127.3,0.7c42.1,9,74.3,33.6,92.1,73
			c15.8,35,20.6,75.1,19.5,113.2c-2.1,75.7-30.9,150.5-79.9,208.1c-49.6,58.2-119.4,95.7-194.6,108c-38.7,6.3-78.7,6-117.2-1.4
			c-18.7-3.6-37-8.8-54.7-15.7c-19.7-7.7-41.1-17.8-49.7-38.5c-7.9-19.2-5.7-42.8-3.5-63c2.3-21.2,7-42.1,13.6-62.4
			c12.6-39.4,32-76.3,54.1-111.1c47.3-74.3,106-142.2,165.1-207.2c58.2-63.9,119.2-127.6,187.2-181.2c63.4-50,139.1-92.6,222.1-92
			c17.8,0.1,43,0.8,53.2,18.4c5.8,10,4.7,22.6,4.5,33.7c-0.2,11.4-0.6,22.9-1.2,34.3c-2.2,43.8-7.2,87.5-14.8,130.7
			c-15,84.8-40.3,167.9-75.2,246.7c-17.6,39.7-37.6,78.3-60,115.6c-11.1,18.5-22.6,36.9-37.2,52.9c-15,16.5-33.5,28.7-52.4,40.3
			c-74.7,45.6-140.7,103.8-208.2,159.2c-66.3,54.5-132.2,109.4-196.8,165.9c-127.7,111.6-250.7,229.5-359.3,360.1
			c-27,32.5-53,65.7-78,99.7c-6.1,8.3-12.1,16.6-18,24.9c-6.4,9-12.6,19.7-22.6,25.1c-12.1,6.6-25,1.5-36.7-3.1
			c-11.4-4.4-22.7-8.9-34.1-13.4c-89.6-35.2-179.3-70.3-268.9-105.5c-44.2-17.4-88.4-34.7-132.6-52.1c-22.5-8.8-46.3-16.3-68.1-26.7
			c-6.3-3-4.5-4.1-1-9.7c2.4-3.8,5-7.5,7.7-11.1c6.5-8.7,14-16.6,22-24c28.9-26.7,64.3-45.2,99.2-62.7
			c39.7-19.9,80.4-37.8,121.8-53.8c162.4-62.5,336.4-94.7,510.4-94.1c42.7,0.1,86.5,0.5,128.7,7.2c19.4,3.1,38.9,8.3,55.8,18.6
			c17.9,10.9,31.2,27.3,40.3,46.1c19.4,39.8,23.7,87.3,23.7,130.9c0,47.8-6.9,95.3-16,142.1c-17.5,90.1-41.8,179-72,265.6
			c-14.5,41.6-30.1,83.1-48,123.4c-15.9,35.9-34.3,71.1-58.5,102.1c-11.9,15.3-25.2,29.5-40.1,41.9c-5.5,4.6-14,8.8-15.1-1.6
			c-0.3-3.2,0.7-6.7,1.8-9.6c3.6-9.6,11-15.7,19.3-21.2c27.2-18,59.1-27,90.5-34.8c58.5-14.5,126.6-26.1,159.7-82.9
			c19.3-33.1,24.5-72.2,37.4-107.8c12.5-34.4,30-66.9,51.4-96.5c42.8-59.2,101.7-107.1,169-135.9c66.8-28.5,152.6-42.4,214.9,4.1
			c0.1-0.9,0.2-1.8,0.4-2.7c-85.5,13.3-164.3-42-230.1-89.4c-67.8-48.9-133.4-103.8-189.7-165.7c-26.3-28.9-50.4-61.4-62.2-99.1
			c-5.8-18.5-6.8-37.1-8.4-56.3c-1.3-15.5-4-31.5-14.1-43.9c-11.5-14.2-29.8-21.7-45.7-29.7c-20.1-10.1-40.3-19.8-60.7-29.3
			c-19.1-8.8-38.2-18-57.8-25.6c-16.4-6.3-32.9-8.6-48.9-0.2c-14.1,7.4-26.1,19.8-36.9,31.4c-9.6,10.3-18.4,21.4-26.4,33.1
			c-16.5,24.3-29.3,51-38.3,79c-18.3,57.1-21,119.2-8.1,177.8c12.7,57.5,41,112.4,84.3,152.8c12,11.2,26,21.5,43,22.7
			c18.3,1.3,35.6-7.1,51-16c39.1-22.6,77.2-47.1,115.7-70.7c78.5-48,156.9-96.1,235.4-144.1c39.5-24.2,79-48.4,118.5-72.6
			c18.5-11.3,36.8-23.1,55.6-33.9c18.2-10.5,39.7-20.6,61.3-16.6c18.1,3.3,35.3,15.9,37.5,35.2c0.2,1.9,3.2,1.9,3,0
			c-3.1-27.8-33-41.8-58.4-38.4c-17.8,2.3-33.9,10.8-49.1,19.8c-18.9,11.2-37.5,22.9-56.3,34.4c-77.4,47.4-154.7,94.7-232.1,142.1
			c-77,47.1-153.2,95.7-231.1,141.4c-18.8,11.1-41.1,21.6-63.2,13.8c-18.1-6.4-32.6-22.2-45.1-36.2c-20.2-22.7-36.4-48.8-48.5-76.7
			c-48.6-112.7-30.3-256.3,55.2-346.6c12.2-12.9,26.5-28.1,44.2-32.9c22.6-6.2,46.8,8.3,66.7,17.3c20.5,9.2,40.9,18.6,61.1,28.4
			c18.1,8.8,37,17.1,54.2,27.7c20.9,12.8,28.6,31.4,30.8,55.1c1.6,17.3,2.1,34.3,6.6,51.2c9,34,28.4,64.2,50.6,91.1
			c24.8,30,53.4,57.1,82.2,83.4c29.8,27.2,60.7,53,92.8,77.4c32.9,25.1,66.8,49.5,102.5,70.5c33.1,19.5,69.1,36.2,107.5,41.7
			c17.4,2.5,34.9,2.4,52.2-0.3c1.4-0.2,1.3-2.1,0.4-2.7c-75-56.1-181.9-27.1-256.3,14.9c-77.4,43.7-140.3,113.1-175.3,194.8
			c-9.1,21.3-15.6,43.3-21.9,65.6c-6.7,24.2-13.9,48.9-28.3,69.8c-24.8,36-66.5,51.6-107.1,62.3c-38.5,10.2-78.6,16.8-114.9,34
			c-15.4,7.3-34.3,16.6-41.7,32.9c-2.9,6.4-5.7,25.7,7,24.7c2.8-0.2,8.3-6.4,10.3-8.1c4.7-4,9.3-8.1,13.7-12.4
			c8.8-8.5,17-17.7,24.6-27.3c14.9-18.7,27.6-39,38.9-60c24.3-45.1,42.8-93.4,60.3-141.5c39.9-109,71.9-222.6,89.6-337.4
			c8.5-55.3,12.1-111.9,3-167.3c-7.5-45.5-24.2-93.3-68.1-115.3c-19.6-9.8-41.4-14-62.9-16.5c-26.7-3-53.7-4.1-80.5-4.9
			c-54.4-1.5-108.8,0.1-163,4.9c-108.5,9.6-215.8,31.8-319.2,66c-50.7,16.7-100.3,36.4-148.8,58.8c-45.1,20.9-92.4,42.7-130.5,75.2
			c-16.9,14.4-31.5,31.3-42.2,50.8c-0.5,0.9,0,1.8,0.9,2.2c129.1,50.6,258.1,101.3,387.2,151.9c32.9,12.9,65.7,25.8,98.6,38.7
			c23.4,9.2,52.2,27.3,73.4,5.2c9.3-9.7,16.4-21.8,24.3-32.6c9-12.5,18.2-24.8,27.5-37c19.2-25.2,38.9-50,59.2-74.4
			c78.7-94.5,164.9-182.4,255-266c90.9-84.4,185.7-164.6,281.5-243.4c48.5-40,96.7-80.5,146.3-119.1c26.5-20.6,54.2-39.1,82.8-56.7
			c24.9-15.3,46.5-32.3,64-55.9c18.1-24.4,33.1-51.5,47.5-78.2c14.9-27.7,28.6-56,41-84.9c24-55.8,43.2-113.6,57.4-172.6
			c14.2-59,23.4-119.3,27.3-179.8c1-15.4,1.7-30.8,2-46.2c0.2-12.2,1.6-26-4.1-37.2c-10.5-20.3-38.3-21.2-58.1-21.2
			c-114.4-0.1-211.8,77.6-290.7,152.4c-92.3,87.6-179.7,182.8-254.8,285.7c-34.2,46.9-65.1,97.2-83.4,152.5
			c-8.8,26.6-14.5,54.3-16,82.4c-1.3,25.8,0,52.4,21.7,69.8c19.6,15.7,46.8,23.8,70.7,29.9c25.3,6.5,51.4,9.8,77.6,10.2
			c52.3,0.7,104.8-10.6,152-33.2c94.9-45.4,161.2-137.5,179.8-240.5c9-49.7,7.9-104-9.6-151.8c-8.5-23.1-21.5-45.1-40.7-60.8
			c-21.1-17.2-47.7-25.4-74.3-29.1c-117.2-16.3-235.2,28.5-335.6,85C978.2,1418.4,884,1496.9,780.9,1562
			c-51.4,32.4-105.1,61.6-162.3,82.4c-46.2,16.8-95.7,28-144.9,19.1c-21.8-3.9-43.3-12-60.2-26.6c-21.9-19-31.2-46.1-32.9-74.4
			c-2-32.9,1.3-66.5,2.5-99.5c1.1-29.1,1.5-58.7,7.7-87.3c5.7-25.8,17.1-53.8,39.5-69.5c16.8-11.7,39.4-15.1,59.2-10.8
			c18.9,4.1,37,16.4,40.5,36.7c4.3,25-13.1,51.4,5.3,73.7c14.3,17.2,39.2,22,59.9,26.1c25.4,5.1,51,9.7,76.7,13
			c51.6,6.7,105.1,9.1,156-3.5c46.9-11.6,89.1-37.4,117.6-76.7c28.5-39.3,40.8-87.6,44.5-135.4c3.8-49.6-1.2-99.6-9.2-148.6
			C980.7,1078.9,977.8,1079.7,978.2,1081.6L978.2,1081.6z"/>
	</g>
</g>
</svg>
