<?xml version="1.0" encoding="utf-8"?>
<!-- Generator: Adobe Illustrator 19.2.1, SVG Export Plug-In . SVG Version: 6.00 Build 0)  -->
<svg version="1.1" id="Layer_1" xmlns="http://www.w3.org/2000/svg" xmlns:xlink="http://www.w3.org/1999/xlink" x="0px" y="0px"
	 viewBox="0 0 668.1 131.7" style="enable-background:new 0 0 668.1 131.7;" xml:space="preserve">
<style type="text/css">
	.st0{stroke:#000000;stroke-miterlimit:10;}
	.st1{stroke:#000000;stroke-width:0.88;stroke-miterlimit:10;}
	.st2{stroke:#000000;stroke-width:0.35;stroke-miterlimit:10;}
	.st3{fill:#EA8913;}
	.st4{fill:#2222B2;}
	.st5{fill:#0A5616;}
</style>
<title>logo</title>
<g>
	<path class="st0" d="M46.2,35c-1.1,8-4.9,14.9-11.3,18.5l1.1,1.1C42.5,50.7,46.5,44,47.7,35H46.2z M45,18h1.5
		c-0.2-6-7.3-17.5-21.8-17.5C11,0.5,3.5,9.2,0.6,19.1l1.3,1.3C4.5,11.2,11.3,2,24.7,2C36.6,2,44.3,10,45,18L45,18z"/>
	<path class="st1" d="M69.3,16.3c11.5,0,17.7,9.9,17.7,20.6s-6.2,20.6-17.7,20.6s-17.7-9.8-17.7-20.6S57.8,16.3,69.3,16.3z
		 M69.3,55.9c10.5,0,16.1-9.1,16.1-19c0-9.8-5.7-19-16.1-19c-10.6,0-16.2,9.2-16.2,19C53.1,46.8,58.7,55.9,69.3,55.9z"/>
	<path class="st1" d="M93.3,17.2h1.5V27H95c1.4-6,6.4-10.6,12.5-10.6c6.1-0.1,10.5,3.4,11.8,9.2h0.1c1.6-5.5,6.7-9.3,12.5-9.2
		c9.5,0,12.5,5.9,12.5,14.4v25.8h-1.5V30.7c0-7.8-2.4-12.8-10.9-12.8c-7.7,0-12.2,6.4-12.3,13.8v24.9h-1.6V31.3
		c0.1-7.3-1.8-13.5-10.6-13.5c-7.8,0-12.7,7.7-12.7,16.4v22.2h-1.5L93.3,17.2L93.3,17.2z"/>
	<path class="st1" d="M154.3,70.1h-1.5V17.2h1.5v11h0.1c1.9-7.1,8.4-12,15.8-11.9c10.4,0,16.7,8.6,16.7,20.5
		c0,11-5.9,20.6-16.7,20.6c-8.3,0-13.9-4.8-15.8-11.9h-0.1V70.1z M185.4,36.8c0-10.1-5-19-15.2-19s-15.9,8.8-15.9,19
		c0,12.2,6.3,19.1,15.9,19.1C181,55.9,185.4,45.9,185.4,36.8z"/>
	<path class="st1" d="M223.6,56.5h-1.6v-9.7h-0.1c-1.4,6-6.4,10.6-14.1,10.6c-8.2,0-14-5-14-14.1V17.2h1.5v25.8
		c0,9.1,5.8,12.8,12.5,12.8c9.4,0,14.3-7.7,14.3-16.4V17.2h1.5L223.6,56.5L223.6,56.5z"/>
	<path class="st1" d="M236.2,18.8v30.1c0,5.9,2.9,6.1,5.3,6.1c1.1,0,2.3,0,3.4-0.2v1.5c-1.2,0.2-2.5,0.2-3.8,0.2
		c-3.6,0-6.4-1.8-6.4-7.3V18.8h-7.3v-1.5h7.3V4.9h1.5v12.4h8.8v1.5H236.2L236.2,18.8z"/>
	<path class="st1" d="M249.7,37.2c0.1,10.6,4.4,18.7,15.5,18.7c8.1,0,14.1-4.5,15.4-13h1.5c-1.1,9-7.8,14.5-16.7,14.5
		c-12.1,0.2-17.2-8.9-17.2-20.6c0-13.1,8.3-20.6,17.2-20.6c12.2,0,17.7,10.1,17.2,20.9L249.7,37.2L249.7,37.2z M281.1,35.7
		c0.1-9.6-5.4-17.8-15.5-17.8c-8.5,0-15.3,6.8-15.8,17.8H281.1z"/>
	<path class="st1" d="M290.2,56.5h-1.5V17.2h1.5V27h0.1c1.4-5.8,6-10.9,15.4-10.6v1.5c-10.8-0.5-15.6,7.9-15.6,16.4L290.2,56.5
		L290.2,56.5z"/>
	<path class="st1" d="M366.1,17.2c-0.4-11.2-7.9-15.1-17.7-15.1c-7.7,0-17.1,2.8-17.1,12.5s9.5,11,18.8,13.2
		c10.2,2.6,18.6,3.8,18.6,15.2c0,10.3-9.9,14.7-19.3,14.7c-12.4,0-21.6-5.7-21.3-19.4h1.5c0,13.1,8.2,17.9,19.8,17.9
		c8.6,0,17.7-3.8,17.7-13.2c0-11-10.7-11.9-19.1-14c-8.9-2.1-18.3-3.7-18.3-14.4c0-10.9,9.9-14.1,18.6-14.1
		c10.7,0,18.7,4.4,19.3,16.6L366.1,17.2L366.1,17.2z"/>
	<path class="st1" d="M392.1,16.3c11.5,0,17.7,9.9,17.7,20.6s-6.2,20.6-17.7,20.6s-17.7-9.8-17.7-20.6S380.5,16.3,392.1,16.3z
		 M392.1,55.9c10.5,0,16.1-9.1,16.1-19c0-9.8-5.7-19-16.1-19c-10.6,0-16.2,9.2-16.2,19C375.9,46.8,381.4,55.9,392.1,55.9z"/>
	<path class="st1" d="M447.7,43.2c-0.8,8.8-7.2,14.3-16.1,14.3c-11.2,0-17.4-9-17.4-19.7c0-11.4,5.7-21.4,18.3-21.4
		c7.3,0,13.8,4.5,14.8,12.8h-1.5c-1.2-7.6-6.8-11.3-13.3-11.3c-12.5,0-16.8,10.6-16.8,19.9c0,9.6,5.5,18.2,15.9,18.2
		c7.7,0,13.9-4.9,14.5-12.8H447.7z"/>
	<path class="st1" d="M455.8,9.7h-1.5V2h1.5V9.7z M455.8,56.5h-1.5V17.2h1.5V56.5L455.8,56.5z"/>
	<path class="st1" d="M463.4,37.2c0.1,10.6,4.4,18.7,15.5,18.7c8.1,0,14.1-4.5,15.4-13h1.5c-1.1,9-7.8,14.5-16.7,14.5
		c-12.1,0.2-17.2-8.9-17.2-20.6c0-13.1,8.3-20.6,17.2-20.6c12.2,0,17.7,10.1,17.2,20.9C496.3,37.2,463.4,37.2,463.4,37.2z
		 M494.8,35.7c0.1-9.6-5.4-17.8-15.5-17.8c-8.5,0-15.3,6.8-15.8,17.8H494.8z"/>
	<path class="st1" d="M506.6,18.8v30.1c0,5.9,2.9,6.1,5.3,6.1c1.1,0,2.3,0,3.4-0.2v1.5c-1.2,0.2-2.5,0.2-3.8,0.2
		c-3.6,0-6.4-1.8-6.4-7.3V18.8h-7.3v-1.5h7.2V4.9h1.5v12.4h8.9v1.5H506.6L506.6,18.8z"/>
	<path class="st1" d="M547.1,17.2h1.6l-18.1,47.3c-2.1,5.3-5.7,5.5-10.4,5.5v-1.6c5.2,0.1,7.3-0.3,9.2-5l2.8-7.3l-16.4-38.9h1.7
		L533,54.5L547.1,17.2z"/>
	<path class="st0" d="M108.3,91l-9.8,26l0.6,0.7v-0.1L109.2,91L108.3,91L108.3,91z M83.3,91l6.9,17.7v0.1l1.5,1.4L84.2,91H83.3
		L83.3,91z"/>
	<path class="st2" d="M115.1,91.2h0.9v32.3h-0.9V91.2z"/>
	<path class="st2" d="M122,92.1v-0.9h24.2v0.9h-11.6v31.4h-0.9V92.1H122L122,92.1z"/>
	<path class="st2" d="M188.1,91.2h0.9v20.2c0,8.6-4.2,12.8-11.9,12.8s-11.9-4.2-11.9-12.8V91.2h0.9v20.2c0,7.7,3.6,11.9,10.9,11.9
		s10.9-4.2,10.9-11.9V91.2z"/>
	<path class="st2" d="M195.9,100.3h0.9v5.8h0.1c0.9-3.9,4.4-6.5,8.4-6.3c4.8,0,8.3,3,8.3,8.4v15.4h-0.9v-15.3c0-5.4-3.4-7.6-7.4-7.6
		c-5.6,0-8.5,4.6-8.5,9.7v13.2h-0.9L195.9,100.3L195.9,100.3z"/>
	<path class="st2" d="M221.5,95.8h-0.9v-4.6h0.9V95.8z M221.5,123.5h-0.9v-23.2h0.9V123.5z"/>
	<path class="st2" d="M243.9,100.3h1l-8.8,23.2h-1.1l-9.6-23.2h1.1l9,22.3h0.1L243.9,100.3z"/>
	<path class="st2" d="M248.4,112.1c0.1,6.2,2.6,11.1,9.2,11.1c4.8,0,8.3-2.7,9.1-7.7h0.9c-0.6,5.3-4.6,8.6-9.9,8.6
		c-7.2,0.1-10.2-5.2-10.2-12.2c0-7.7,4.9-12.2,10.2-12.2c7.2,0,10.4,6,10.2,12.3C267.8,112.1,248.4,112.1,248.4,112.1z M266.9,111.2
		c0-5.7-3.2-10.5-9.2-10.5c-5,0-9,4-9.4,10.5H266.9z"/>
	<path class="st2" d="M274.4,123.5h-0.9v-23.2h0.9v5.8h0.1c0.9-3.4,3.6-6.5,9.1-6.3v0.9c-6.4-0.3-9.2,4.7-9.2,9.7V123.5L274.4,123.5
		z"/>
	<path class="st2" d="M302.3,107.2c0-4.7-3.1-6.5-7.5-6.5c-6.5,0-7,4.1-7,4.9c-0.2,1.8,0.9,3.5,2.6,4.1c1.6,0.6,3.5,1,6,1.7
		c3.6,0.9,7.5,1.8,7.5,6.2c0,4.7-4.4,6.5-8.4,6.5c-6.1,0-9.4-2.7-9.4-8.5h0.9c0,5.2,3.1,7.6,8.5,7.6c3.4,0,7.5-1.5,7.5-5.5
		s-4-4.8-8-5.8c-1.8-0.4-3.5-0.9-5.2-1.6c-1.9-0.8-2.8-2.3-2.8-4.8s2.1-5.8,7.9-5.8c5.2,0,8.4,2.3,8.4,7.4L302.3,107.2L302.3,107.2z
		"/>
	<path class="st2" d="M311,95.8h-0.9v-4.6h0.9L311,95.8L311,95.8z M311,123.5h-0.9v-23.2h0.9L311,123.5L311,123.5z"/>
	<path class="st2" d="M320.5,101.2V119c0,3.5,1.7,3.6,3.1,3.6c0.7,0,1.3,0,2-0.1v0.9c-0.7,0.1-1.5,0.1-2.2,0.1c-2.1,0-3.8-1-3.8-4.3
		v-18h-4.3v-0.9h4.3V93h0.9v7.3h5.2v0.9C325.7,101.2,320.5,101.2,320.5,101.2z"/>
	<path class="st2" d="M346.4,100.3h0.9l-10.7,28c-1.2,3.2-3.4,3.3-6.1,3.3v-0.9c3.1,0,4.3-0.2,5.4-3l1.7-4.3l-9.7-23h1l9.2,22
		L346.4,100.3z"/>
	<path class="st2" d="M386.1,100.3c-0.2-6.6-4.7-8.9-10.5-8.9c-4.6,0-10.1,1.6-10.1,7.4s5.6,6.5,11.1,7.8c6,1.5,11,2.3,11,9
		c0,6.1-5.9,8.7-11.4,8.7c-7.3,0-12.8-3.3-12.6-11.5h0.9c0,7.7,4.8,10.6,11.7,10.6c5.1,0,10.5-2.3,10.5-7.8c0-6.5-6.3-7.1-11.3-8.3
		c-5.2-1.2-10.9-2.2-10.9-8.5s5.8-8.3,11-8.3c6.3,0,11.1,2.6,11.4,9.8L386.1,100.3L386.1,100.3z"/>
	<path class="st2" d="M396.7,101.2V119c0,3.5,1.7,3.6,3.1,3.6c0.7,0,1.3,0,2-0.1v0.9c-0.7,0.1-1.5,0.1-2.2,0.1c-2.1,0-3.8-1-3.8-4.3
		v-18h-4.3v-0.9h4.3V93h0.9v7.3h5.2v0.9C401.9,101.2,396.7,101.2,396.7,101.2z"/>
	<path class="st2" d="M424.7,123.5h-0.9v-5.8h-0.1c-0.9,3.9-4.4,6.5-8.4,6.3c-4.8,0-8.3-3-8.3-8.4v-15.4h0.9v15.3
		c0,5.4,3.4,7.6,7.4,7.6c5.6,0,8.5-4.6,8.5-9.7v-13.2h0.9L424.7,123.5L424.7,123.5z"/>
	<path class="st2" d="M449.8,91.2h0.9v32.3h-0.9V117h-0.1c-1.1,4.2-5,7.1-9.3,7.1c-6.1,0-9.9-5.1-9.9-12.1c0-6.5,3.5-12.2,9.9-12.2
		c4.4-0.2,8.3,2.8,9.3,7.1h0.1V91.2z M440.4,100.7c-6.4,0-9,5.9-9,11.3c0,6,3,11.2,9,11.2s9.4-5.2,9.4-11.2
		C449.8,104.8,446,100.7,440.4,100.7z"/>
	<path class="st2" d="M457.5,112.1c0.1,6.2,2.6,11.1,9.2,11.1c4.8,0,8.3-2.7,9.1-7.7h0.9c-0.6,5.3-4.6,8.6-9.9,8.6
		c-7.2,0.1-10.2-5.2-10.2-12.2c0-7.7,4.9-12.2,10.2-12.2c7.2,0,10.4,6,10.2,12.3C477,112.1,457.5,112.1,457.5,112.1z M476.1,111.2
		c0-5.7-3.2-10.5-9.2-10.5c-5,0-9,4-9.4,10.5H476.1L476.1,111.2z"/>
	<path class="st2" d="M482.6,100.3h0.9v5.8h0.1c0.9-3.9,4.4-6.5,8.4-6.3c4.8,0,8.3,3,8.3,8.4v15.4h-0.9v-15.3c0-5.4-3.4-7.6-7.4-7.6
		c-5.6,0-8.5,4.6-8.5,9.7v13.2h-0.9L482.6,100.3L482.6,100.3z"/>
	<path class="st2" d="M509.7,101.2V119c0,3.5,1.7,3.6,3.1,3.6c0.7,0,1.3,0,2-0.1v0.9c-0.7,0.1-1.5,0.1-2.2,0.1c-2.1,0-3.8-1-3.8-4.3
		v-18h-4.3v-0.9h4.3V93h0.9v7.3h5.2v0.9C514.9,101.2,509.7,101.2,509.7,101.2z"/>
	<path class="st2" d="M533,91.2h13.9c5.1,0,9.1,2.7,9.1,8.1c0,3.9-3,7.1-6.8,7.4v0.1c4.3-0.1,7.8,3.4,7.8,7.6c0,0.1,0,0.3,0,0.4
		c0,5.8-4.4,8.8-10.6,8.8H533V91.2z M533.9,106.2h13c4.3,0,8.2-2.3,8.2-7c0-4.9-3.6-7.2-8.2-7.2h-13V106.2L533.9,106.2z
		 M533.9,122.6h12.9c5.2,0,9.3-2.5,9.3-7.8c0-5.7-4.6-7.7-9.2-7.7h-13L533.9,122.6L533.9,122.6z"/>
	<path class="st2" d="M563.9,123.5H563v-23.2h0.9v5.8h0.1c0.9-3.4,3.6-6.5,9.1-6.3v0.9c-6.4-0.3-9.2,4.7-9.2,9.7V123.5L563.9,123.5z
		"/>
	<path class="st2" d="M576.7,107.5c0.2-4.4,3.1-7.7,8.9-7.7c4.1,0,7.6,1.6,7.7,6.7v14.8c0,1.8,1.7,1.6,2.9,1.4v0.9
		c-1.8,0.1-3.9,0.1-3.9-2.3v-3h-0.1c-0.9,3-4.4,5.8-9.2,5.8c-4.6,0-7.8-2.2-7.8-6.3c0-5.8,4.1-6.7,8-7c6.4-0.4,9.1-0.2,9.1-3.8
		c0-2.8-0.6-6.4-6.8-6.4c-4.8,0-7.6,2.5-8,6.8L576.7,107.5L576.7,107.5z M592.3,109.9L592.3,109.9c-1.3,1.8-5.3,1.6-9.1,1.8
		s-7.1,1.1-7.1,6.1c0,2.7,1.7,5.4,6.8,5.4c6.1,0,9.4-4.4,9.4-9L592.3,109.9L592.3,109.9z"/>
	<path class="st2" d="M600.4,100.3h0.9v5.8h0.1c0.9-3.9,4.4-6.5,8.4-6.3c4.8,0,8.3,3,8.3,8.4v15.4h-0.9v-15.3c0-5.4-3.4-7.6-7.4-7.6
		c-5.6,0-8.5,4.6-8.5,9.7v13.2h-0.9L600.4,100.3L600.4,100.3z"/>
	<path class="st2" d="M643.8,115.6c-0.5,5.2-4.2,8.5-9.5,8.5c-6.6,0-10.3-5.3-10.3-11.7c0-6.7,3.4-12.7,10.9-12.7
		c4.3,0,8.2,2.7,8.8,7.6h-0.9c-0.4-4-3.9-6.9-7.9-6.7c-7.4,0-10,6.3-10,11.8c0,5.7,3.3,10.8,9.4,10.8c4.6,0,8.2-2.9,8.6-7.6
		L643.8,115.6L643.8,115.6z"/>
	<path class="st2" d="M649.7,91.2h0.9V106h0.1c0.9-3.9,4.4-6.5,8.4-6.3c4.8,0,8.3,3,8.3,8.4v15.4h-0.9v-15.3c0-5.4-3.4-7.6-7.4-7.6
		c-5.6,0-8.5,4.6-8.5,9.7v13.2h-0.9L649.7,91.2L649.7,91.2z"/>
	<g id="_Group_">
		<g id="_Group_2">
			<polygon class="st3" points="597.1,69.3 562.5,34.9 528,0.5 597.1,0.5 			"/>
		</g>
		<g id="_Group_3">
			<polygon class="st4" points="632.1,69.3 600.1,36.6 600.1,0.5 632.1,0.5 			"/>
		</g>
		<g id="_Group_4">
			<polygon class="st5" points="668.1,69.3 635.1,36.6 635.1,0.5 668.1,0.5 			"/>
		</g>
	</g>
</g>
</svg>
